<?xml version="1.0" encoding="UTF-8"?><svg xmlns="http://www.w3.org/2000/svg" viewBox="0 0 2680 1080"><defs><style>.cls-1{fill:#96b4cf;}.cls-2{fill:#6d86a7;}</style></defs><g id="MountainBG"><polygon class="cls-2" points="2680 357.8 2680 1080 0 1080 0 321.8 32.2 321.8 87 312 135 291 191 276 199 297 234 311 262 327 282 341 319 341 333 360 364.2 360 405 373 459 370 510 355 522 346 541 339 565 339 582 323 603 310 627 293 678 286 716.2 276 747 257 768.2 276 778 295 803 304 813 315 827.4 324.5 834 349 858 359 878.6 359 889 363 903 360 918 367 934.6 370 965.8 370 997 360 1045 346 1081 324 1119 293 1146 288 1172 264 1194 257 1213 231 1237 231 1266 199 1307 171 1340 139.4 1357.51 127.4 1371 127 1402.6 127 1417 161 1443 180 1463 209 1484 223 1484 276 1506 298 1506 324.5 1493.8 370 1506 403.4 1549 403.4 1595 418 1623 435 1623 465.8 1662 502 1691 526 1729 552 1786.6 540 1839.4 552 1887 519 1904 485 1921 456 1950 435 1974 430 1993 401 2029 413 2055 384 2082 375 2106 363 2133.02 350.6 2151 360 2187 351 2207 329 2231 317 2219 355 2245 401 2276 444 2319 459 2363 444 2411 449 2429 481 2454 490 2488.6 475 2513.8 475 2538 447 2549.86 421.88 2557 435 2570 441 2579 435 2598 408 2627 394 2680 357.8"/></g><g id="Mountain"><polygon class="cls-1" points="1921 456 1904 485 1887 519 1839.4 552 1786.6 540 1729 552 1691 526 1662 502 1623 465.8 1623 435 1595 418 1549 403.4 1506 403.4 1493.8 370 1506 324.5 1506 298 1484 276 1484 223 1463 209 1443 180 1417 161 1402.6 127 1419 137 1421.05 138.71 1431 147 1441 156 1448.29 156 1474.93 172.91 1475 173 1491 197 1503 226 1522.6 248.5 1549 248.5 1563 269 1590 293 1614 315 1640 339 1659.4 370 1679 387 1700 406 1712 423 1727 444 1743 459 1786.6 459 1837 475 1859 461 1892 454 1921 456"/><polygon class="cls-1" points="459 370 405 373 364.2 360 333 360 319 341 282 341 262 327 234 311 199 297 191 276 265 298.9 335.02 326.51 459 370"/><polygon class="cls-1" points="934.6 370 918 367 903 360 889 363 878.6 359 858 359 834 349 827.4 324.5 813 315 803 304 778 295 768.2 276 747 257 764 245 812 269 831 291 860.2 307.5 879 329 903 346 915 355 934.6 370"/><polygon class="cls-1" points="2363 444 2319 459 2276 444 2245 401 2219 355 2231 317 2254.6 301 2271 324 2286 365 2289.39 373.18 2303 406 2334 430 2363 444"/><polygon class="cls-1" points="2488.6 475 2454 490 2429 481 2411 449 2435 437 2454 463 2458.82 465.02 2488.6 475"/><polygon class="cls-1" points="2579 435 2570 441 2557 435 2549.86 421.88 2549.86 421.87 2549.87 421.87 2555 411 2579 435"/></g></svg>