<?xml version="1.0" encoding="UTF-8"?><svg id="Darkgray" xmlns="http://www.w3.org/2000/svg" viewBox="0 0 2680 1080"><defs><style>.cls-1{fill:#14283d;}</style></defs><path class="cls-1" d="M2681,1081v-424.55c-13.11,.34-46.15,2.35-70.2,4.05-84.6,5.99-127.46,20.67-188,26.71-72.79,7.27-91.32,5.56-206,14.74-106.47,8.52-107.88,11.38-173,15.66-84.1,5.52-143.62,4.81-237,3.68-117.07-1.41-204.42-6.68-292-11.97-59.07-3.57-50.26-4.34-101.8-9.58-107.77-10.96-119-23.03-227.2-25.42-124.22-2.75-154.71,17.36-304.8,17.13-69.56-.11-99.9-4.62-226.2-19.9-45.68-5.53-80.45-9.73-128-17.5-134.07-21.9-143.15-35.09-258-53.42-106.55-17.01-182.26-18.99-214-19.34C18.54,580.88,32.33,577.91,0,580v501"/><path class="cls-1" d="M56.35,524.32l-1.11,3.19-.57,1.78-.92,1.02,.82,.07-.51,1.05-1.29,.62-1.29,.62-.85,.29,.38,.4,2.46,.22-.47,.69-.85,.29-.88,.65-1.26,.25-1.26,.25-.85,.29,.79,.43,1.2,.47,1.64,.14,.82,.07-.47,.69-.85,.29-1.29,.62-1.26,.25-.85,.29-.85,.29,1.2,.47,2.05,.18,.41,.04-.47,.69-1.67,.22-2.14,.91-2.11,.54-.47,.69,2.05,.18,1.61,.51,2.49-.15-.95,1.38-1.7,.58-2.55,.87-2.14,.91,2.05,.18,.35,.76,1.61,.51,2.49-.15-.47,.69-1.74,.94-2.62,1.6-3.41,1.16-1.74,.94,2.05,.18,.79,.43,1.26-.25,1.26-.25-.92,1.02-2.52,.51-2.08,.18-1.67,.22-.85,.29,2.02,.54,1.2,.47-1.7,.58,2.02,.54,2.05,.18,2.55-.87,.76,.8-2.55,.87-.44,.33,2.46,.22,.79,.43-3.03,1.56-2.14,.91-1.7,.58,3.25,.65-.92,1.02-2.14,.91-3.34,.44-3.82,1.13-3.85,1.49,.76,.8,4.6-.69-2.18,1.27,2.52-.51,6.21-.18-2.21,1.63-3,1.2,3.66,.69,3.37-.8,.38,.4-3.09,2.29-3.5,2.25-5.08,1.38-1.29,.62,2.02,.54-.47,.69-8.39,1.45,1.61,.51-1.39,1.7,5.83-.58,.31,1.12,2.59-1.23,3.66,.69-3.03,1.56-3.88,1.85-5.08,1.38-3.41,1.16-3.37,.8-.85,.29,2.84,.62,.72,1.16,3.78-.76,.79,.43-1.74,.94-3.41,1.16,2.46,.22-1.36,1.34,3.31-.07,4.23-1.09-.95,1.38,2.93-.47,1.23,.11-.95,1.38,2.05,.18,4.76-2.5,.76,.8-.51,1.05-5.61,2.79,1.23,.11,3.34-.44,.35,.76,2.05,.18,2.11-.54,1.64,.14-.51,1.05-.51,1.05,1.2,.47,3.88-1.85,1.29-.62-.57,1.78,.76,.8,1.36-1.34-.26,2.9,3.28,.29,.22-2.54,2.02,.54,.54-1.41,2.36,1.3,2.33,1.67,.92-1.02-.31-1.12,1.99,.91,1.54,1.23,1.23,.11-1.1-1.56,1.29-.62-2.27-2.39,.06-.73,2.46,.22,3.97,1.81,2.4,.94,.88-.65-1.13-1.2,1.64,.14,1.58,.87,2.43,.58-.72-1.16,5.71,.87,.51-1.05-3.97-1.81-4.38-1.85-3.94-2.17,1.33-.98,3.21,1.01,1.58,.87,2.43,.58,2.05,.18-.69-1.52,3.31-.07,.88-.65-4.79-1.88-6.02-1.99-2.77-1.34-4.32-2.57-1.58-.87,.44-.33,2.84,.62s1.67-.22,1.26-.25-.72-1.16-.72-1.16l2.4,.94,2.43,.58-1.45-2.32,1.58,.87,2.4,.94,1.61,.51,.92-1.02,2.05,.18c.41,.04,1.26-.25,1.26-.25l-2.3-2.03-5.58-2.32-3.15-1.74-4.35-2.21-.66-1.88,.13-1.45,3.25,.65s4.51,.4,4.1,.36-3.15-1.74-3.15-1.74l5.42-.62-3.15-1.74-4.38-1.85-3.09-2.46-1.1-1.56,2.4,.94,1.26-.25,.88-.65,1.64,.14,2.4,.94-.31-1.12-2.77-1.34-2.4-.94-1.58-.87,2.08-.18-2.36-1.3-3.15-1.74-.31-1.12,1.67-.22,1.2,.47-.31-1.12,2.05,.18-.72-1.16,2.87,.25,1.67-.22-2.36-1.3-3.21-1.01-1.58-.87,1.7-.58-2.33-1.67-2.27-2.39-.28-1.49,1.99,.91,1.26-.25,.82,.07,2.08-.18-2.36-1.3-1.99-.91-1.92-1.63,.88-.65,1.23,.11,2.08-.18-1.95-1.27-1.95-1.27,1.26-.25,1.67-.22-1.58-.87-1.58-.87-1.13-1.2,.85-.29-1.13-1.2,1.26-.25,1.64,.14-1.17-.83-1.58-.87,.47-.69,.44-.33-1.54-1.23,.85-.29-.72-1.16-.28-1.49-.15-2.94Z"/><path class="cls-1" d="M1219.73,549.64l-2.26,8.89-1.18,4.94-1.67,2.87,1.38,.13-.98,2.94-2.27,1.8-2.27,1.8-1.48,.87,.59,1.07,4.15,.4-.89,1.94-1.48,.87-1.58,1.87-2.17,.8-2.17,.8-1.48,.87,1.28,1.14,1.98,1.2,2.76,.27,1.38,.13-.89,1.94-1.48,.87-2.27,1.8-2.17,.8-1.48,.87-1.48,.87,1.98,1.2,3.45,.33,.69,.07-.89,1.94-2.86,.73-3.75,2.67-3.65,1.67-.89,1.94,3.45,.33,2.67,1.27,4.24-.6-1.77,3.88-2.96,1.74-4.44,2.6-3.75,2.67,3.45,.33,.5,2.07,2.67,1.27,4.24-.6-.89,1.94-3.05,2.74-4.63,4.61-5.92,3.47-3.05,2.74,3.45,.33,1.28,1.14,2.17-.8,2.17-.8-1.67,2.87-4.34,1.6-3.55,.67-2.86,.73-1.48,.87,3.36,1.34,1.98,1.2-2.96,1.74,3.36,1.34,3.45,.33,4.44-2.6,1.19,2.14-4.44,2.6-.79,.94,4.15,.4,1.28,1.14-5.32,4.54-3.75,2.67-2.96,1.74,5.43,1.54-1.67,2.87-3.75,2.67-5.72,1.47-6.61,3.41-6.7,4.41,1.19,2.14,7.89-2.27-3.84,3.67,4.34-1.6,10.56-1-3.94,4.68-5.22,3.54,6.12,1.61,5.82-2.47,.59,1.07-5.52,6.55-6.21,6.48-8.78,4.21-2.27,1.8,3.36,1.34-.89,1.94-14.4,4.67,2.67,1.27-2.56,4.81,9.96-2.07,.4,3.07,4.53-3.61,6.12,1.61-5.32,4.54-6.8,5.41-8.78,4.21-5.92,3.47-5.82,2.47-1.48,.87,4.74,1.47,1.09,3.14,6.51-2.4,1.28,1.14-3.05,2.74-5.92,3.47,4.15,.4-2.46,3.81,5.62-.47,7.3-3.34-1.77,3.88,5.03-1.54,2.07,.2-1.77,3.88,3.45,.33,8.38-7.28,1.19,2.14-.98,2.94-9.86,8.15,2.07,.2,5.72-1.47,.5,2.07,3.45,.33,3.65-1.67,2.76,.27-.98,2.94-.98,2.94,1.98,1.2,6.8-5.41,2.27-1.8-1.18,4.94,1.19,2.14,2.46-3.81-.78,8.02,5.53,.54,.68-7.02,3.36,1.34,1.08-3.94,3.85,3.41,3.76,4.41,1.67-2.87-.4-3.07,3.26,2.34,2.47,3.27,2.07,.2-1.68-4.21,2.27-1.8-3.56-6.42,.19-2,4.15,.4,6.52,4.68,3.95,2.41,1.58-1.87-1.78-3.21,2.76,.27,2.57,2.27,4.05,1.4-1.09-3.14,9.57,1.94,.98-2.94-6.52-4.68-7.21-4.75-6.42-5.68,2.36-2.81,5.33,2.54,2.57,2.27,4.05,1.4,3.45,.33-.99-4.14,5.62-.47,1.58-1.87-7.9-4.81-9.97-5.01-4.54-3.48-7.02-6.75-2.57-2.27,.79-.94,4.74,1.47s2.86-.73,2.17-.8-1.09-3.14-1.09-3.14l3.95,2.41,4.05,1.4-2.18-6.28,2.57,2.27,3.95,2.41,2.67,1.27,1.67-2.87s2.76,.27,3.45,.33,2.17-.8,2.17-.8l-3.66-5.41-9.19-5.95-5.14-4.55-7.11-5.75-.9-5.15,.39-4.01,5.43,1.54s7.6,.74,6.91,.67-5.14-4.55-5.14-4.55l9.27-2.14-5.14-4.55-7.21-4.75-4.94-6.55-1.68-4.21,3.95,2.41,2.17-.8,1.58-1.87,2.76,.27,3.95,2.41-.4-3.07-4.54-3.48-3.95-2.41-2.57-2.27,3.55-.67-3.85-3.41-5.14-4.55-.4-3.07,2.86-.73,1.98,1.2-.4-3.07,3.45,.33-1.09-3.14,4.84,.47,2.86-.73-3.85-3.41-5.33-2.54-2.57-2.27,2.96-1.74-3.76-4.41-3.56-6.42-.3-4.08,3.26,2.34,2.17-.8,1.38,.13,3.55-.67-3.85-3.41-3.26-2.34-3.07-4.34,1.58-1.87,2.07,.2,3.55-.67-3.16-3.34-3.16-3.34,2.17-.8,2.86-.73-2.57-2.27-2.57-2.27-1.78-3.21,1.48-.87-1.78-3.21,2.17-.8,2.76,.27-1.88-2.21-2.57-2.27,.89-1.94,.79-.94-2.47-3.27,1.48-.87-1.09-3.14-.3-4.08,.09-8.09Z"/><path class="cls-1" d="M1114.96,569.02l-1.13,8.33-.54,4.62-1.46,2.84,1.63-.1-.65,2.79-2.33,1.97-2.33,1.97-1.57,1.01,.87,.87,4.88-.29-.7,1.88-1.57,1.01-1.52,1.93-2.39,1.06-2.39,1.06-1.57,1.01,1.68,.82,2.5,.77,3.25-.19,1.63-.1-.7,1.88-1.57,1.01-2.33,1.97-2.39,1.06-1.57,1.01-1.57,1.01,2.5,.77,4.07-.24,.81-.05-.7,1.88-3.2,1.11-3.9,2.99-3.96,2.07-.7,1.88,4.07-.24,3.31,.72,4.83-1.21-1.41,3.75-3.14,2.02-4.72,3.04-3.9,2.99,4.07-.24,.92,1.78,3.31,.72,4.83-1.21-.7,1.88-3.09,2.94-4.61,4.86-6.29,4.05-3.09,2.94,4.07-.24,1.68,.82,2.39-1.06,2.39-1.06-1.46,2.84-4.77,2.12-4.01,1.16-3.2,1.11-1.57,1.01,4.12,.67,2.5,.77-3.14,2.02,4.12,.67,4.07-.24,4.72-3.04,1.74,1.73-4.72,3.04-.76,.96,4.88-.29,1.68,.82-5.42,4.91-3.9,2.99-3.14,2.02,6.56,.52-1.46,2.84-3.9,2.99-6.4,2.22-7.1,4.1-7.05,5.01,1.74,1.73,8.78-3.28-3.85,3.9,4.77-2.12,12.09-2.56-3.79,4.82-5.48,4,7.38,.48,6.34-3.13,.87,.87-5.31,6.74-6.12,6.79-9.49,5.16-2.33,1.97,4.12,.67-.7,1.88-15.94,6.46,3.31,.72-2.17,4.72,11.22-3.43,.98,2.69,4.66-3.95,7.38,.48-5.42,4.91-6.99,5.92-9.49,5.16-6.29,4.05-6.34,3.13-1.57,1.01,5.75,.57,1.79,2.65,7.16-3.18,1.68,.82-3.09,2.94-6.29,4.05,4.88-.29-2.22,3.8,6.45-1.3,7.92-4.14-1.41,3.75,5.58-2.17,2.44-.15-1.41,3.75,4.07-.24,8.51-7.85,1.74,1.73-.65,2.79-10.08,8.86,2.44-.15,6.4-2.22,.92,1.78,4.07-.24,3.96-2.07,3.25-.19-.65,2.79-.65,2.79,2.5,.77,6.99-5.92,2.33-1.97-.54,4.62,1.74,1.73,2.22-3.8,.44,7.31,6.51-.39-.38-6.4,4.12,.67,.59-3.71,5.04,2.45,5.1,3.37,1.46-2.84-.98-2.69,4.18,1.59,3.42,2.55,2.44-.15-2.66-3.51,2.33-1.97-5.21-5.19-.11-1.83,4.88-.29,8.35,3.17,4.99,1.54,1.52-1.93-2.6-2.6,3.25-.19,3.36,1.63,4.94,.62-1.79-2.65,11.44,.23,.65-2.79-8.35-3.17-9.17-3.12-8.41-4.08,2.28-2.89,6.62,1.44,3.36,1.63,4.94,.62,4.07-.24-1.85-3.56,6.45-1.3,1.52-1.93-9.98-3.07-12.42-2.93-5.86-2.4-9.28-4.95-3.36-1.63,.76-.96,5.75,.57s3.2-1.11,2.39-1.06-1.79-2.65-1.79-2.65l4.99,1.54,4.94,.62-3.58-5.29,3.36,1.63,4.99,1.54,3.31,.72,1.46-2.84s3.25-.19,4.07-.24c.81-.05,2.39-1.06,2.39-1.06l-5.15-4.28-11.66-3.89-6.73-3.27-9.22-4.04-1.9-4.47-.22-3.66,6.56,.52s8.95-.54,8.13-.49-6.73-3.27-6.73-3.27l10.41-3.38-6.73-3.27-9.17-3.12-6.84-5.1-2.66-3.51,4.99,1.54,2.39-1.06,1.52-1.93,3.25-.19,4.99,1.54-.98-2.69-5.86-2.4-4.99-1.54-3.36-1.63,4.01-1.16-5.04-2.45-6.73-3.27-.98-2.69,3.2-1.11,2.5,.77-.98-2.69,4.07-.24-1.79-2.65,5.69-.34,3.2-1.11-5.04-2.45-6.62-1.44-3.36-1.63,3.14-2.02-5.1-3.37-5.21-5.19-1.03-3.61,4.18,1.59,2.39-1.06,1.63-.1,4.01-1.16-5.04-2.45-4.18-1.59-4.29-3.41,1.52-1.93,2.44-.15,4.01-1.16-4.23-2.5-4.23-2.5,2.39-1.06,3.2-1.11-3.36-1.63-3.36-1.63-2.6-2.6,1.57-1.01-2.6-2.6,2.39-1.06,3.25-.19-2.55-1.68-3.36-1.63,.7-1.88,.76-.96-3.42-2.55,1.57-1.01-1.79-2.65-1.03-3.61-1.25-7.27Z"/><path class="cls-1" d="M1035.96,600.04l-1.06,6.31-.52,3.5-1.19,2.13,1.25-.04-.56,2.11-1.83,1.45-1.83,1.45-1.23,.73,.65,.68,3.75-.11-.58,1.41-1.23,.73-1.21,1.43-1.85,.75-1.85,.75-1.23,.73,1.27,.66,1.89,.64,2.5-.07,1.25-.04-.58,1.41-1.23,.73-1.83,1.45-1.85,.75-1.23,.73-1.23,.73,1.89,.64,3.12-.09,.62-.02-.58,1.41-2.48,.77-3.06,2.18-3.08,1.49-.58,1.41,3.12-.09,2.52,.62,3.73-.81-1.17,2.82-2.46,1.47-3.69,2.2-3.06,2.18,3.12-.09,.67,1.37,2.52,.62,3.73-.81-.58,1.41-2.44,2.16-3.64,3.59-4.91,2.93-2.44,2.16,3.12-.09,1.27,.66,1.85-.75,1.85-.75-1.19,2.13-3.71,1.5-3.1,.79-2.48,.77-1.23,.73,3.14,.6,1.89,.64-2.46,1.47,3.14,.6,3.12-.09,3.69-2.2,1.29,1.36-3.69,2.2-.6,.72,3.75-.11,1.27,.66-4.27,3.61-3.06,2.18-2.46,1.47,5.02,.55-1.19,2.13-3.06,2.18-4.96,1.54-5.54,2.95-5.52,3.65,1.29,1.36,6.81-2.29-3.04,2.88,3.71-1.5,9.33-1.67-3.02,3.58-4.29,2.92,5.64,.53,4.93-2.24,.65,.68-4.23,5.01-4.85,5.02-7.39,3.7-1.83,1.45,3.14,.6-.58,1.41-12.37,4.55,2.52,.62-1.77,3.54,8.68-2.35,.69,2.07,3.67-2.9,5.64,.53-4.27,3.61-5.5,4.35-7.39,3.7-4.91,2.93-4.93,2.24-1.23,.73,4.39,.57,1.31,2.05,5.56-2.26,1.27,.66-2.44,2.16-4.91,2.93,3.75-.11-1.79,2.84,4.98-.84,6.16-2.97-1.17,2.82,4.33-1.52,1.87-.06-1.17,2.82,3.12-.09,6.71-5.78,1.29,1.36-.56,2.11-7.93,6.51,1.87-.06,4.96-1.54,.67,1.37,3.12-.09,3.08-1.49,2.5-.07-.56,2.11-.56,2.11,1.89,.64,5.5-4.35,1.83-1.45-.52,3.5,1.29,1.36,1.79-2.84,.16,5.57,5-.15-.14-4.88,3.14,.6,.54-2.8,3.81,1.98,3.83,2.68,1.19-2.13-.69-2.07,3.16,1.3,2.56,2.02,1.87-.06-1.96-2.73,1.83-1.45-3.87-4.07-.04-1.39,3.75-.11,6.33,2.6,3.79,1.28,1.21-1.43-1.94-2.03,2.5-.07,2.54,1.32,3.77,.59-1.31-2.05,8.76,.44,.56-2.11-6.33-2.6-6.95-2.58-6.35-3.3,1.81-2.15,5.04,1.25,2.54,1.32,3.77,.59,3.12-.09-1.33-2.75,4.98-.84,1.21-1.43-7.58-2.56-9.45-2.51-4.43-1.96-6.99-3.98-2.54-1.32,.6-.72,4.39,.57s2.48-.77,1.85-.75-1.31-2.05-1.31-2.05l3.79,1.28,3.77,.59-2.62-4.11,2.54,1.32,3.79,1.28,2.52,.62,1.19-2.13s2.5-.07,3.12-.09,1.85-.75,1.85-.75l-3.85-3.37-8.85-3.22-5.08-2.64-6.97-3.28-1.35-3.45-.08-2.79,5.02,.55s6.87-.2,6.25-.18-5.08-2.64-5.08-2.64l8.06-2.33-5.08-2.64-6.95-2.58-5.12-4.03-1.96-2.73,3.79,1.28,1.85-.75,1.21-1.43,2.5-.07,3.79,1.28-.69-2.07-4.43-1.96-3.79-1.28-2.54-1.32,3.1-.79-3.81-1.98-5.08-2.64-.69-2.07,2.48-.77,1.89,.64-.69-2.07,3.12-.09-1.31-2.05,4.37-.13,2.48-.77-3.81-1.98-5.04-1.25-2.54-1.32,2.46-1.47-3.83-2.68-3.87-4.07-.71-2.77,3.16,1.3,1.85-.75,1.25-.04,3.1-.79-3.81-1.98-3.16-1.3-3.21-2.69,1.21-1.43,1.87-.06,3.1-.79-3.18-2-3.18-2,1.85-.75,2.48-.77-2.54-1.32-2.54-1.32-1.94-2.03,1.23-.73-1.94-2.03,1.85-.75,2.5-.07-1.91-1.34-2.54-1.32,.58-1.41,.6-.72-2.56-2.02,1.23-.73-1.31-2.05-.71-2.77-.79-5.55Z"/><path class="cls-1" d="M142.85,493.38l-1.12,5.28-.59,2.93-.82,1.72,.67,.06-.49,1.75-1.11,1.1-1.11,1.1-.72,.54,.29,.62,2.01,.17-.44,1.16-.72,.54-.77,1.13-1.06,.51-1.06,.51-.72,.54,.62,.65,.96,.68,1.34,.11,.67,.06-.44,1.16-.72,.54-1.11,1.1-1.06,.51-.72,.54-.72,.54,.96,.68,1.68,.14,.34,.03-.44,1.16-1.39,.48-1.83,1.63-1.78,1.04-.44,1.16,1.68,.14,1.29,.71,2.07-.42-.87,2.31-1.44,1.07-2.17,1.61-1.83,1.63,1.68,.14,.24,1.21,1.29,.71,2.07-.42-.44,1.16-1.49,1.66-2.27,2.79-2.89,2.14-1.49,1.66,1.68,.14,.62,.65,1.06-.51,1.06-.51-.82,1.72-2.12,1.01-1.73,.45-1.39,.48-.72,.54,1.63,.74,.96,.68-1.44,1.07,1.63,.74,1.68,.14,2.17-1.61,.57,1.24-2.17,1.61-.39,.56,2.01,.17,.62,.65-2.6,2.76-1.83,1.63-1.44,1.07,2.64,.82-.82,1.72-1.83,1.63-2.79,.96-3.22,2.11-3.27,2.71,.57,1.24,3.84-1.46-1.88,2.23,2.12-1.01,5.14-.76-1.93,2.82-2.55,2.17,2.97,.85,2.84-1.55,.29,.62-2.7,3.95-3.04,3.92-4.28,2.62-1.11,1.1,1.63,.74-.44,1.16-7.02,2.98,1.29,.71-1.26,2.88,4.85-1.38,.18,1.81,2.22-2.2,2.97,.85-2.6,2.76-3.32,3.3-4.28,2.62-2.89,2.14-2.84,1.55-.72,.54,2.3,.79,.52,1.83,3.17-1.52,.62,.65-1.49,1.66-2.89,2.14,2.01,.17-1.21,2.28,2.74-.36,3.56-2.08-.87,2.31,2.45-.99,1.01,.09-.87,2.31,1.68,.14,4.1-4.43,.57,1.24-.49,1.75-4.82,4.96,1.01,.09,2.79-.96,.24,1.21,1.68,.14,1.78-1.04,1.34,.11-.49,1.75-.49,1.75,.96,.68,3.32-3.3,1.11-1.1-.59,2.93,.57,1.24,1.21-2.28-.4,4.74,2.69,.23,.35-4.15,1.63,.74,.54-2.34,1.86,1.95,1.81,2.54,.82-1.72-.18-1.81,1.58,1.33,1.19,1.89,1.01,.09-.81-2.46,1.11-1.1-1.71-3.73,.1-1.18,2.01,.17,3.16,2.66,1.91,1.36,.77-1.13-.86-1.86,1.34,.11,1.24,1.3,1.96,.76-.52-1.83,4.65,.99,.49-1.75-3.16-2.66-3.49-2.68-3.11-3.25,1.16-1.69,2.59,1.41,1.24,1.3,1.96,.76,1.68,.14-.47-2.43,2.74-.36,.77-1.13-3.83-2.71-4.84-2.8-2.2-1.98-3.39-3.87-1.24-1.3,.39-.56,2.3,.79s1.39-.48,1.06-.51-.52-1.83-.52-1.83l1.91,1.36,1.96,.76-1.04-3.67,1.24,1.3,1.91,1.36,1.29,.71,.82-1.72,1.68,.14c.34,.03,1.06-.51,1.06-.51l-1.76-3.13-4.45-3.36-2.49-2.6-3.44-3.28-.42-3.02,.2-2.37,2.64,.82s3.69,.31,3.36,.29-2.49-2.6-2.49-2.6l4.52-1.41-2.49-2.6-3.49-2.68-2.38-3.78-.81-2.46,1.91,1.36,1.06-.51,.77-1.13,1.34,.11,1.91,1.36-.18-1.81-2.2-1.98-1.91-1.36-1.24-1.3,1.73-.45-1.86-1.95-2.49-2.6-.18-1.81,1.39-.48,.96,.68-.18-1.81,1.68,.14-.52-1.83,2.35,.2,1.39-.48-1.86-1.95-2.59-1.41-1.24-1.3,1.44-1.07-1.81-2.54-1.71-3.73-.13-2.4,1.58,1.33,1.06-.51,.67,.06,1.73-.45-1.86-1.95-1.58-1.33-1.48-2.51,.77-1.13,1.01,.09,1.73-.45-1.53-1.92-1.53-1.92,1.06-.51,1.39-.48-1.24-1.3-1.24-1.3-.86-1.86,.72-.54-.86-1.86,1.06-.51,1.34,.11-.91-1.27-1.24-1.3,.44-1.16,.39-.56-1.19-1.89,.72-.54-.52-1.83-.13-2.4,.07-4.77Z"/><path class="cls-1" d="M449.25,558.11l-1.38,6.12-.7,3.4-1.3,2.02,1.26,.03-.67,2.04-1.92,1.33-1.92,1.33-1.28,.66,.62,.7,3.79,.08-.66,1.35-1.28,.66-1.29,1.34-1.91,.64-1.91,.64-1.28,.66,1.25,.71,1.88,.72,2.52,.05,1.26,.03-.66,1.35-1.28,.66-1.92,1.33-1.91,.64-1.28,.66-1.28,.66,1.88,.72,3.16,.06h.63s-.66,1.37-.66,1.37l-2.54,.63-3.2,1.99-3.18,1.3-.66,1.35,3.16,.06,2.51,.73,3.8-.61-1.32,2.71-2.55,1.32-3.83,1.97-3.2,1.99,3.16,.06,.6,1.38,2.51,.73,3.8-.61-.66,1.35-2.57,2-3.85,3.34-5.1,2.63-2.57,2,3.16,.06,1.25,.71,1.91-.64,1.91-.64-1.3,2.02-3.81,1.29-3.17,.62-2.54,.63-1.28,.66,3.14,.75,1.88,.72-2.55,1.32,3.14,.75,3.16,.06,3.83-1.97,1.23,1.39-3.83,1.97-.64,.67,3.79,.08,1.25,.71-4.49,3.33-3.2,1.99-2.55,1.32,5.03,.78-1.3,2.02-3.2,1.99-5.08,1.26-5.73,2.62-5.75,3.3,1.23,1.39,6.98-1.91-3.21,2.67,3.81-1.29,9.49-1.18-3.22,3.35-4.47,2.64,5.67,.8,5.09-1.95,.62,.7-4.51,4.69-5.14,4.68-7.64,3.26-1.92,1.33,3.14,.75-.66,1.35-12.7,3.84,2.51,.73-1.96,3.38,8.88-1.87,.59,2.06,3.84-2.66,5.67,.8-4.49,3.33-5.76,3.98-7.64,3.26-5.1,2.63-5.09,1.95-1.28,.66,4.4,.77,1.22,2.07,5.72-1.93,1.25,.71-2.57,2-5.1,2.63,3.79,.08-1.95,2.69,5.06-.58,6.36-2.61-1.32,2.71,4.44-1.28,1.89,.04-1.32,2.71,3.16,.06,7.05-5.32,1.23,1.39-.67,2.04-8.33,5.98,1.89,.04,5.08-1.26,.6,1.38,3.16,.06,3.18-1.3,2.52,.05-.67,2.04-.67,2.04,1.88,.72,5.76-3.98,1.92-1.33-.7,3.4,1.23,1.39,1.95-2.69-.11,5.46,5.05,.1,.1-4.78,3.14,.75,.69-2.72,3.75,2.12,3.73,2.81,1.3-2.02-.59-2.06,3.13,1.43,2.48,2.1,1.89,.04-1.84-2.77,1.92-1.33-3.7-4.17,.03-1.37,3.79,.08,6.26,2.86,3.76,1.44,1.29-1.34-1.85-2.09,2.52,.05,2.5,1.42,3.77,.76-1.22-2.07,8.82,.86,.67-2.04-6.26-2.86-6.89-2.87-6.24-3.54,1.93-2.01,5.02,1.47,2.5,1.42,3.77,.76,3.16,.06-1.21-2.76,5.06-.58,1.29-1.34-7.52-2.88-9.41-2.92-4.38-2.14-6.86-4.24-2.5-1.42,.64-.67,4.4,.77s2.54-.63,1.91-.64-1.22-2.07-1.22-2.07l3.76,1.44,3.77,.76-2.44-4.15,2.5,1.42,3.76,1.44,2.51,.73,1.3-2.02s2.52,.05,3.16,.06,1.91-.64,1.91-.64l-3.72-3.49-8.77-3.59-4.99-2.83-6.87-3.55-1.19-3.44,.05-2.73,5.03,.78s6.94,.14,6.31,.13-4.99-2.83-4.99-2.83l8.24-1.88-4.99-2.83-6.89-2.87-4.97-4.2-1.84-2.77,3.76,1.44,1.91-.64,1.29-1.34,2.52,.05,3.76,1.44-.59-2.06-4.38-2.14-3.76-1.44-2.5-1.42,3.17-.62-3.75-2.12-4.99-2.83-.59-2.06,2.54-.63,1.88,.72-.59-2.06,3.16,.06-1.22-2.07,4.42,.09,2.54-.63-3.75-2.12-5.02-1.47-2.5-1.42,2.55-1.32-3.73-2.81-3.7-4.17-.58-2.74,3.13,1.43,1.91-.64,1.26,.03,3.17-.62-3.75-2.12-3.13-1.43-3.1-2.79,1.29-1.34,1.89,.04,3.17-.62-3.11-2.11-3.11-2.11,1.91-.64,2.54-.63-2.5-1.42-2.5-1.42-1.85-2.09,1.28-.66-1.85-2.09,1.91-.64,2.52,.05-1.87-1.4-2.5-1.42,.66-1.35,.64-.67-2.48-2.1,1.28-.66-1.22-2.07-.58-2.74-.52-5.47Z"/><path class="cls-1" d="M563.15,598.97l-.25,3.76-.1,2.09-.54,1.31,.69-.08-.2,1.27-.93,.94-.93,.94-.64,.49,.39,.37,2.06-.25-.25,.86-.64,.49-.59,.9-.98,.53-.98,.53-.64,.49,.74,.33,1.08,.29,1.37-.16,.69-.08-.25,.86-.64,.49-.93,.94-.98,.53-.64,.49-.64,.49,1.08,.29,1.72-.21,.34-.04-.25,.86-1.32,.57-1.57,1.43-1.62,1.02-.25,.86,1.72-.21,1.42,.24,2.01-.66-.49,1.72-1.27,.98-1.91,1.47-1.57,1.43,1.72-.21,.44,.78,1.42,.24,2.01-.66-.25,.86-1.23,1.39-1.81,2.29-2.55,1.96-1.23,1.39,1.72-.21,.74,.33,.98-.53,.98-.53-.54,1.31-1.96,1.06-1.67,.61-1.32,.57-.64,.49,1.76,.2,1.08,.29-1.27,.98,1.76,.2,1.72-.21,1.91-1.47,.78,.74-1.91,1.47-.29,.45,2.06-.25,.74,.33-2.16,2.33-1.57,1.43-1.27,.98,2.79,.08-.54,1.31-1.57,1.43-2.65,1.15-2.89,2-2.84,2.41,.78,.74,3.63-1.68-1.52,1.84,1.96-1.06,5.05-1.43-1.47,2.25-2.21,1.92,3.14,.04,2.6-1.56,.39,.37-2.06,3.15-2.4,3.19-3.87,2.54-.93,.94,1.76,.2-.25,.86-6.57,3.27,1.42,.24-.78,2.17,4.66-1.8,.49,1.19,1.86-1.88,3.14,.04-2.16,2.33-2.79,2.82-3.87,2.54-2.55,1.96-2.6,1.56-.64,.49,2.45,.12,.83,1.14,2.94-1.6,.74,.33-1.23,1.39-2.55,1.96,2.06-.25-.83,1.76,2.7-.74,3.24-2.05-.49,1.72,2.3-1.11,1.03-.12-.49,1.72,1.72-.21,3.38-3.72,.78,.74-.2,1.27-4.02,4.21,1.03-.12,2.65-1.15,.44,.78,1.72-.21,1.62-1.02,1.37-.16-.2,1.27-.2,1.27,1.08,.29,2.79-2.82,.93-.94-.1,2.09,.78,.74,.83-1.76,.39,3.27,2.74-.33-.34-2.86,1.76,.2,.15-1.68,2.21,.98,2.25,1.39,.54-1.31-.49-1.19,1.81,.61,1.52,1.06,1.03-.12-1.23-1.51,.93-.94-2.35-2.21-.1-.82,2.06-.25,3.63,1.22,2.16,.57,.59-.9-1.18-1.1,1.37-.16,1.47,.65,2.11,.16-.83-1.14,4.85-.17,.2-1.27-3.63-1.22-3.97-1.18-3.68-1.63,.88-1.35,2.84,.49,1.47,.65,2.11,.16,1.72-.21-.88-1.55,2.7-.74,.59-.9-4.31-1.14-5.34-1.02-2.55-.94-4.07-2-1.47-.65,.29-.45,2.45,.12s1.32-.57,.98-.53-.83-1.14-.83-1.14l2.16,.57,2.11,.16-1.67-2.29,1.47,.65,2.16,.57,1.42,.24,.54-1.31,1.72-.21c.34-.04,.98-.53,.98-.53l-2.3-1.8-5.05-1.47-2.94-1.31-4.02-1.59-.93-1.96-.2-1.64,2.79,.08s3.77-.45,3.43-.41-2.94-1.31-2.94-1.31l4.31-1.76-2.94-1.31-3.97-1.18-3.04-2.12-1.23-1.51,2.16,.57,.98-.53,.59-.9,1.37-.16,2.16,.57-.49-1.19-2.55-.94-2.16-.57-1.47-.65,1.67-.61-2.21-.98-2.94-1.31-.49-1.19,1.32-.57,1.08,.29-.49-1.19,1.72-.21-.83-1.14,2.4-.29,1.32-.57-2.21-.98-2.84-.49-1.47-.65,1.27-.98-2.25-1.39-2.35-2.21-.54-1.59,1.81,.61,.98-.53,.69-.08,1.67-.61-2.21-.98-1.81-.61-1.91-1.43,.59-.9,1.03-.12,1.67-.61-1.86-1.02-1.86-1.02,.98-.53,1.32-.57-1.47-.65-1.47-.65-1.18-1.1,.64-.49-1.18-1.1,.98-.53,1.37-.16-1.13-.69-1.47-.65,.25-.86,.29-.45-1.52-1.06,.64-.49-.83-1.14-.54-1.59-.73-3.23Z"/><path class="cls-1" d="M702.15,579.18l-1.46,5.93-.74,3.3-1.32,1.95,1.25,.05-.7,1.97-1.92,1.26-1.92,1.26-1.27,.62,.6,.69,3.74,.14-.67,1.31-1.27,.62-1.29,1.28-1.89,.6-1.89,.6-1.27,.62,1.22,.71,1.85,.73,2.49,.09,1.25,.05-.67,1.31-1.27,.62-1.92,1.26-1.89,.6-1.27,.62-1.27,.62,1.85,.73,3.12,.11,.62,.02-.67,1.31-2.52,.57-3.19,1.88-3.16,1.21-.67,1.31,3.12,.11,2.47,.75,3.76-.53-1.34,2.61-2.54,1.24-3.81,1.86-3.19,1.88,3.12,.11,.57,1.35,2.47,.75,3.76-.53-.67,1.31-2.57,1.9-3.86,3.18-5.08,2.47-2.57,1.9,3.12,.11,1.22,.71,1.89-.6,1.89-.6-1.32,1.95-3.79,1.19-3.14,.55-2.52,.57-1.27,.62,3.09,.78,1.85,.73-2.54,1.24,3.09,.78,3.12,.11,3.81-1.86,1.2,1.37-3.81,1.86-.65,.64,3.74,.14,1.22,.71-4.48,3.16-3.19,1.88-2.54,1.24,4.96,.85-1.32,1.95-3.19,1.88-5.03,1.15-5.7,2.45-5.73,3.11,1.2,1.37,6.93-1.74-3.21,2.54,3.79-1.19,9.39-.99-3.24,3.21-4.46,2.5,5.58,.87,5.06-1.81,.6,.69-4.53,4.49-5.15,4.47-7.6,3.05-1.92,1.26,3.09,.78-.67,1.31-12.61,3.53,2.47,.75-1.99,3.25,8.8-1.67,.55,2.01,3.84-2.52,5.58,.87-4.48,3.16-5.75,3.78-7.6,3.05-5.08,2.47-5.06,1.81-1.27,.62,4.34,.82,1.17,2.04,5.68-1.79,1.22,.71-2.57,1.9-5.08,2.47,3.74,.14-1.97,2.59,5.01-.48,6.33-2.43-1.34,2.61,4.41-1.17,1.87,.07-1.34,2.61,3.12,.11,7.05-5.06,1.2,1.37-.7,1.97-8.32,5.68,1.87,.07,5.03-1.15,.57,1.35,3.12,.11,3.16-1.21,2.49,.09-.7,1.97-.7,1.97,1.85,.73,5.75-3.78,1.92-1.26-.74,3.3,1.2,1.37,1.97-2.59-.19,5.31,4.98,.18,.17-4.65,3.09,.78,.72-2.63,3.67,2.13,3.64,2.79,1.32-1.95-.55-2.01,3.07,1.44,2.42,2.08,1.87,.07-1.77-2.72,1.92-1.26-3.59-4.12,.05-1.33,3.74,.14,6.13,2.88,3.69,1.46,1.29-1.28-1.8-2.06,2.49,.09,2.44,1.42,3.71,.8-1.17-2.04,8.7,.98,.7-1.97-6.13-2.88-6.76-2.91-6.11-3.55,1.94-1.92,4.94,1.51,2.44,1.42,3.71,.8,3.12,.11-1.15-2.7,5.01-.48,1.29-1.28-7.38-2.93-9.25-3-4.29-2.15-6.71-4.23-2.44-1.42,.65-.64,4.34,.82s2.52-.57,1.89-.6-1.17-2.04-1.17-2.04l3.69,1.46,3.71,.8-2.35-4.07,2.44,1.42,3.69,1.46,2.47,.75,1.32-1.95s2.49,.09,3.12,.11,1.89-.6,1.89-.6l-3.62-3.46-8.6-3.64-4.89-2.84-6.73-3.57-1.13-3.36,.1-2.66,4.96,.85s6.85,.25,6.23,.23-4.89-2.84-4.89-2.84l8.17-1.7-4.89-2.84-6.76-2.91-4.84-4.16-1.77-2.72,3.69,1.46,1.89-.6,1.29-1.28,2.49,.09,3.69,1.46-.55-2.01-4.29-2.15-3.69-1.46-2.44-1.42,3.14-.55-3.67-2.13-4.89-2.84-.55-2.01,2.52-.57,1.85,.73-.55-2.01,3.12,.11-1.17-2.04,4.36,.16,2.52-.57-3.67-2.13-4.94-1.51-2.44-1.42,2.54-1.24-3.64-2.79-3.59-4.12-.53-2.68,3.07,1.44,1.89-.6,1.25,.05,3.14-.55-3.67-2.13-3.07-1.44-3.02-2.77,1.29-1.28,1.87,.07,3.14-.55-3.04-2.11-3.04-2.11,1.89-.6,2.52-.57-2.44-1.42-2.44-1.42-1.8-2.06,1.27-.62-1.8-2.06,1.89-.6,2.49,.09-1.82-1.4-2.44-1.42,.67-1.31,.65-.64-2.42-2.08,1.27-.62-1.17-2.04-.53-2.68-.43-5.33Z"/><path class="cls-1" d="M831.3,589.3l-2.01,6.85-1.03,3.81-1.77,2.23,1.66,.09-.95,2.27-2.56,1.41-2.56,1.41-1.7,.69,.79,.81,4.97,.26-.91,1.5-1.7,.69-1.74,1.46-2.52,.64-2.52,.64-1.7,.69,1.62,.86,2.44,.9,3.31,.17,1.66,.09-.91,1.5-1.7,.69-2.56,1.41-2.52,.64-1.7,.69-1.7,.69,2.44,.9,4.14,.21,.83,.04-.91,1.5-3.35,.6-4.26,2.1-4.22,1.33-.91,1.5,4.14,.21,3.27,.94,5.01-.52-1.81,3-3.39,1.37-5.09,2.06-4.26,2.1,4.14,.21,.75,1.58,3.27,.94,5.01-.52-.91,1.5-3.43,2.14-5.17,3.6-6.78,2.74-3.43,2.14,4.14,.21,1.62,.86,2.52-.64,2.52-.64-1.77,2.23-5.05,1.29-4.18,.56-3.35,.6-1.7,.69,4.1,.98,2.44,.9-3.39,1.37,4.1,.98,4.14,.21,5.09-2.06,1.58,1.63-5.09,2.06-.87,.73,4.97,.26,1.62,.86-5.99,3.55-4.26,2.1-3.39,1.37,6.58,1.11-1.77,2.23-4.26,2.1-6.7,1.2-7.61,2.7-7.65,3.47,1.58,1.63,9.23-1.84-4.3,2.87,5.05-1.29,12.5-.9-4.34,3.64-5.95,2.78,7.41,1.15,6.74-1.97,.79,.81-6.07,5.09-6.9,5.05-10.13,3.34-2.56,1.41,4.1,.98-.91,1.5-16.8,3.77,3.27,.94-2.68,3.72,11.71-1.72,.71,2.35,5.13-2.83,7.41,1.15-5.99,3.55-7.69,4.24-10.13,3.34-6.78,2.74-6.74,1.97-1.7,.69,5.76,1.07,1.54,2.4,7.57-1.93,1.62,.86-3.43,2.14-6.78,2.74,4.97,.26-2.64,2.95,6.66-.43,8.44-2.66-1.81,3,5.87-1.24,2.48,.13-1.81,3,4.14,.21,9.42-5.69,1.58,1.63-.95,2.27-11.12,6.38,2.48,.13,6.7-1.2,.75,1.58,4.14,.21,4.22-1.33,3.31,.17-.95,2.27-.95,2.27,2.44,.9,7.69-4.24,2.56-1.41-1.03,3.81,1.58,1.63,2.64-2.95-.32,6.16,6.62,.34,.28-5.39,4.1,.98,.99-3.04,4.85,2.57,4.81,3.34,1.77-2.23-.71-2.35,4.06,1.75,3.19,2.48,2.48,.13-2.33-3.21,2.56-1.41-4.73-4.88,.08-1.54,4.97,.26,8.12,3.51,4.89,1.8,1.74-1.46-2.37-2.44,3.31,.17,3.23,1.71,4.93,1.03-1.54-2.4,11.55,1.37,.95-2.27-8.12-3.51-8.95-3.55-8.08-4.28,2.6-2.18,6.54,1.88,3.23,1.71,4.93,1.03,4.14,.21-1.5-3.17,6.66-.43,1.74-1.46-9.78-3.59-12.26-3.72-5.68-2.61-8.87-5.09-3.23-1.71,.87-.73,5.76,1.07s3.35-.6,2.52-.64-1.54-2.4-1.54-2.4l4.89,1.8,4.93,1.03-3.07-4.79,3.23,1.71,4.89,1.8,3.27,.94,1.77-2.23s3.31,.17,4.14,.21,2.52-.64,2.52-.64l-4.77-4.11-11.39-4.45-6.47-3.42-8.91-4.32-1.46-3.94,.16-3.08,6.58,1.11s9.11,.47,8.28,.43-6.47-3.42-6.47-3.42l10.88-1.76-6.47-3.42-8.95-3.55-6.39-4.96-2.33-3.21,4.89,1.8,2.52-.64,1.74-1.46,3.31,.17,4.89,1.8-.71-2.35-5.68-2.61-4.89-1.8-3.23-1.71,4.18-.56-4.85-2.57-6.47-3.42-.71-2.35,3.35-.6,2.44,.9-.71-2.35,4.14,.21-1.54-2.4,5.8,.3,3.35-.6-4.85-2.57-6.54-1.88-3.23-1.71,3.39-1.37-4.81-3.34-4.73-4.88-.67-3.12,4.06,1.75,2.52-.64,1.66,.09,4.18-.56-4.85-2.57-4.06-1.75-3.98-3.29,1.74-1.46,2.48,.13,4.18-.56-4.02-2.52-4.02-2.52,2.52-.64,3.35-.6-3.23-1.71-3.23-1.71-2.37-2.44,1.7-.69-2.37-2.44,2.52-.64,3.31,.17-2.4-1.67-3.23-1.71,.91-1.5,.87-.73-3.19-2.48,1.7-.69-1.54-2.4-.67-3.12-.51-6.21Z"/><path class="cls-1" d="M1303.23,597l-.94,4.67-.47,2.6-.94,1.56h.94l-.47,1.56-1.42,1.04-1.42,1.04-.94,.52,.47,.52h2.83l-.47,1.04-.94,.52-.94,1.04-1.42,.52-1.42,.52-.94,.52,.94,.52,1.42,.52h2.83l-.47,1.04-.94,.52-1.42,1.04-1.42,.52-.94,.52-.94,.52,1.42,.52h2.83l-.47,1.04-1.89,.52-2.36,1.56-2.36,1.04-.47,1.04h2.36l1.89,.52,2.83-.52-.94,2.08-1.89,1.04-2.83,1.56-2.36,1.56h2.36l.47,1.04,1.89,.52,2.83-.52-.47,1.04-1.89,1.56-2.83,2.6-3.78,2.08-1.89,1.56h2.36l.94,.52,1.42-.52,1.42-.52-.94,1.56-2.83,1.04-2.36,.52-1.89,.52-.94,.52,2.36,.52,1.42,.52-1.89,1.04,2.36,.52h2.36l2.83-1.56,.94,1.04-2.83,1.56-.47,.52h2.83l.94,.52-3.31,2.6-2.36,1.56-1.89,1.04,3.78,.52-.94,1.56-2.36,1.56-3.78,1.04-4.25,2.08-4.25,2.6,.94,1.04,5.19-1.56-2.36,2.08,2.83-1.04,7.08-1.04-2.36,2.6-3.31,2.08,4.25,.52,3.78-1.56,.47,.52-3.31,3.64-3.78,3.64-5.67,2.6-1.42,1.04,2.36,.52-.47,1.04-9.44,3.12,1.89,.52-1.42,2.6,6.61-1.56,.47,1.56,2.83-2.08,4.25,.52-3.31,2.6-4.25,3.12-5.67,2.6-3.78,2.08-3.78,1.56-.94,.52,3.31,.52,.94,1.56,4.25-1.56,.94,.52-1.89,1.56-3.78,2.08h2.83l-1.42,2.08,3.78-.52,4.72-2.08-.94,2.08,3.31-1.04h1.42l-.94,2.08h2.36l5.19-4.15,.94,1.04-.47,1.56-6.14,4.67h1.42l3.78-1.04,.47,1.04h2.36l2.36-1.04h1.89l-.47,1.56-.47,1.56,1.42,.52,4.25-3.12,1.42-1.04-.47,2.6,.94,1.04,1.42-2.08v4.15h3.78v-3.64l2.36,.52,.47-2.08,2.83,1.56,2.83,2.08,.94-1.56-.47-1.56,2.36,1.04,1.89,1.56h1.42l-1.42-2.08,1.42-1.04-2.83-3.12v-1.04h2.83l4.72,2.08,2.83,1.04,.94-1.04-1.42-1.56h1.89l1.89,1.04,2.83,.52-.94-1.56,6.61,.52,.47-1.56-4.72-2.08-5.19-2.08-4.72-2.6,1.42-1.56,3.78,1.04,1.89,1.04,2.83,.52h2.36l-.94-2.08,3.78-.52,.94-1.04-5.67-2.08-7.08-2.08-3.31-1.56-5.19-3.12-1.89-1.04,.47-.52,3.31,.52s1.89-.52,1.42-.52-.94-1.56-.94-1.56l2.83,1.04,2.83,.52-1.89-3.12,1.89,1.04,2.83,1.04,1.89,.52,.94-1.56s1.89,0,2.36,0,1.42-.52,1.42-.52l-2.83-2.6-6.61-2.6-3.78-2.08-5.19-2.6-.94-2.6v-2.08l3.78,.52s5.19,0,4.72,0-3.78-2.08-3.78-2.08l6.14-1.56-3.78-2.08-5.19-2.08-3.78-3.12-1.42-2.08,2.83,1.04,1.42-.52,.94-1.04h1.89l2.83,1.04-.47-1.56-3.31-1.56-2.83-1.04-1.89-1.04,2.36-.52-2.83-1.56-3.78-2.08-.47-1.56,1.89-.52,1.42,.52-.47-1.56h2.36l-.94-1.56h3.31l1.89-.52-2.83-1.56-3.78-1.04-1.89-1.04,1.89-1.04-2.83-2.08-2.83-3.12-.47-2.08,2.36,1.04,1.42-.52h.94l2.36-.52-2.83-1.56-2.36-1.04-2.36-2.08,.94-1.04h1.42l2.36-.52-2.36-1.56-2.36-1.56,1.42-.52,1.89-.52-1.89-1.04-1.89-1.04-1.42-1.56,.94-.52-1.42-1.56,1.42-.52h1.89l-1.42-1.04-1.89-1.04,.47-1.04,.47-.52-1.89-1.56,.94-.52-.94-1.56-.47-2.08-.47-4.15Z"/><path class="cls-1" d="M1425.06,557.07l-1.24,8.52-.59,4.73-1.54,2.9,1.69-.09-.69,2.86-2.43,2.01-2.43,2.01-1.64,1.03,.89,.89,5.06-.27-.74,1.92-1.64,1.03-1.59,1.96-2.48,1.07-2.48,1.07-1.64,1.03,1.74,.85,2.58,.8,3.38-.18,1.69-.09-.74,1.92-1.64,1.03-2.43,2.01-2.48,1.07-1.64,1.03-1.64,1.03,2.58,.8,4.22-.23,.84-.05-.74,1.92-3.33,1.12-4.07,3.04-4.12,2.1-.74,1.92,4.22-.23,3.43,.76,5.01-1.21-1.49,3.84-3.27,2.05-4.91,3.08-4.07,3.04,4.22-.23,.94,1.83,3.43,.76,5.01-1.21-.74,1.92-3.22,2.99-4.81,4.96-6.55,4.11-3.22,2.99,4.22-.23,1.74,.85,2.48-1.07,2.48-1.07-1.54,2.9-4.96,2.14-4.17,1.16-3.33,1.12-1.64,1.03,4.27,.71,2.58,.8-3.27,2.05,4.27,.71,4.22-.23,4.91-3.08,1.79,1.78-4.91,3.08-.79,.98,5.06-.27,1.74,.85-5.66,5-4.07,3.04-3.27,2.05,6.8,.58-1.54,2.9-4.07,3.04-6.65,2.24-7.39,4.15-7.34,5.09,1.79,1.78,9.13-3.31-4.02,3.97,4.96-2.14,12.56-2.55-3.97,4.91-5.71,4.06,7.64,.53,6.6-3.17,.89,.89-5.56,6.87-6.4,6.92-9.87,5.23-2.43,2.01,4.27,.71-.74,1.92-16.58,6.52,3.43,.76-2.28,4.82,11.66-3.44,.99,2.77,4.86-4.02,7.64,.53-5.66,5-7.29,6.03-9.87,5.23-6.55,4.11-6.6,3.17-1.64,1.03,5.96,.62,1.84,2.72,7.44-3.22,1.74,.85-3.22,2.99-6.55,4.11,5.06-.27-2.33,3.88,6.7-1.3,8.24-4.2-1.49,3.84,5.81-2.19,2.53-.14-1.49,3.84,4.22-.23,8.88-7.99,1.79,1.78-.69,2.86-10.52,9.02,2.53-.14,6.65-2.24,.94,1.83,4.22-.23,4.12-2.1,3.38-.18-.69,2.86-.69,2.86,2.58,.8,7.29-6.03,2.43-2.01-.59,4.73,1.79,1.78,2.33-3.88,.4,7.49,6.75-.36-.35-6.56,4.27,.71,.64-3.79,5.21,2.54,5.26,3.48,1.54-2.9-.99-2.77,4.32,1.65,3.53,2.63,2.53-.14-2.73-3.61,2.43-2.01-5.36-5.35-.1-1.87,5.06-.27,8.64,3.3,5.16,1.6,1.59-1.96-2.68-2.67,3.38-.18,3.48,1.69,5.11,.67-1.84-2.72,11.86,.3,.69-2.86-8.64-3.3-9.48-3.25-8.69-4.23,2.38-2.95,6.85,1.51,3.48,1.69,5.11,.67,4.22-.23-1.89-3.66,6.7-1.3,1.59-1.96-10.33-3.21-12.86-3.07-6.06-2.49-9.58-5.12-3.48-1.69,.79-.98,5.96,.62s3.33-1.12,2.48-1.07-1.84-2.72-1.84-2.72l5.16,1.6,5.11,.67-3.68-5.44,3.48,1.69,5.16,1.6,3.43,.76,1.54-2.9s3.38-.18,4.22-.23c.84-.05,2.48-1.07,2.48-1.07l-5.31-4.41-12.06-4.05-6.95-3.39-9.53-4.19-1.94-4.59-.2-3.75,6.8,.58s9.28-.5,8.44-.45-6.95-3.39-6.95-3.39l10.82-3.4-6.95-3.39-9.48-3.25-7.05-5.26-2.73-3.61,5.16,1.6,2.48-1.07,1.59-1.96,3.38-.18,5.16,1.6-.99-2.77-6.06-2.49-5.16-1.6-3.48-1.69,4.17-1.16-5.21-2.54-6.95-3.39-.99-2.77,3.33-1.12,2.58,.8-.99-2.77,4.22-.23-1.84-2.72,5.91-.32,3.33-1.12-5.21-2.54-6.85-1.51-3.48-1.69,3.27-2.05-5.26-3.48-5.36-5.35-1.04-3.7,4.32,1.65,2.48-1.07,1.69-.09,4.17-1.16-5.21-2.54-4.32-1.65-4.42-3.52,1.59-1.96,2.53-.14,4.17-1.16-4.37-2.58-4.37-2.58,2.48-1.07,3.33-1.12-3.48-1.69-3.48-1.69-2.68-2.67,1.64-1.03-2.68-2.67,2.48-1.07,3.38-.18-2.63-1.74-3.48-1.69,.74-1.92,.79-.98-3.53-2.63,1.64-1.03-1.84-2.72-1.04-3.7-1.25-7.45Z"/><path class="cls-1" d="M1570.23,582.92l-1.69,6.77-.88,3.77-1.32,2.2,1.14,.09-.75,2.24-1.83,1.39-1.83,1.39-1.2,.67,.51,.81,3.42,.27-.69,1.48-1.2,.67-1.26,1.43-1.77,.63-1.77,.63-1.2,.67,1.08,.85,1.65,.9,2.28,.18,1.14,.09-.69,1.48-1.2,.67-1.83,1.39-1.77,.63-1.2,.67-1.2,.67,1.65,.9,2.85,.23,.57,.05-.69,1.48-2.34,.58-3.03,2.06-2.97,1.3-.69,1.48,2.85,.23,2.22,.94,3.48-.49-1.38,2.96-2.4,1.34-3.61,2.01-3.03,2.06,2.85,.23,.45,1.57,2.22,.94,3.48-.49-.69,1.48-2.46,2.1-3.73,3.54-4.81,2.68-2.46,2.1,2.85,.23,1.08,.85,1.77-.63,1.77-.63-1.32,2.2-3.54,1.25-2.91,.53-2.34,.58-1.2,.67,2.79,.99,1.65,.9-2.4,1.34,2.79,.99,2.85,.23,3.61-2.01,1.02,1.62-3.61,2.01-.63,.72,3.42,.27,1.08,.85-4.3,3.49-3.03,2.06-2.4,1.34,4.5,1.13-1.32,2.2-3.03,2.06-4.68,1.16-5.38,2.64-5.44,3.4,1.02,1.62,6.46-1.78-3.1,2.82,3.54-1.25,8.68-.84-3.16,3.58-4.24,2.73,5.07,1.17,4.75-1.92,.51,.81-4.42,5.02-4.99,4.97-7.15,3.26-1.83,1.39,2.79,.99-.69,1.48-11.77,3.66,2.22,.94-2.02,3.67,8.17-1.65,.39,2.33,3.67-2.77,5.07,1.17-4.3,3.49-5.5,4.16-7.15,3.26-4.81,2.68-4.75,1.92-1.2,.67,3.93,1.08,.96,2.38,5.32-1.88,1.08,.85-2.46,2.1-4.81,2.68,3.42,.27-1.96,2.91,4.62-.4,5.95-2.59-1.38,2.96,4.11-1.2,1.71,.14-1.38,2.96,2.85,.23,6.76-5.59,1.02,1.62-.75,2.24-7.96,6.27,1.71,.14,4.68-1.16,.45,1.57,2.85,.23,2.97-1.3,2.28,.18-.75,2.24-.75,2.24,1.65,.9,5.5-4.16,1.83-1.39-.88,3.77,1.02,1.62,1.96-2.91-.49,6.1,4.56,.37,.43-5.34,2.79,.99,.81-3,3.24,2.56,3.18,3.32,1.32-2.2-.39-2.33,2.73,1.75,2.1,2.47,1.71,.14-1.47-3.19,1.83-1.39-3.06-4.85,.12-1.52,3.42,.27,5.46,3.51,3.3,1.8,1.26-1.43-1.53-2.42,2.28,.18,2.16,1.71,3.36,1.04-.96-2.38,7.92,1.4,.75-2.24-5.46-3.51-6.03-3.55-5.4-4.27,1.89-2.15,4.44,1.89,2.16,1.71,3.36,1.04,2.85,.23-.9-3.14,4.62-.4,1.26-1.43-6.6-3.6-8.31-3.73-3.81-2.61-5.91-5.08-2.16-1.71,.63-.72,3.93,1.08s2.34-.58,1.77-.63-.96-2.38-.96-2.38l3.3,1.8,3.36,1.04-1.92-4.76,2.16,1.71,3.3,1.8,2.22,.94,1.32-2.2s2.28,.18,2.85,.23,1.77-.63,1.77-.63l-3.12-4.08-7.68-4.45-4.32-3.41-5.97-4.31-.84-3.9,.24-3.05,4.5,1.13s6.27,.5,5.7,.46-4.32-3.41-4.32-3.41l7.6-1.69-4.32-3.41-6.03-3.55-4.2-4.94-1.47-3.19,3.3,1.8,1.77-.63,1.26-1.43,2.28,.18,3.3,1.8-.39-2.33-3.81-2.61-3.3-1.8-2.16-1.71,2.91-.53-3.24-2.56-4.32-3.41-.39-2.33,2.34-.58,1.65,.9-.39-2.33,2.85,.23-.96-2.38,3.99,.32,2.34-.58-3.24-2.56-4.44-1.89-2.16-1.71,2.4-1.34-3.18-3.32-3.06-4.85-.33-3.09,2.73,1.75,1.77-.63,1.14,.09,2.91-.53-3.24-2.56-2.73-1.75-2.61-3.28,1.26-1.43,1.71,.14,2.91-.53-2.67-2.51-2.67-2.51,1.77-.63,2.34-.58-2.16-1.71-2.16-1.71-1.53-2.42,1.2-.67-1.53-2.42,1.77-.63,2.28,.18-1.59-1.66-2.16-1.71,.69-1.48,.63-.72-2.1-2.47,1.2-.67-.96-2.38-.33-3.09-.08-6.14Z"/><path class="cls-1" d="M1875.42,636l-1.04,7.2-.52,4-1.04,2.4h1.04l-.52,2.4-1.56,1.6-1.56,1.6-1.04,.8,.52,.8h3.12l-.52,1.6-1.04,.8-1.04,1.6-1.56,.8-1.56,.8-1.04,.8,1.04,.8,1.56,.8h3.12l-.52,1.6-1.04,.8-1.56,1.6-1.56,.8-1.04,.8-1.04,.8,1.56,.8h3.12l-.52,1.6-2.08,.8-2.6,2.4-2.6,1.6-.52,1.6h2.6l2.08,.8,3.12-.8-1.04,3.2-2.08,1.6-3.12,2.4-2.6,2.4h2.6l.52,1.6,2.08,.8,3.12-.8-.52,1.6-2.08,2.4-3.12,4-4.16,3.2-2.08,2.4h2.6l1.04,.8,1.56-.8,1.56-.8-1.04,2.4-3.12,1.6-2.6,.8-2.08,.8-1.04,.8,2.6,.8,1.56,.8-2.08,1.6,2.6,.8h2.6l3.12-2.4,1.04,1.6-3.12,2.4-.52,.8h3.12l1.04,.8-3.64,4-2.6,2.4-2.08,1.6,4.16,.8-1.04,2.4-2.6,2.4-4.16,1.6-4.68,3.2-4.68,4,1.04,1.6,5.72-2.4-2.6,3.2,3.12-1.6,7.8-1.6-2.6,4-3.64,3.2,4.68,.8,4.16-2.4,.52,.8-3.64,5.6-4.16,5.6-6.24,4-1.56,1.6,2.6,.8-.52,1.6-10.4,4.8,2.08,.8-1.56,4,7.28-2.4,.52,2.4,3.12-3.2,4.68,.8-3.64,4-4.68,4.8-6.24,4-4.16,3.2-4.16,2.4-1.04,.8,3.64,.8,1.04,2.4,4.68-2.4,1.04,.8-2.08,2.4-4.16,3.2h3.12l-1.56,3.2,4.16-.8,5.2-3.2-1.04,3.2,3.64-1.6h1.56l-1.04,3.2h2.6l5.72-6.4,1.04,1.6-.52,2.4-6.76,7.2h1.56l4.16-1.6,.52,1.6h2.6l2.6-1.6h2.08l-.52,2.4-.52,2.4,1.56,.8,4.68-4.8,1.56-1.6-.52,4,1.04,1.6,1.56-3.2v6.4h4.16v-5.6l2.6,.8,.52-3.2,3.12,2.4,3.12,3.2,1.04-2.4-.52-2.4,2.6,1.6,2.08,2.4h1.56l-1.56-3.2,1.56-1.6-3.12-4.8v-1.6h3.12l5.2,3.2,3.12,1.6,1.04-1.6-1.56-2.4h2.08l2.08,1.6,3.12,.8-1.04-2.4,7.28,.8,.52-2.4-5.2-3.2-5.72-3.2-5.2-4,1.56-2.4,4.16,1.6,2.08,1.6,3.12,.8h2.6l-1.04-3.2,4.16-.8,1.04-1.6-6.24-3.2-7.8-3.2-3.64-2.4-5.72-4.8-2.08-1.6,.52-.8,3.64,.8s2.08-.8,1.56-.8-1.04-2.4-1.04-2.4l3.12,1.6,3.12,.8-2.08-4.8,2.08,1.6,3.12,1.6,2.08,.8,1.04-2.4s2.08,0,2.6,0,1.56-.8,1.56-.8l-3.12-4-7.28-4-4.16-3.2-5.72-4-1.04-4v-3.2l4.16,.8s5.72,0,5.2,0-4.16-3.2-4.16-3.2l6.76-2.4-4.16-3.2-5.72-3.2-4.16-4.8-1.56-3.2,3.12,1.6,1.56-.8,1.04-1.6h2.08l3.12,1.6-.52-2.4-3.64-2.4-3.12-1.6-2.08-1.6,2.6-.8-3.12-2.4-4.16-3.2-.52-2.4,2.08-.8,1.56,.8-.52-2.4h2.6l-1.04-2.4h3.64l2.08-.8-3.12-2.4-4.16-1.6-2.08-1.6,2.08-1.6-3.12-3.2-3.12-4.8-.52-3.2,2.6,1.6,1.56-.8h1.04l2.6-.8-3.12-2.4-2.6-1.6-2.6-3.2,1.04-1.6h1.56l2.6-.8-2.6-2.4-2.6-2.4,1.56-.8,2.08-.8-2.08-1.6-2.08-1.6-1.56-2.4,1.04-.8-1.56-2.4,1.56-.8h2.08l-1.56-1.6-2.08-1.6,.52-1.6,.52-.8-2.08-2.4,1.04-.8-1.04-2.4-.52-3.2-.52-6.4Z"/><path class="cls-1" d="M1727.92,604l-1.53,9.04-.77,5.02-1.53,3.01h1.53l-.77,3.01-2.3,2.01-2.3,2.01-1.53,1,.77,1h4.6l-.77,2.01-1.53,1-1.53,2.01-2.3,1-2.3,1-1.53,1,1.53,1,2.3,1h4.6l-.77,2.01-1.53,1-2.3,2.01-2.3,1-1.53,1-1.53,1,2.3,1h4.6l-.77,2.01-3.07,1-3.83,3.01-3.83,2.01-.77,2.01h3.83l3.07,1,4.6-1-1.53,4.02-3.07,2.01-4.6,3.01-3.83,3.01h3.83l.77,2.01,3.07,1,4.6-1-.77,2.01-3.07,3.01-4.6,5.02-6.13,4.02-3.07,3.01h3.83l1.53,1,2.3-1,2.3-1-1.53,3.01-4.6,2.01-3.83,1-3.07,1-1.53,1,3.83,1,2.3,1-3.07,2.01,3.83,1h3.83l4.6-3.01,1.53,2.01-4.6,3.01-.77,1h4.6l1.53,1-5.37,5.02-3.83,3.01-3.07,2.01,6.13,1-1.53,3.01-3.83,3.01-6.13,2.01-6.9,4.02-6.9,5.02,1.53,2.01,8.43-3.01-3.83,4.02,4.6-2.01,11.5-2.01-3.83,5.02-5.37,4.02,6.9,1,6.13-3.01,.77,1-5.37,7.03-6.13,7.03-9.2,5.02-2.3,2.01,3.83,1-.77,2.01-15.33,6.03,3.07,1-2.3,5.02,10.73-3.01,.77,3.01,4.6-4.02,6.9,1-5.37,5.02-6.9,6.03-9.2,5.02-6.13,4.02-6.13,3.01-1.53,1,5.37,1,1.53,3.01,6.9-3.01,1.53,1-3.07,3.01-6.13,4.02h4.6l-2.3,4.02,6.13-1,7.66-4.02-1.53,4.02,5.37-2.01h2.3l-1.53,4.02h3.83l8.43-8.04,1.53,2.01-.77,3.01-9.96,9.04h2.3l6.13-2.01,.77,2.01h3.83l3.83-2.01h3.07l-.77,3.01-.77,3.01,2.3,1,6.9-6.03,2.3-2.01-.77,5.02,1.53,2.01,2.3-4.02v8.04h6.13v-7.03l3.83,1,.77-4.02,4.6,3.01,4.6,4.02,1.53-3.01-.77-3.01,3.83,2.01,3.07,3.01h2.3l-2.3-4.02,2.3-2.01-4.6-6.03v-2.01h4.6l7.66,4.02,4.6,2.01,1.53-2.01-2.3-3.01h3.07l3.07,2.01,4.6,1-1.53-3.01,10.73,1,.77-3.01-7.66-4.02-8.43-4.02-7.66-5.02,2.3-3.01,6.13,2.01,3.07,2.01,4.6,1h3.83l-1.53-4.02,6.13-1,1.53-2.01-9.2-4.02-11.5-4.02-5.37-3.01-8.43-6.03-3.07-2.01,.77-1,5.37,1s3.07-1,2.3-1-1.53-3.01-1.53-3.01l4.6,2.01,4.6,1-3.07-6.03,3.07,2.01,4.6,2.01,3.07,1,1.53-3.01s3.07,0,3.83,0,2.3-1,2.3-1l-4.6-5.02-10.73-5.02-6.13-4.02-8.43-5.02-1.53-5.02v-4.02l6.13,1s8.43,0,7.66,0-6.13-4.02-6.13-4.02l9.96-3.01-6.13-4.02-8.43-4.02-6.13-6.03-2.3-4.02,4.6,2.01,2.3-1,1.53-2.01h3.07l4.6,2.01-.77-3.01-5.37-3.01-4.6-2.01-3.07-2.01,3.83-1-4.6-3.01-6.13-4.02-.77-3.01,3.07-1,2.3,1-.77-3.01h3.83l-1.53-3.01h5.37l3.07-1-4.6-3.01-6.13-2.01-3.07-2.01,3.07-2.01-4.6-4.02-4.6-6.03-.77-4.02,3.83,2.01,2.3-1h1.53l3.83-1-4.6-3.01-3.83-2.01-3.83-4.02,1.53-2.01h2.3l3.83-1-3.83-3.01-3.83-3.01,2.3-1,3.07-1-3.07-2.01-3.07-2.01-2.3-3.01,1.53-1-2.3-3.01,2.3-1h3.07l-2.3-2.01-3.07-2.01,.77-2.01,.77-1-3.07-3.01,1.53-1-1.53-3.01-.77-4.02-.77-8.04Z"/><path class="cls-1" d="M1976.06,595.97l-1.9,7.69-.99,4.28-1.5,2.5,1.3,.1-.85,2.55-2.08,1.58-2.08,1.58-1.37,.77,.58,.92,3.9,.3-.78,1.68-1.37,.77-1.43,1.63-2.01,.71-2.01,.71-1.37,.77,1.23,.97,1.88,1.02,2.6,.2,1.3,.1-.78,1.68-1.37,.77-2.08,1.58-2.01,.71-1.37,.77-1.37,.77,1.88,1.02,3.25,.25,.65,.05-.78,1.68-2.66,.66-3.45,2.35-3.38,1.48-.78,1.68,3.25,.25,2.53,1.07,3.96-.56-1.57,3.36-2.73,1.53-4.1,2.3-3.45,2.35,3.25,.25,.51,1.78,2.53,1.07,3.96-.56-.78,1.68-2.8,2.4-4.23,4.03-5.46,3.06-2.8,2.4,3.25,.25,1.23,.97,2.01-.71,2.01-.71-1.5,2.5-4.03,1.43-3.31,.61-2.66,.66-1.37,.77,3.18,1.12,1.88,1.02-2.73,1.53,3.18,1.12,3.25,.25,4.1-2.3,1.16,1.83-4.1,2.3-.72,.82,3.9,.3,1.23,.97-4.88,3.98-3.45,2.35-2.73,1.53,5.13,1.27-1.5,2.5-3.45,2.35-5.33,1.33-6.11,3.01-6.18,3.88,1.16,1.83,7.34-2.04-3.51,3.21,4.03-1.43,9.87-.98-3.58,4.08-4.81,3.11,5.78,1.32,5.4-2.19,.58,.92-5.02,5.71-5.66,5.66-8.13,3.72-2.08,1.58,3.18,1.12-.78,1.68-13.39,4.19,2.53,1.07-2.28,4.18,9.29-1.89,.45,2.65,4.16-3.16,5.78,1.32-4.88,3.98-6.25,4.74-8.13,3.72-5.46,3.06-5.4,2.19-1.37,.77,4.48,1.22,1.1,2.7,6.04-2.14,1.23,.97-2.8,2.4-5.46,3.06,3.9,.3-2.22,3.31,5.26-.46,6.76-2.96-1.57,3.36,4.68-1.38,1.95,.15-1.57,3.36,3.25,.25,7.68-6.37,1.16,1.83-.85,2.55-9.04,7.14,1.95,.15,5.33-1.33,.51,1.78,3.25,.25,3.38-1.48,2.6,.2-.85,2.55-.85,2.55,1.88,1.02,6.25-4.74,2.08-1.58-.99,4.28,1.16,1.83,2.22-3.31-.54,6.93,5.19,.4,.47-6.06,3.18,1.12,.92-3.41,3.69,2.9,3.63,3.77,1.5-2.5-.45-2.65,3.11,1.98,2.4,2.8,1.95,.15-1.68-3.61,2.08-1.58-3.49-5.5,.13-1.73,3.9,.3,6.22,3.97,3.76,2.03,1.43-1.63-1.75-2.75,2.6,.2,2.46,1.93,3.83,1.17-1.1-2.7,9.02,1.57,.85-2.55-6.22-3.97-6.87-4.02-6.16-4.83,2.15-2.45,5.06,2.13,2.46,1.93,3.83,1.17,3.25,.25-1.03-3.56,5.26-.46,1.43-1.63-7.52-4.07-9.47-4.22-4.34-2.95-6.74-5.75-2.46-1.93,.72-.82,4.48,1.22s2.66-.66,2.01-.71-1.1-2.7-1.1-2.7l3.76,2.03,3.83,1.17-2.19-5.4,2.46,1.93,3.76,2.03,2.53,1.07,1.5-2.5s2.6,.2,3.25,.25,2.01-.71,2.01-.71l-3.56-4.63-8.75-5.03-4.93-3.87-6.81-4.88-.96-4.43,.27-3.46,5.13,1.27s7.14,.55,6.49,.5-4.93-3.87-4.93-3.87l8.64-1.94-4.93-3.87-6.87-4.02-4.79-5.6-1.68-3.61,3.76,2.03,2.01-.71,1.43-1.63,2.6,.2,3.76,2.03-.45-2.65-4.34-2.95-3.76-2.03-2.46-1.93,3.31-.61-3.69-2.9-4.93-3.87-.45-2.65,2.66-.66,1.88,1.02-.45-2.65,3.25,.25-1.1-2.7,4.54,.35,2.66-.66-3.69-2.9-5.06-2.13-2.46-1.93,2.73-1.53-3.63-3.77-3.49-5.5-.38-3.51,3.11,1.98,2.01-.71,1.3,.1,3.31-.61-3.69-2.9-3.11-1.98-2.98-3.72,1.43-1.63,1.95,.15,3.31-.61-3.04-2.85-3.04-2.85,2.01-.71,2.66-.66-2.46-1.93-2.46-1.93-1.75-2.75,1.37-.77-1.75-2.75,2.01-.71,2.6,.2-1.81-1.88-2.46-1.93,.78-1.68,.72-.82-2.4-2.8,1.37-.77-1.1-2.7-.38-3.51-.11-6.98Z"/><path class="cls-1" d="M2122.82,580.14l-1.48,6.51-.75,3.62-1.41,2.15,1.38,.02-.72,2.16-2.09,1.42-2.09,1.42-1.39,.7,.68,.74,4.14,.06-.71,1.44-1.39,.7-1.4,1.43-2.08,.69-2.08,.69-1.39,.7,1.37,.75,2.06,.76,2.76,.04,1.38,.02-.71,1.44-1.39,.7-2.09,1.42-2.08,.69-1.39,.7-1.39,.7,2.06,.76,3.45,.05h.69s-.71,1.45-.71,1.45l-2.77,.68-3.48,2.12-3.47,1.4-.71,1.44,3.45,.05,2.75,.77,4.15-.66-1.42,2.88-2.78,1.41-4.17,2.11-3.48,2.12,3.45,.05,.67,1.46,2.75,.77,4.15-.66-.71,1.44-2.79,2.13-4.19,3.56-5.56,2.81-2.79,2.13,3.45,.05,1.37,.75,2.08-.69,2.08-.69-1.41,2.15-4.16,1.39-3.46,.67-2.77,.68-1.39,.7,3.44,.78,2.06,.76-2.78,1.41,3.44,.78,3.45,.05,4.17-2.11,1.36,1.47-4.17,2.11-.7,.71,4.14,.06,1.37,.75-4.88,3.55-3.48,2.12-2.78,1.41,5.51,.81-1.41,2.15-3.48,2.12-5.54,1.36-6.25,2.8-6.26,3.53,1.36,1.47,7.62-2.06-3.49,2.85,4.16-1.39,10.37-1.29-3.51,3.57-4.87,2.83,6.2,.82,5.55-2.09,.68,.74-4.91,5-5.6,4.99-8.33,3.5-2.09,1.42,3.44,.78-.71,1.44-13.86,4.14,2.75,.77-2.13,3.59,9.69-2.02,.66,2.19,4.18-2.84,6.2,.82-4.88,3.55-6.28,4.25-8.33,3.5-5.56,2.81-5.55,2.09-1.39,.7,4.82,.8,1.35,2.2,6.24-2.08,1.37,.75-2.79,2.13-5.56,2.81,4.14,.06-2.11,2.87,5.53-.64,6.94-2.79-1.42,2.88,4.85-1.37,2.07,.03-1.42,2.88,3.45,.05,7.68-5.68,1.36,1.47-.72,2.16-9.07,6.39,2.07,.03,5.54-1.36,.67,1.46,3.45,.05,3.47-1.4,2.76,.04-.72,2.16-.72,2.16,2.06,.76,6.28-4.25,2.09-1.42-.75,3.62,1.36,1.47,2.11-2.87-.09,5.8,5.52,.09,.08-5.08,3.44,.78,.74-2.89,4.1,2.24,4.09,2.97,1.41-2.15-.66-2.19,3.43,1.5,2.72,2.22,2.07,.03-2.02-2.93,2.09-1.42-4.07-4.42,.02-1.45,4.14,.06,6.85,3.01,4.12,1.52,1.4-1.43-2.03-2.21,2.76,.04,2.74,1.49,4.13,.79-1.35-2.2,9.64,.88,.72-2.16-6.85-3.01-7.54-3.02-6.84-3.73,2.1-2.14,5.49,1.54,2.74,1.49,4.13,.79,3.45,.05-1.33-2.92,5.53-.64,1.4-1.43-8.23-3.03-10.3-3.06-4.79-2.25-7.52-4.47-2.74-1.49,.7-.71,4.82,.8s2.77-.68,2.08-.69-1.35-2.2-1.35-2.2l4.12,1.52,4.13,.79-2.69-4.39,2.74,1.49,4.12,1.52,2.75,.77,1.41-2.15s2.76,.04,3.45,.05,2.08-.69,2.08-.69l-4.08-3.69-9.6-3.78-5.47-2.99-7.53-3.75-1.32-3.65,.05-2.9,5.51,.81s7.59,.12,6.9,.11-5.47-2.99-5.47-2.99l9-2.04-5.47-2.99-7.54-3.02-5.45-4.44-2.02-2.93,4.12,1.52,2.08-.69,1.4-1.43,2.76,.04,4.12,1.52-.66-2.19-4.79-2.25-4.12-1.52-2.74-1.49,3.46-.67-4.1-2.24-5.47-2.99-.66-2.19,2.77-.68,2.06,.76-.66-2.19,3.45,.05-1.35-2.2,4.83,.08,2.77-.68-4.1-2.24-5.49-1.54-2.74-1.49,2.78-1.41-4.09-2.97-4.07-4.42-.64-2.91,3.43,1.5,2.08-.69,1.38,.02,3.46-.67-4.1-2.24-3.43-1.5-3.4-2.96,1.4-1.43,2.07,.03,3.46-.67-3.41-2.23-3.41-2.23,2.08-.69,2.77-.68-2.74-1.49-2.74-1.49-2.03-2.21,1.39-.7-2.03-2.21,2.08-.69,2.76,.04-2.05-1.48-2.74-1.49,.71-1.44,.7-.71-2.72-2.22,1.39-.7-1.35-2.2-.64-2.91-.6-5.81Z"/><path class="cls-1" d="M2448.31,577.06l-1.01,6.27-.49,3.48-1.23,2.14,1.34-.07-.56,2.1-1.94,1.49-1.94,1.49-1.31,.76,.71,.65,4.03-.22-.6,1.41-1.31,.76-1.27,1.45-1.98,.8-1.98,.8-1.31,.76,1.38,.62,2.05,.58,2.69-.14,1.34-.07-.6,1.41-1.31,.76-1.94,1.49-1.98,.8-1.31,.76-1.31,.76,2.05,.58,3.36-.18,.67-.04-.6,1.41-2.65,.83-3.25,2.25-3.29,1.56-.6,1.41,3.36-.18,2.72,.55,4-.9-1.2,2.83-2.61,1.52-3.92,2.28-3.25,2.25,3.36-.18,.75,1.34,2.72,.55,4-.9-.6,1.41-2.58,2.21-3.85,3.66-5.23,3.04-2.58,2.21,3.36-.18,1.38,.62,1.98-.8,1.98-.8-1.23,2.14-3.96,1.59-3.32,.87-2.65,.83-1.31,.76,3.4,.51,2.05,.58-2.61,1.52,3.4,.51,3.36-.18,3.92-2.28,1.42,1.31-3.92,2.28-.64,.72,4.03-.22,1.38,.62-4.52,3.69-3.25,2.25-2.61,1.52,5.41,.4-1.23,2.14-3.25,2.25-5.3,1.66-5.9,3.08-5.86,3.77,1.42,1.31,7.28-2.46-3.21,2.93,3.96-1.59,10.01-1.92-3.18,3.62-4.56,3.01,6.09,.37,5.27-2.35,.71,.65-4.45,5.07-5.12,5.11-7.88,3.87-1.94,1.49,3.4,.51-.6,1.41-13.22,4.85,2.72,.55-1.83,3.55,9.3-2.57,.78,2.03,3.89-2.97,6.09,.37-4.52,3.69-5.83,4.46-7.88,3.87-5.23,3.04-5.27,2.35-1.31,.76,4.74,.44,1.45,1.99,5.94-2.39,1.38,.62-2.58,2.21-5.23,3.04,4.03-.22-1.87,2.86,5.34-.98,6.57-3.11-1.2,2.83,4.63-1.63,2.02-.11-1.2,2.83,3.36-.18,7.1-5.9,1.42,1.31-.56,2.1-8.41,6.67,2.02-.11,5.3-1.66,.75,1.34,3.36-.18,3.29-1.56,2.69-.14-.56,2.1-.56,2.1,2.05,.58,5.83-4.46,1.94-1.49-.49,3.48,1.42,1.31,1.87-2.86,.29,5.51,5.38-.29-.26-4.82,3.4,.51,.52-2.79,4.14,1.85,4.18,2.54,1.23-2.14-.78-2.03,3.43,1.2,2.8,1.92,2.02-.11-2.16-2.65,1.94-1.49-4.25-3.92-.07-1.38,4.03-.22,6.87,2.4,4.11,1.16,1.27-1.45-2.13-1.96,2.69-.14,2.76,1.23,4.07,.47-1.45-1.99,9.45,.19,.56-2.1-6.87-2.4-7.54-2.36-6.9-3.08,1.91-2.17,5.45,1.09,2.76,1.23,4.07,.47,3.36-.18-1.49-2.68,5.34-.98,1.27-1.45-8.21-2.32-10.23-2.22-4.81-1.81-7.61-3.74-2.76-1.23,.64-.72,4.74,.44s2.65-.83,1.98-.8-1.45-1.99-1.45-1.99l4.11,1.16,4.07,.47-2.91-3.99,2.76,1.23,4.11,1.16,2.72,.55,1.23-2.14s2.69-.14,3.36-.18,1.98-.8,1.98-.8l-4.22-3.23-9.59-2.94-5.52-2.47-7.58-3.05-1.53-3.37-.15-2.75,5.41,.4s7.39-.39,6.72-.36-5.52-2.47-5.52-2.47l8.63-2.53-5.52-2.47-7.54-2.36-5.6-3.85-2.16-2.65,4.11,1.16,1.98-.8,1.27-1.45,2.69-.14,4.11,1.16-.78-2.03-4.81-1.81-4.11-1.16-2.76-1.23,3.32-.87-4.14-1.85-5.52-2.47-.78-2.03,2.65-.83,2.05,.58-.78-2.03,3.36-.18-1.45-1.99,4.7-.25,2.65-.83-4.14-1.85-5.45-1.09-2.76-1.23,2.61-1.52-4.18-2.54-4.25-3.92-.82-2.72,3.43,1.2,1.98-.8,1.34-.07,3.32-.87-4.14-1.85-3.43-1.2-3.51-2.58,1.27-1.45,2.02-.11,3.32-.87-3.47-1.89-3.47-1.89,1.98-.8,2.65-.83-2.76-1.23-2.76-1.23-2.13-1.96,1.31-.76-2.13-1.96,1.98-.8,2.69-.14-2.09-1.27-2.76-1.23,.6-1.41,.64-.72-2.8-1.92,1.31-.76-1.45-1.99-.82-2.72-.97-5.47Z"/><path class="cls-1" d="M2262.78,563.05l-1.76,7.2-.89,4-1.61,2.37,1.53,.05-.84,2.39-2.35,1.54-2.35,1.54-1.56,.76,.74,.83,4.59,.15-.82,1.59-1.56,.76-1.58,1.56-2.32,.73-2.32,.73-1.56,.76,1.5,.85,2.27,.88,3.06,.1,1.53,.05-.82,1.59-1.56,.76-2.35,1.54-2.32,.73-1.56,.76-1.56,.76,2.27,.88,3.83,.12,.77,.02-.82,1.59-3.09,.71-3.9,2.29-3.88,1.49-.82,1.59,3.83,.12,3.04,.9,4.62-.66-1.63,3.17-3.11,1.51-4.67,2.27-3.9,2.29,3.83,.12,.71,1.64,3.04,.9,4.62-.66-.82,1.59-3.14,2.32-4.72,3.88-6.22,3.03-3.14,2.32,3.83,.12,1.5,.85,2.32-.73,2.32-.73-1.61,2.37-4.64,1.46-3.85,.68-3.09,.71-1.56,.76,3.8,.93,2.27,.88-3.11,1.51,3.8,.93,3.83,.12,4.67-2.27,1.48,1.66-4.67,2.27-.79,.78,4.59,.15,1.5,.85-5.49,3.86-3.9,2.29-3.11,1.51,6.1,1-1.61,2.37-3.9,2.29-6.17,1.42-6.99,3-7.02,3.81,1.48,1.66,8.49-2.15-3.93,3.1,4.64-1.46,11.53-1.25-3.95,3.9-5.46,3.05,6.86,1.02,6.2-2.22,.74,.83-5.54,5.47-6.3,5.44-9.31,3.73-2.35,1.54,3.8,.93-.82,1.59-15.46,4.34,3.04,.9-2.42,3.95,10.79-2.07,.69,2.44,4.69-3.08,6.86,1.02-5.49,3.86-7.04,4.61-9.31,3.73-6.22,3.03-6.2,2.22-1.56,.76,5.33,.98,1.45,2.46,6.96-2.2,1.5,.85-3.14,2.32-6.22,3.03,4.59,.15-2.4,3.15,6.15-.61,7.76-2.98-1.63,3.17,5.41-1.44,2.3,.07-1.63,3.17,3.83,.12,8.62-6.17,1.48,1.66-.84,2.39-10.18,6.93,2.3,.07,6.17-1.42,.71,1.64,3.83,.12,3.88-1.49,3.06,.1-.84,2.39-.84,2.39,2.27,.88,7.04-4.61,2.35-1.54-.89,4,1.48,1.66,2.4-3.15-.21,6.44,6.12,.2,.18-5.64,3.8,.93,.87-3.2,4.51,2.56,4.49,3.37,1.61-2.37-.69-2.44,3.77,1.73,2.98,2.51,2.3,.07-2.19-3.29,2.35-1.54-4.44-4.98,.05-1.61,4.59,.15,7.55,3.47,4.54,1.76,1.58-1.56-2.22-2.49,3.06,.1,3.01,1.71,4.57,.95-1.45-2.46,10.69,1.15,.84-2.39-7.55-3.47-8.32-3.49-7.52-4.27,2.37-2.34,6.07,1.81,3.01,1.71,4.57,.95,3.83,.12-1.43-3.27,6.15-.61,1.58-1.56-9.08-3.51-11.38-3.59-5.28-2.59-8.26-5.1-3.01-1.71,.79-.78,5.33,.98s3.09-.71,2.32-.73-1.45-2.46-1.45-2.46l4.54,1.76,4.57,.95-2.91-4.93,3.01,1.71,4.54,1.76,3.04,.9,1.61-2.37s3.06,.1,3.83,.12,2.32-.73,2.32-.73l-4.46-4.17-10.59-4.37-6.02-3.42-8.29-4.3-1.4-4.08,.1-3.22,6.1,1s8.42,.27,7.65,.24-6.02-3.42-6.02-3.42l10.03-2.1-6.02-3.42-8.32-3.49-5.97-5.03-2.19-3.29,4.54,1.76,2.32-.73,1.58-1.56,3.06,.1,4.54,1.76-.69-2.44-5.28-2.59-4.54-1.76-3.01-1.71,3.85-.68-4.51-2.56-6.02-3.42-.69-2.44,3.09-.71,2.27,.88-.69-2.44,3.83,.12-1.45-2.46,5.36,.17,3.09-.71-4.51-2.56-6.07-1.81-3.01-1.71,3.11-1.51-4.49-3.37-4.44-4.98-.66-3.25,3.77,1.73,2.32-.73,1.53,.05,3.85-.68-4.51-2.56-3.77-1.73-3.72-3.34,1.58-1.56,2.3,.07,3.85-.68-3.75-2.54-3.75-2.54,2.32-.73,3.09-.71-3.01-1.71-3.01-1.71-2.22-2.49,1.56-.76-2.22-2.49,2.32-.73,3.06,.1-2.24-1.68-3.01-1.71,.82-1.59,.79-.78-2.98-2.51,1.56-.76-1.45-2.46-.66-3.25-.56-6.47Z"/></svg>