<?xml version="1.0" encoding="UTF-8"?><svg id="Black" xmlns="http://www.w3.org/2000/svg" viewBox="0 0 2680 1080"><defs><style>.cls-1{fill:#040f17;}</style></defs><path class="cls-1" d="M192.4,454l-2,7.96-1,4.42-2,2.65h2l-1,2.65-3,1.77-3,1.77-2,.88,1,.88h6l-1,1.77-2,.88-2,1.77-3,.88-3,.88-2,.88,2,.88,3,.88h6l-1,1.77-2,.88-3,1.77-3,.88-2,.88-2,.88,3,.88h6l-1,1.77-4,.88-5,2.65-5,1.77-1,1.77h5l4,.88,6-.88-2,3.54-4,1.77-6,2.65-5,2.65h5l1,1.77,4,.88,6-.88-1,1.77-4,2.65-6,4.42-8,3.54-4,2.65h5l2,.88,3-.88,3-.88-2,2.65-6,1.77-5,.88-4,.88-2,.88,5,.88,3,.88-4,1.77,5,.88h5l6-2.65,2,1.77-6,2.65-1,.88h6l2,.88-7,4.42-5,2.65-4,1.77,8,.88-2,2.65-5,2.65-8,1.77-9,3.54-9,4.42,2,1.77,11-2.65-5,3.54,6-1.77,15-1.77-5,4.42-7,3.54,9,.88,8-2.65,1,.88-7,6.19-8,6.19-12,4.42-3,1.77,5,.88-1,1.77-20,5.31,4,.88-3,4.42,14-2.65,1,2.65,6-3.54,9,.88-7,4.42-9,5.31-12,4.42-8,3.54-8,2.65-2,.88,7,.88,2,2.65,9-2.65,2,.88-4,2.65-8,3.54h6l-3,3.54,8-.88,10-3.54-2,3.54,7-1.77h3l-2,3.54h5l11-7.08,2,1.77-1,2.65-13,7.96h3l8-1.77,1,1.77h5l5-1.77h4l-1,2.65-1,2.65,3,.88,9-5.31,3-1.77-1,4.42,2,1.77,3-3.54v7.08h8v-6.19l5,.88,1-3.54,6,2.65,6,3.54,2-2.65-1-2.65,5,1.77,4,2.65h3l-3-3.54,3-1.77-6-5.31v-1.77h6l10,3.54,6,1.77,2-1.77-3-2.65h4l4,1.77,6,.88-2-2.65,14,.88,1-2.65-10-3.54-11-3.54-10-4.42,3-2.65,8,1.77,4,1.77,6,.88h5l-2-3.54,8-.88,2-1.77-12-3.54-15-3.54-7-2.65-11-5.31-4-1.77,1-.88,7,.88s4-.88,3-.88-2-2.65-2-2.65l6,1.77,6,.88-4-5.31,4,1.77,6,1.77,4,.88,2-2.65s4,0,5,0,3-.88,3-.88l-6-4.42-14-4.42-8-3.54-11-4.42-2-4.42v-3.54l8,.88s11,0,10,0-8-3.54-8-3.54l13-2.65-8-3.54-11-3.54-8-5.31-3-3.54,6,1.77,3-.88,2-1.77h4l6,1.77-1-2.65-7-2.65-6-1.77-4-1.77,5-.88-6-2.65-8-3.54-1-2.65,4-.88,3,.88-1-2.65h5l-2-2.65h7l4-.88-6-2.65-8-1.77-4-1.77,4-1.77-6-3.54-6-5.31-1-3.54,5,1.77,3-.88h2l5-.88-6-2.65-5-1.77-5-3.54,2-1.77h3l5-.88-5-2.65-5-2.65,3-.88,4-.88-4-1.77-4-1.77-3-2.65,2-.88-3-2.65,3-.88h4l-3-1.77-4-1.77,1-1.77,1-.88-4-2.65,2-.88-2-2.65-1-3.54-1-7.08Z"/><path class="cls-1" d="M367.44,479.45l-2.61,9.31-1.32,5.18-2.38,3.05,2.27,.08-1.25,3.09-3.48,1.96-3.48,1.96-2.31,.96,1.1,1.08,6.81,.25-1.21,2.05-2.31,.96-2.34,2-3.44,.92-3.44,.92-2.31,.96,2.23,1.13,3.37,1.17,4.54,.16,2.27,.08-1.21,2.05-2.31,.96-3.48,1.96-3.44,.92-2.31,.96-2.31,.96,3.37,1.17,5.67,.2,1.13,.04-1.21,2.05-4.58,.88-5.79,2.92-5.75,1.88-1.21,2.05,5.67,.2,4.5,1.21,6.84-.8-2.42,4.09-4.61,1.92-6.92,2.88-5.79,2.92,5.67,.2,1.06,2.13,4.5,1.21,6.84-.8-1.21,2.05-4.65,2.97-6.99,4.97-9.23,3.84-4.65,2.97,5.67,.2,2.23,1.13,3.44-.92,3.44-.92-2.38,3.05-6.88,1.84-5.71,.84-4.58,.88-2.31,.96,5.63,1.25,3.37,1.17-4.61,1.92,5.63,1.25,5.67,.2,6.92-2.88,2.19,2.17-6.92,2.88-1.17,1,6.81,.25,2.23,1.13-8.13,4.93-5.79,2.92-4.61,1.92,9.04,1.37-2.38,3.05-5.79,2.92-9.15,1.76-10.36,3.8-10.4,4.85,2.19,2.17,12.59-2.68-5.82,3.97,6.88-1.84,17.09-1.47-5.86,5.01-8.09,3.89,10.17,1.41,9.19-2.8,1.1,1.08-8.2,7.02-9.34,6.97-13.8,4.72-3.48,1.96,5.63,1.25-1.21,2.05-22.91,5.44,4.5,1.21-3.59,5.09,15.99-2.56,1.02,3.17,6.96-3.93,10.17,1.41-8.13,4.93-10.44,5.89-13.8,4.72-9.23,3.84-9.19,2.8-2.31,.96,7.9,1.33,2.16,3.21,10.32-2.76,2.23,1.13-4.65,2.97-9.23,3.84,6.81,.25-3.55,4.05,9.11-.72,11.49-3.76-2.42,4.09,8.02-1.8,3.4,.12-2.42,4.09,5.67,.2,12.78-7.89,2.19,2.17-1.25,3.09-15.09,8.86,3.4,.12,9.15-1.76,1.06,2.13,5.67,.2,5.75-1.88,4.54,.16-1.25,3.09-1.25,3.09,3.37,1.17,10.44-5.89,3.48-1.96-1.32,5.18,2.19,2.17,3.55-4.05-.3,8.35,9.08,.33,.26-7.3,5.63,1.25,1.29-4.13,6.69,3.38,6.66,4.42,2.38-3.05-1.02-3.17,5.6,2.29,4.42,3.29,3.4,.12-3.25-4.3,3.48-1.96-6.58-6.51,.08-2.09,6.81,.25,11.19,4.58,6.73,2.33,2.34-2-3.29-3.25,4.54,.16,4.46,2.25,6.77,1.29-2.16-3.21,15.84,1.62,1.25-3.09-11.19-4.58-12.33-4.62-11.16-5.63,3.52-3.01,9,2.41,4.46,2.25,6.77,1.29,5.67,.2-2.12-4.25,9.11-.72,2.34-2-13.46-4.66-16.87-4.79-7.83-3.42-12.25-6.71-4.46-2.25,1.17-1,7.9,1.33s4.58-.88,3.44-.92-2.16-3.21-2.16-3.21l6.73,2.33,6.77,1.29-4.31-6.42,4.46,2.25,6.73,2.33,4.5,1.21,2.38-3.05s4.54,.16,5.67,.2,3.44-.92,3.44-.92l-6.62-5.46-15.69-5.79-8.92-4.5-12.29-5.67-2.08-5.3,.15-4.17,9.04,1.37s12.48,.45,11.34,.41-8.92-4.5-8.92-4.5l14.86-2.6-8.92-4.5-12.33-4.62-8.85-6.59-3.25-4.3,6.73,2.33,3.44-.92,2.34-2,4.54,.16,6.73,2.33-1.02-3.17-7.83-3.42-6.73-2.33-4.46-2.25,5.71-.84-6.69-3.38-8.92-4.5-1.02-3.17,4.58-.88,3.37,1.17-1.02-3.17,5.67,.2-2.16-3.21,7.94,.29,4.58-.88-6.69-3.38-9-2.41-4.46-2.25,4.61-1.92-6.66-4.42-6.58-6.51-.98-4.21,5.6,2.29,3.44-.92,2.27,.08,5.71-.84-6.69-3.38-5.6-2.29-5.52-4.38,2.34-2,3.4,.12,5.71-.84-5.56-3.33-5.56-3.33,3.44-.92,4.58-.88-4.46-2.25-4.46-2.25-3.29-3.25,2.31-.96-3.29-3.25,3.44-.92,4.54,.16-3.33-2.21-4.46-2.25,1.21-2.05,1.17-1-4.42-3.29,2.31-.96-2.16-3.21-.98-4.21-.83-8.39Z"/><path class="cls-1" d="M0,1080H2680v-379c-17.65,.5-38.32,1.89-69,6-44.15,5.92-78.45,15.04-166,42-72.39,22.3-103.71,37.39-176,54-16.43,3.78-56.02,59.8-144,74-142.12,22.94-191.72,15.42-218,16-72.26,1.61-125.13-42.42-182-51-63.86-9.63-82.42-16.82-150-26,0,0-73.7-10.01-154-13-83.28-3.1-126.28,3.69-330,26-219.84,24.07-247.01,24.61-291,16-63.41-12.42-111.82-34.08-201-74-102.07-45.68-116.72-64.69-215-102-40.53-15.39-94.35-33.54-160-48-17.91-3.95-40.85-9.01-70-13-67.73-9.27-103.49-11.12-154-6"/><path class="cls-1" d="M511.62,532.19l-2.46,11.54-1.25,6.41-2.19,3.8,2.06,.07-1.16,3.83-3.18,2.47-3.18,2.47-2.1,1.22,.99,1.32,6.18,.21-1.12,2.54-2.1,1.22-2.15,2.51-3.13,1.18-3.13,1.18-2.1,1.22,2.02,1.36,3.05,1.4,4.12,.14,2.06,.07-1.12,2.54-2.1,1.22-3.18,2.47-3.13,1.18-2.1,1.22-2.1,1.22,3.05,1.4,5.15,.18,1.03,.04-1.12,2.54-4.16,1.15-5.28,3.69-5.24,2.4-1.12,2.54,5.15,.18,4.08,1.43,6.22-1.08-2.24,5.09-4.21,2.44-6.31,3.66-5.28,3.69,5.15,.18,.94,2.61,4.08,1.43,6.22-1.08-1.12,2.54-4.25,3.73-6.4,6.24-8.41,4.88-4.25,3.73,5.15,.18,2.02,1.36,3.13-1.18,3.13-1.18-2.19,3.8-6.27,2.37-5.19,1.11-4.16,1.15-2.1,1.22,5.11,1.47,3.05,1.4-4.21,2.44,5.11,1.47,5.15,.18,6.31-3.66,1.97,2.65-6.31,3.66-1.07,1.25,6.18,.21,2.02,1.36-7.43,6.2-5.28,3.69-4.21,2.44,8.19,1.57-2.19,3.8-5.28,3.69-8.33,2.3-9.44,4.84-9.49,6.13,1.97,2.65,11.46-3.48-5.33,4.98,6.27-2.37,15.54-2.05-5.37,6.27-7.38,4.91,9.22,1.61,8.37-3.59,.99,1.32-7.52,8.78-8.55,8.75-12.58,6.03-3.18,2.47,5.11,1.47-1.12,2.54-20.86,7.04,4.08,1.43-3.31,6.34,14.55-3.38,.9,3.9,6.35-4.95,9.22,1.61-7.43,6.2-9.53,7.42-12.58,6.03-8.41,4.88-8.37,3.59-2.1,1.22,7.16,1.54,1.93,3.94,9.4-3.55,2.02,1.36-4.25,3.73-8.41,4.88,6.18,.21-3.27,5.05,8.28-1.01,10.47-4.81-2.24,5.09,7.3-2.33,3.09,.11-2.24,5.09,5.15,.18,11.68-9.93,1.97,2.65-1.16,3.83-13.78,11.15,3.09,.11,8.33-2.3,.94,2.61,5.15,.18,5.24-2.4,4.12,.14-1.16,3.83-1.16,3.83,3.05,1.4,9.53-7.42,3.18-2.47-1.25,6.41,1.97,2.65,3.27-5.05-.35,10.32,8.24,.28,.31-9.03,5.11,1.47,1.21-5.12,6.05,4.08,6,5.37,2.19-3.8-.9-3.9,5.06,2.76,3.99,4.01,3.09,.11-2.91-5.26,3.18-2.47-5.91-7.95,.09-2.58,6.18,.21,10.12,5.51,6.09,2.79,2.15-2.51-2.96-3.97,4.12,.14,4.03,2.72,6.13,1.5-1.93-3.94,14.37,1.78,1.16-3.83-10.12-5.51-11.15-5.55-10.08-6.8,3.22-3.76,8.15,2.86,4.03,2.72,6.13,1.5,5.15,.18-1.88-5.23,8.28-1.01,2.15-2.51-12.18-5.58-15.27-5.69-7.08-4.12-11.06-8.12-4.03-2.72,1.07-1.25,7.16,1.54s4.16-1.15,3.13-1.18-1.93-3.94-1.93-3.94l6.09,2.79,6.13,1.5-3.86-7.88,4.03,2.72,6.09,2.79,4.08,1.43,2.19-3.8s4.12,.14,5.15,.18,3.13-1.18,3.13-1.18l-5.96-6.66-14.2-6.94-8.06-5.44-11.11-6.84-1.84-6.52,.18-5.16,8.19,1.57s11.33,.39,10.3,.35-8.06-5.44-8.06-5.44l13.52-3.41-8.06-5.44-11.15-5.55-7.97-8.02-2.91-5.26,6.09,2.79,3.13-1.18,2.15-2.51,4.12,.14,6.09,2.79-.9-3.9-7.08-4.12-6.09-2.79-4.03-2.72,5.19-1.11-6.05-4.08-8.06-5.44-.9-3.9,4.16-1.15,3.05,1.4-.9-3.9,5.15,.18-1.93-3.94,7.21,.25,4.16-1.15-6.05-4.08-8.15-2.86-4.03-2.72,4.21-2.44-6-5.37-5.91-7.95-.85-5.19,5.06,2.76,3.13-1.18,2.06,.07,5.19-1.11-6.05-4.08-5.06-2.76-4.97-5.33,2.15-2.51,3.09,.11,5.19-1.11-5.02-4.04-5.02-4.04,3.13-1.18,4.16-1.15-4.03-2.72-4.03-2.72-2.96-3.97,2.1-1.22-2.96-3.97,3.13-1.18,4.12,.14-3-2.68-4.03-2.72,1.12-2.54,1.07-1.25-3.99-4.01,2.1-1.22-1.93-3.94-.85-5.19-.68-10.35Z"/><path class="cls-1" d="M621.68,579l-2.06,10.39-1.03,5.77-2.06,3.46h2.06l-1.03,3.46-3.09,2.31-3.09,2.31-2.06,1.15,1.03,1.15h6.17l-1.03,2.31-2.06,1.15-2.06,2.31-3.09,1.15-3.09,1.15-2.06,1.15,2.06,1.15,3.09,1.15h6.17l-1.03,2.31-2.06,1.15-3.09,2.31-3.09,1.15-2.06,1.15-2.06,1.15,3.09,1.15h6.17l-1.03,2.31-4.12,1.15-5.15,3.46-5.15,2.31-1.03,2.31h5.15l4.12,1.15,6.17-1.15-2.06,4.62-4.12,2.31-6.17,3.46-5.15,3.46h5.15l1.03,2.31,4.12,1.15,6.17-1.15-1.03,2.31-4.12,3.46-6.17,5.77-8.23,4.62-4.12,3.46h5.15l2.06,1.15,3.09-1.15,3.09-1.15-2.06,3.46-6.17,2.31-5.15,1.15-4.12,1.15-2.06,1.15,5.15,1.15,3.09,1.15-4.12,2.31,5.15,1.15h5.15l6.17-3.46,2.06,2.31-6.17,3.46-1.03,1.15h6.17l2.06,1.15-7.2,5.77-5.15,3.46-4.12,2.31,8.23,1.15-2.06,3.46-5.15,3.46-8.23,2.31-9.26,4.62-9.26,5.77,2.06,2.31,11.32-3.46-5.15,4.62,6.17-2.31,15.44-2.31-5.15,5.77-7.2,4.62,9.26,1.15,8.23-3.46,1.03,1.15-7.2,8.08-8.23,8.08-12.35,5.77-3.09,2.31,5.15,1.15-1.03,2.31-20.58,6.93,4.12,1.15-3.09,5.77,14.41-3.46,1.03,3.46,6.17-4.62,9.26,1.15-7.2,5.77-9.26,6.93-12.35,5.77-8.23,4.62-8.23,3.46-2.06,1.15,7.2,1.15,2.06,3.46,9.26-3.46,2.06,1.15-4.12,3.46-8.23,4.62h6.17l-3.09,4.62,8.23-1.15,10.29-4.62-2.06,4.62,7.2-2.31h3.09l-2.06,4.62h5.15l11.32-9.24,2.06,2.31-1.03,3.46-13.38,10.39h3.09l8.23-2.31,1.03,2.31h5.15l5.15-2.31h4.12l-1.03,3.46-1.03,3.46,3.09,1.15,9.26-6.93,3.09-2.31-1.03,5.77,2.06,2.31,3.09-4.62v9.24h8.23v-8.08l5.15,1.15,1.03-4.62,6.17,3.46,6.17,4.62,2.06-3.46-1.03-3.46,5.15,2.31,4.12,3.46h3.09l-3.09-4.62,3.09-2.31-6.17-6.93v-2.31h6.17l10.29,4.62,6.17,2.31,2.06-2.31-3.09-3.46h4.12l4.12,2.31,6.17,1.15-2.06-3.46,14.41,1.15,1.03-3.46-10.29-4.62-11.32-4.62-10.29-5.77,3.09-3.46,8.23,2.31,4.12,2.31,6.17,1.15h5.15l-2.06-4.62,8.23-1.15,2.06-2.31-12.35-4.62-15.44-4.62-7.2-3.46-11.32-6.93-4.12-2.31,1.03-1.15,7.2,1.15s4.12-1.15,3.09-1.15-2.06-3.46-2.06-3.46l6.17,2.31,6.17,1.15-4.12-6.93,4.12,2.31,6.17,2.31,4.12,1.15,2.06-3.46s4.12,0,5.15,0,3.09-1.15,3.09-1.15l-6.17-5.77-14.41-5.77-8.23-4.62-11.32-5.77-2.06-5.77v-4.62l8.23,1.15s11.32,0,10.29,0-8.23-4.62-8.23-4.62l13.38-3.46-8.23-4.62-11.32-4.62-8.23-6.93-3.09-4.62,6.17,2.31,3.09-1.15,2.06-2.31h4.12l6.17,2.31-1.03-3.46-7.2-3.46-6.17-2.31-4.12-2.31,5.15-1.15-6.17-3.46-8.23-4.62-1.03-3.46,4.12-1.15,3.09,1.15-1.03-3.46h5.15l-2.06-3.46h7.2l4.12-1.15-6.17-3.46-8.23-2.31-4.12-2.31,4.12-2.31-6.17-4.62-6.17-6.93-1.03-4.62,5.15,2.31,3.09-1.15h2.06l5.15-1.15-6.17-3.46-5.15-2.31-5.15-4.62,2.06-2.31h3.09l5.15-1.15-5.15-3.46-5.15-3.46,3.09-1.15,4.12-1.15-4.12-2.31-4.12-2.31-3.09-3.46,2.06-1.15-3.09-3.46,3.09-1.15h4.12l-3.09-2.31-4.12-2.31,1.03-2.31,1.03-1.15-4.12-3.46,2.06-1.15-2.06-3.46-1.03-4.62-1.03-9.24Z"/><path class="cls-1" d="M751.67,580.53l-3.1,12.6-1.59,7.01-2.6,4.11,2.36,.14-1.43,4.18-3.7,2.62-3.7,2.62-2.44,1.28,1.1,1.48,7.07,.41-1.34,2.76-2.44,1.28-2.52,2.69-3.62,1.21-3.62,1.21-2.44,1.28,2.28,1.55,3.46,1.62,4.72,.27,2.36,.14-1.34,2.76-2.44,1.28-3.7,2.62-3.62,1.21-2.44,1.28-2.44,1.28,3.46,1.62,5.9,.34,1.18,.07-1.34,2.76-4.8,1.14-6.14,3.9-6.06,2.49-1.34,2.76,5.9,.34,4.63,1.69,7.16-1-2.69,5.52-4.88,2.56-7.32,3.83-6.14,3.9,5.9,.34,1.02,2.9,4.63,1.69,7.16-1-1.34,2.76-4.96,3.97-7.49,6.66-9.76,5.11-4.96,3.97,5.9,.34,2.28,1.55,3.62-1.21,3.62-1.21-2.6,4.11-7.24,2.42-5.98,1.07-4.8,1.14-2.44,1.28,5.81,1.76,3.46,1.62-4.88,2.56,5.81,1.76,5.9,.34,7.32-3.83,2.19,2.97-7.32,3.83-1.26,1.35,7.07,.41,2.28,1.55-8.66,6.6-6.14,3.9-4.88,2.56,9.35,1.96-2.6,4.11-6.14,3.9-9.6,2.28-10.94,5.04-11.02,6.46,2.19,2.97,13.22-3.49-6.22,5.32,7.24-2.42,17.85-1.8-6.31,6.73-8.58,5.18,10.53,2.03,9.68-3.7,1.1,1.48-8.83,9.42-10.01,9.36-14.56,6.25-3.7,2.62,5.81,1.76-1.34,2.76-24.08,7.12,4.63,1.69-3.95,6.87,16.75-3.29,.93,4.31,7.4-5.25,10.53,2.03-8.66,6.6-11.1,7.87-14.56,6.25-9.76,5.11-9.68,3.7-2.44,1.28,8.17,1.89,2.11,4.38,10.86-3.63,2.28,1.55-4.96,3.97-9.76,5.11,7.07,.41-3.87,5.45,9.52-.87,12.12-4.98-2.69,5.52,8.42-2.35,3.54,.21-2.69,5.52,5.9,.34,13.63-10.57,2.19,2.97-1.43,4.18-16.07,11.84,3.54,.21,9.6-2.28,1.02,2.9,5.9,.34,6.06-2.49,4.72,.27-1.43,4.18-1.43,4.18,3.46,1.62,11.1-7.87,3.7-2.62-1.59,7.01,2.19,2.97,3.87-5.45-.66,11.32,9.43,.55,.57-9.9,5.81,1.76,1.51-5.59,6.83,4.65,6.75,6.07,2.6-4.11-.93-4.31,5.73,3.17,4.47,4.52,3.54,.21-3.21-5.86,3.7-2.62-6.58-8.9,.16-2.83,7.07,.41,11.46,6.34,6.91,3.24,2.52-2.69-3.29-4.45,4.72,.27,4.55,3.1,6.99,1.83-2.11-4.38,16.43,2.37,1.43-4.18-11.46-6.34-12.64-6.41-11.38-7.76,3.78-4.04,9.27,3.38,4.55,3.1,6.99,1.83,5.9,.34-2.03-5.8,9.52-.87,2.52-2.69-13.82-6.48-17.36-6.68-8.01-4.72-12.48-9.24-4.55-3.1,1.26-1.35,8.17,1.89s4.8-1.14,3.62-1.21-2.11-4.38-2.11-4.38l6.91,3.24,6.99,1.83-4.22-8.76,4.55,3.1,6.91,3.24,4.63,1.69,2.6-4.11s4.72,.27,5.9,.34,3.62-1.21,3.62-1.21l-6.66-7.48-16.1-8.03-9.11-6.21-12.56-7.83-1.95-7.21,.33-5.66,9.35,1.96s12.97,.75,11.79,.68-9.11-6.21-9.11-6.21l15.58-3.36-9.11-6.21-12.64-6.41-8.94-9.04-3.21-5.86,6.91,3.24,3.62-1.21,2.52-2.69,4.72,.27,6.91,3.24-.93-4.31-8.01-4.72-6.91-3.24-4.55-3.1,5.98-1.07-6.83-4.65-9.11-6.21-.93-4.31,4.8-1.14,3.46,1.62-.93-4.31,5.9,.34-2.11-4.38,8.25,.48,4.8-1.14-6.83-4.65-9.27-3.38-4.55-3.1,4.88-2.56-6.75-6.07-6.58-8.9-.85-5.73,5.73,3.17,3.62-1.21,2.36,.14,5.98-1.07-6.83-4.65-5.73-3.17-5.57-6,2.52-2.69,3.54,.21,5.98-1.07-5.65-4.59-5.65-4.59,3.62-1.21,4.8-1.14-4.55-3.1-4.55-3.1-3.29-4.45,2.44-1.28-3.29-4.45,3.62-1.21,4.72,.27-3.37-3.03-4.55-3.1,1.34-2.76,1.26-1.35-4.47-4.52,2.44-1.28-2.11-4.38-.85-5.73-.52-11.39Z"/><path class="cls-1" d="M884.34,569.09l-1.78,15.98-.85,8.87-2.3,5.41,2.57-.13-1.02,5.35-3.68,3.71-3.68,3.71-2.48,1.89,1.37,1.7,7.7-.38-1.11,3.59-2.48,1.89-2.39,3.65-3.76,1.95-3.76,1.95-2.48,1.89,2.65,1.63,3.94,1.57,5.13-.25,2.57-.13-1.11,3.59-2.48,1.89-3.68,3.71-3.76,1.95-2.48,1.89-2.48,1.89,3.94,1.57,6.42-.32,1.28-.06-1.11,3.59-5.05,2.02-6.15,5.6-6.24,3.84-1.11,3.59,6.42-.32,5.22,1.51,7.61-2.14-2.22,7.17-4.96,3.78-7.44,5.67-6.15,5.6,6.42-.32,1.46,3.46,5.22,1.51,7.61-2.14-1.11,3.59-4.87,5.54-7.26,9.19-9.92,7.55-4.87,5.54,6.42-.32,2.65,1.63,3.76-1.95,3.76-1.95-2.3,5.41-7.53,3.9-6.33,2.08-5.05,2.02-2.48,1.89,6.5,1.44,3.94,1.57-4.96,3.78,6.5,1.44,6.42-.32,7.44-5.67,2.74,3.4-7.44,5.67-1.2,1.82,7.7-.38,2.65,1.63-8.55,9.25-6.15,5.6-4.96,3.78,10.35,1.25-2.3,5.41-6.15,5.6-10.09,4.03-11.2,7.62-11.11,9.38,2.74,3.4,13.85-5.98-6.07,7.36,7.53-3.9,19.07-4.48-5.98,9.12-8.63,7.49,11.64,1.19,10-5.79,1.37,1.7-8.37,12.77-9.66,12.84-14.96,9.57-3.68,3.71,6.5,1.44-1.11,3.59-25.14,11.84,5.22,1.51-3.41,9,17.7-6.17,1.55,5.22,7.35-7.43,11.64,1.19-8.55,9.25-11.03,11.14-14.96,9.57-9.92,7.55-10,5.79-2.48,1.89,9.07,1.32,2.83,5.16,11.29-5.86,2.65,1.63-4.87,5.54-9.92,7.55,7.7-.38-3.5,7.24,10.18-2.27,12.48-7.68-2.22,7.17,8.81-3.97,3.85-.19-2.22,7.17,6.42-.32,13.42-14.79,2.74,3.4-1.02,5.35-15.9,16.68,3.85-.19,10.09-4.03,1.46,3.46,6.42-.32,6.24-3.84,5.13-.25-1.02,5.35-1.02,5.35,3.94,1.57,11.03-11.14,3.68-3.71-.85,8.87,2.74,3.4,3.5-7.24,.7,14.09,10.27-.51-.61-12.33,6.5,1.44,.93-7.11,7.96,4.9,8.05,6.66,2.3-5.41-1.55-5.22,6.59,3.2,5.4,5.03,3.85-.19-4.2-6.85,3.68-3.71-8.22-10.19-.17-3.52,7.7-.38,13.18,6.41,7.87,3.14,2.39-3.65-4.11-5.09,5.13-.25,5.31,3.27,7.79,1.38-2.83-5.16,18.05,.87,1.02-5.35-13.18-6.41-14.47-6.35-13.27-8.17,3.59-5.47,10.44,3.01,5.31,3.27,7.79,1.38,6.42-.32-2.92-6.92,10.18-2.27,2.39-3.65-15.75-6.28-19.6-6.09-9.24-4.84-14.64-9.87-5.31-3.27,1.2-1.82,9.07,1.32s5.05-2.02,3.76-1.95-2.83-5.16-2.83-5.16l7.87,3.14,7.79,1.38-5.66-10.31,5.31,3.27,7.87,3.14,5.22,1.51,2.3-5.41s5.13-.25,6.42-.32,3.76-1.95,3.76-1.95l-8.14-8.43-18.4-7.92-10.62-6.54-14.55-8.11-3-8.68-.35-7.05,10.35,1.25s14.12-.7,12.83-.64c-1.28,.06-10.62-6.54-10.62-6.54l16.42-6.11-10.62-6.54-14.47-6.35-10.79-10.06-4.2-6.85,7.87,3.14,3.76-1.95,2.39-3.65,5.13-.25,7.87,3.14-1.55-5.22-9.24-4.84-7.87-3.14-5.31-3.27,6.33-2.08-7.96-4.9-10.62-6.54-1.55-5.22,5.05-2.02,3.94,1.57-1.55-5.22,6.42-.32-2.83-5.16,8.98-.45,5.05-2.02-7.96-4.9-10.44-3.01-5.31-3.27,4.96-3.78-8.05-6.66-8.22-10.19-1.63-6.98,6.59,3.2,3.76-1.95,2.57-.13,6.33-2.08-7.96-4.9-6.59-3.2-6.77-6.73,2.39-3.65,3.85-.19,6.33-2.08-6.68-4.97-6.68-4.97,3.76-1.95,5.05-2.02-5.31-3.27-5.31-3.27-4.11-5.09,2.48-1.89-4.11-5.09,3.76-1.95,5.13-.25-4.02-3.33-5.31-3.27,1.11-3.59,1.2-1.82-5.4-5.03,2.48-1.89-2.83-5.16-1.63-6.98-1.98-14.03Z"/><path class="cls-1" d="M1030.23,572.53l-2.09,11.33-1.07,6.3-1.81,3.74,1.67,.06-.98,3.77-2.6,2.44-2.6,2.44-1.72,1.2,.79,1.3,5.01,.19-.93,2.5-1.72,1.2-1.76,2.47-2.55,1.17-2.55,1.17-1.72,1.2,1.62,1.33,2.46,1.36,3.34,.12,1.67,.06-.93,2.5-1.72,1.2-2.6,2.44-2.55,1.17-1.72,1.2-1.72,1.2,2.46,1.36,4.17,.15,.83,.03-.93,2.5-3.39,1.14-4.31,3.64-4.27,2.38-.93,2.5,4.17,.15,3.29,1.39,5.05-1.08-1.86,5-3.43,2.41-5.15,3.61-4.31,3.64,4.17,.15,.74,2.56,3.29,1.39,5.05-1.08-.93,2.5-3.48,3.67-5.24,6.14-6.86,4.82-3.48,3.67,4.17,.15,1.62,1.33,2.55-1.17,2.55-1.17-1.81,3.74-5.1,2.35-4.22,1.11-3.39,1.14-1.72,1.2,4.13,1.42,2.46,1.36-3.43,2.41,4.13,1.42,4.17,.15,5.15-3.61,1.58,2.59-5.15,3.61-.88,1.23,5.01,.19,1.62,1.33-6.08,6.11-4.31,3.64-3.43,2.41,6.63,1.51-1.81,3.74-4.31,3.64-6.77,2.28-7.7,4.79-7.75,6.05,1.58,2.59,9.32-3.46-4.36,4.91,5.1-2.35,12.61-2.07-4.41,6.17-6.03,4.85,7.47,1.54,6.82-3.55,.79,1.3-6.17,8.64-7.01,8.61-10.25,5.96-2.6,2.44,4.13,1.42-.93,2.5-16.97,6.98,3.29,1.39-2.74,6.24,11.83-3.36,.69,3.83,5.2-4.88,7.47,1.54-6.08,6.11-7.79,7.32-10.25,5.96-6.86,4.82-6.82,3.55-1.72,1.2,5.8,1.48,1.53,3.86,7.65-3.52,1.62,1.33-3.48,3.67-6.86,4.82,5.01,.19-2.69,4.97,6.72-1.02,8.53-4.75-1.86,5,5.94-2.32,2.5,.09-1.86,5,4.17,.15,9.56-9.79,1.58,2.59-.98,3.77-11.27,10.99,2.5,.09,6.77-2.28,.74,2.56,4.17,.15,4.27-2.38,3.34,.12-.98,3.77-.98,3.77,2.46,1.36,7.79-7.32,2.6-2.44-1.07,6.3,1.58,2.59,2.69-4.97-.37,10.13,6.68,.25,.33-8.86,4.13,1.42,1.02-5.03,4.87,3.98,4.82,5.25,1.81-3.74-.69-3.83,4.08,2.69,3.2,3.92,2.5,.09-2.32-5.16,2.6-2.44-4.73-7.78,.09-2.53,5.01,.19,8.16,5.37,4.91,2.72,1.76-2.47-2.36-3.89,3.34,.12,3.25,2.66,4.96,1.45-1.53-3.86,11.64,1.7,.98-3.77-8.16-5.37-8.99-5.4-8.11-6.64,2.64-3.7,6.58,2.78,3.25,2.66,4.96,1.45,4.17,.15-1.48-5.12,6.72-1.02,1.76-2.47-9.83-5.43-12.33-5.53-5.7-4.01-8.9-7.93-3.25-2.66,.88-1.23,5.8,1.48s3.39-1.14,2.55-1.17-1.53-3.86-1.53-3.86l4.91,2.72,4.96,1.45-3.06-7.72,3.25,2.66,4.91,2.72,3.29,1.39,1.81-3.74s3.34,.12,4.17,.15,2.55-1.17,2.55-1.17l-4.77-6.51-11.45-6.76-6.49-5.31-8.95-6.67-1.44-6.39,.19-5.06,6.63,1.51s9.18,.34,8.35,.31-6.49-5.31-6.49-5.31l10.99-3.4-6.49-5.31-8.99-5.4-6.4-7.84-2.32-5.16,4.91,2.72,2.55-1.17,1.76-2.47,3.34,.12,4.91,2.72-.69-3.83-5.7-4.01-4.91-2.72-3.25-2.66,4.22-1.11-4.87-3.98-6.49-5.31-.69-3.83,3.39-1.14,2.46,1.36-.69-3.83,4.17,.15-1.53-3.86,5.84,.22,3.39-1.14-4.87-3.98-6.58-2.78-3.25-2.66,3.43-2.41-4.82-5.25-4.73-7.78-.65-5.09,4.08,2.69,2.55-1.17,1.67,.06,4.22-1.11-4.87-3.98-4.08-2.69-3.99-5.22,1.76-2.47,2.5,.09,4.22-1.11-4.03-3.95-4.03-3.95,2.55-1.17,3.39-1.14-3.25-2.66-3.25-2.66-2.36-3.89,1.72-1.2-2.36-3.89,2.55-1.17,3.34,.12-2.41-2.62-3.25-2.66,.93-2.5,.88-1.23-3.2-3.92,1.72-1.2-1.53-3.86-.65-5.09-.46-10.16Z"/><path class="cls-1" d="M1137.47,610.97l-1.25,9.74-.58,5.4-1.84,3.38,2.14-.2-.77,3.28-3.01,2.42-3.01,2.42-2.04,1.26,1.17,.96,6.42-.6-.87,2.22-2.04,1.26-1.94,2.32-3.11,1.36-3.11,1.36-2.04,1.26,2.24,.86,3.31,.76,4.28-.4,2.14-.2-.87,2.22-2.04,1.26-3.01,2.42-3.11,1.36-2.04,1.26-2.04,1.26,3.31,.76,5.35-.5,1.07-.1-.87,2.22-4.18,1.46-5.05,3.68-5.15,2.62-.87,2.22,5.35-.5,4.38,.66,6.32-1.66-1.74,4.44-4.08,2.52-6.12,3.78-5.05,3.68,5.35-.5,1.27,2.02,4.38,.66,6.32-1.66-.87,2.22-3.98,3.58-5.92,5.9-8.16,5.04-3.98,3.58,5.35-.5,2.24,.86,3.11-1.36,3.11-1.36-1.84,3.38-6.22,2.72-5.25,1.56-4.18,1.46-2.04,1.26,5.44,.56,3.31,.76-4.08,2.52,5.44,.56,5.35-.5,6.12-3.78,2.34,1.92-6.12,3.78-.97,1.16,6.42-.6,2.24,.86-6.99,6-5.05,3.68-4.08,2.52,8.65,.26-1.84,3.38-5.05,3.68-8.36,2.92-9.23,5.14-9.13,6.2,2.34,1.92,11.46-4.28-4.95,4.74,6.22-2.72,15.84-3.61-4.85,5.8-7.09,4.94,9.72,.16,8.26-3.98,1.17,.96-6.79,8.12-7.86,8.22-12.34,6.49-3.01,2.42,5.44,.56-.87,2.22-20.79,8.35,4.38,.66-2.71,5.6,14.67-4.57,1.37,3.08,6.02-4.84,9.72,.16-6.99,6-9.03,7.26-12.34,6.49-8.16,5.04-8.26,3.98-2.04,1.26,7.58,.36,2.43,2.98,9.33-4.08,2.24,.86-3.98,3.58-8.16,5.04,6.42-.6-2.81,4.54,8.45-1.86,10.3-5.24-1.74,4.44,7.29-2.82,3.21-.3-1.74,4.44,5.35-.5,10.97-9.57,2.34,1.92-.77,3.28-13.01,10.83,3.21-.3,8.36-2.92,1.27,2.02,5.35-.5,5.15-2.62,4.28-.4-.77,3.28-.77,3.28,3.31,.76,9.03-7.26,3.01-2.42-.58,5.4,2.34,1.92,2.81-4.54,.79,8.48,8.55-.8-.69-7.42,5.44,.56,.67-4.34,6.71,2.58,6.81,3.64,1.84-3.38-1.37-3.08,5.54,1.62,4.57,2.78,3.21-.3-3.6-3.94,3.01-2.42-7.01-5.76-.2-2.12,6.42-.6,11.09,3.24,6.61,1.52,1.94-2.32-3.5-2.88,4.28-.4,4.47,1.72,6.51,.46-2.43-2.98,15.07-.34,.77-3.28-11.09-3.24-12.16-3.14-11.19-4.3,2.91-3.48,8.75,1.32,4.47,1.72,6.51,.46,5.35-.5-2.53-4.04,8.45-1.86,1.94-2.32-13.23-3.04-16.43-2.74-7.78-2.48-12.35-5.26-4.47-1.72,.97-1.16,7.58,.36s4.18-1.46,3.11-1.36-2.43-2.98-2.43-2.98l6.61,1.52,6.51,.46-4.87-5.96,4.47,1.72,6.61,1.52,4.38,.66,1.84-3.38s4.28-.4,5.35-.5,3.11-1.36,3.11-1.36l-6.91-4.7-15.46-3.9-8.95-3.44-12.25-4.2-2.63-5.1-.4-4.24,8.65,.26s11.76-1.1,10.69-1-8.95-3.44-8.95-3.44l13.6-4.47-8.95-3.44-12.16-3.14-9.15-5.56-3.6-3.94,6.61,1.52,3.11-1.36,1.94-2.32,4.28-.4,6.61,1.52-1.37-3.08-7.78-2.48-6.61-1.52-4.47-1.72,5.25-1.56-6.71-2.58-8.95-3.44-1.37-3.08,4.18-1.46,3.31,.76-1.37-3.08,5.35-.5-2.43-2.98,7.48-.7,4.18-1.46-6.71-2.58-8.75-1.32-4.47-1.72,4.08-2.52-6.81-3.64-7.01-5.76-1.46-4.14,5.54,1.62,3.11-1.36,2.14-.2,5.25-1.56-6.71-2.58-5.54-1.62-5.74-3.74,1.94-2.32,3.21-.3,5.25-1.56-5.64-2.68-5.64-2.68,3.11-1.36,4.18-1.46-4.47-1.72-4.47-1.72-3.5-2.88,2.04-1.26-3.5-2.88,3.11-1.36,4.28-.4-3.41-1.82-4.47-1.72,.87-2.22,.97-1.16-4.57-2.78,2.04-1.26-2.43-2.98-1.46-4.14-1.86-8.38Z"/><path class="cls-1" d="M1341.1,666l-2.5,8.99-1.26,5-2.32,2.95,2.22,.07-1.2,2.99-3.4,1.91-3.4,1.91-2.25,.94,1.08,1.04,6.67,.2-1.17,1.98-2.25,.94-2.28,1.95-3.37,.91-3.37,.91-2.25,.94,2.19,1.07,3.31,1.11,4.45,.13,2.22,.07-1.17,1.98-2.25,.94-3.4,1.91-3.37,.91-2.25,.94-2.25,.94,3.31,1.11,5.56,.17,1.11,.03-1.17,1.98-4.48,.87-5.65,2.85-5.62,1.84-1.17,1.98,5.56,.17,4.42,1.14,6.7-.8-2.35,3.96-4.51,1.88-6.76,2.82-5.65,2.85,5.56,.17,1.05,2.05,4.42,1.14,6.7-.8-1.17,1.98-4.54,2.88-6.82,4.83-9.02,3.76-4.54,2.88,5.56,.17,2.19,1.07,3.37-.91,3.37-.91-2.32,2.95-6.73,1.81-5.59,.84-4.48,.87-2.25,.94,5.53,1.17,3.31,1.11-4.51,1.88,5.53,1.17,5.56,.17,6.76-2.82,2.16,2.08-6.76,2.82-1.14,.97,6.67,.2,2.19,1.07-7.94,4.8-5.65,2.85-4.51,1.88,8.87,1.28-2.32,2.95-5.65,2.85-8.96,1.74-10.13,3.72-10.16,4.73,2.16,2.08,12.32-2.65-5.68,3.86,6.73-1.81,16.74-1.51-5.71,4.86-7.91,3.79,9.98,1.31,8.99-2.75,1.08,1.04-8,6.81-9.11,6.78-13.5,4.63-3.4,1.91,5.53,1.17-1.17,1.98-22.42,5.37,4.42,1.14-3.49,4.93,15.66-2.55,1.02,3.05,6.79-3.82,9.98,1.31-7.94,4.8-10.19,5.74-13.5,4.63-9.02,3.76-8.99,2.75-2.25,.94,7.75,1.24,2.13,3.09,10.1-2.72,2.19,1.07-4.54,2.88-9.02,3.76,6.67,.2-3.46,3.92,8.93-.74,11.24-3.69-2.35,3.96,7.84-1.78,3.34,.1-2.35,3.96,5.56,.17,12.48-7.68,2.16,2.08-1.2,2.99-14.73,8.62,3.34,.1,8.96-1.74,1.05,2.05,5.56,.17,5.62-1.84,4.45,.13-1.2,2.99-1.2,2.99,3.31,1.11,10.19-5.74,3.4-1.91-1.26,5,2.16,2.08,3.46-3.92-.24,8.05,8.9,.27,.21-7.05,5.53,1.17,1.23-3.99,6.58,3.22,6.55,4.23,2.32-2.95-1.02-3.05,5.5,2.18,4.36,3.15,3.34,.1-3.21-4.13,3.4-1.91-6.49-6.24,.06-2.01,6.67,.2,11,4.36,6.61,2.22,2.28-1.95-3.24-3.12,4.45,.13,4.39,2.15,6.64,1.21-2.13-3.09,15.54,1.48,1.2-2.99-11-4.36-12.11-4.4-10.97-5.37,3.43-2.92,8.83,2.28,4.39,2.15,6.64,1.21,5.56,.17-2.1-4.09,8.93-.74,2.28-1.95-13.22-4.43-16.56-4.53-7.69-3.26-12.05-6.41-4.39-2.15,1.14-.97,7.75,1.24s4.48-.87,3.37-.91-2.13-3.09-2.13-3.09l6.61,2.22,6.64,1.21-4.27-6.17,4.39,2.15,6.61,2.22,4.42,1.14,2.32-2.95s4.45,.13,5.56,.17c1.11,.03,3.37-.91,3.37-.91l-6.52-5.23-15.42-5.5-8.77-4.3-12.08-5.4-2.07-5.1,.12-4.03,8.87,1.28s12.23,.37,11.12,.34-8.77-4.3-8.77-4.3l14.55-2.58-8.77-4.3-12.11-4.4-8.71-6.31-3.21-4.13,6.61,2.22,3.37-.91,2.28-1.95,4.45,.13,6.61,2.22-1.02-3.05-7.69-3.26-6.61-2.22-4.39-2.15,5.59-.84-6.58-3.22-8.77-4.3-1.02-3.05,4.48-.87,3.31,1.11-1.02-3.05,5.56,.17-2.13-3.09,7.78,.24,4.48-.87-6.58-3.22-8.83-2.28-4.39-2.15,4.51-1.88-6.55-4.23-6.49-6.24-.99-4.06,5.5,2.18,3.37-.91,2.22,.07,5.59-.84-6.58-3.22-5.5-2.18-5.44-4.19,2.28-1.95,3.34,.1,5.59-.84-5.47-3.19-5.47-3.19,3.37-.91,4.48-.87-4.39-2.15-4.39-2.15-3.24-3.12,2.25-.94-3.24-3.12,3.37-.91,4.45,.13-3.27-2.11-4.39-2.15,1.17-1.98,1.14-.97-4.36-3.15,2.25-.94-2.13-3.09-.99-4.06-.87-8.09Z"/><path class="cls-1" d="M1489.73,545.84l-3.08,11.87-1.58,6.6-2.53,3.85,2.26,.15-1.4,3.93-3.57,2.44-3.57,2.44-2.35,1.18,1.04,1.41,6.77,.46-1.31,2.59-2.35,1.18-2.44,2.52-3.48,1.1-3.48,1.1-2.35,1.18,2.17,1.49,3.29,1.57,4.51,.31,2.26,.15-1.31,2.59-2.35,1.18-3.57,2.44-3.48,1.1-2.35,1.18-2.35,1.18,3.29,1.57,5.64,.39,1.13,.08-1.31,2.59-4.6,1.03-5.92,3.62-5.82,2.29-1.31,2.59,5.64,.39,4.42,1.64,6.86-.87-2.62,5.19-4.7,2.36-7.04,3.55-5.92,3.62,5.64,.39,.95,2.75,4.42,1.64,6.86-.87-1.31,2.59-4.79,3.7-7.23,6.22-9.39,4.73-4.79,3.7,5.64,.39,2.17,1.49,3.48-1.1,3.48-1.1-2.53,3.85-6.95,2.21-5.73,.95-4.6,1.03-2.35,1.18,5.55,1.72,3.29,1.57-4.7,2.36,5.55,1.72,5.64,.39,7.04-3.55,2.07,2.83-7.04,3.55-1.22,1.26,6.77,.46,2.17,1.49-8.35,6.14-5.92,3.62-4.7,2.36,8.94,1.95-2.53,3.85-5.92,3.62-9.21,2.06-10.52,4.65-10.61,5.99,2.07,2.83,12.69-3.16-6.01,4.96,6.95-2.21,17.11-1.52-6.1,6.29-8.26,4.8,10.06,2.03,9.3-3.39,1.04,1.41-8.54,8.81-9.66,8.73-14,5.75-3.57,2.44,5.55,1.72-1.31,2.59-23.11,6.47,4.42,1.64-3.84,6.45,16.07-2.93,.85,4.08,7.13-4.88,10.06,2.03-8.35,6.14-10.7,7.32-14,5.75-9.39,4.73-9.3,3.39-2.35,1.18,7.81,1.88,1.98,4.16,10.43-3.31,2.17,1.49-4.79,3.7-9.39,4.73,6.77,.46-3.75,5.11,9.12-.72,11.65-4.57-2.62,5.19,8.08-2.13,3.38,.23-2.62,5.19,5.64,.39,13.14-9.84,2.07,2.83-1.4,3.93-15.49,11.02,3.38,.23,9.21-2.06,.95,2.75,5.64,.39,5.82-2.29,4.51,.31-1.4,3.93-1.4,3.93,3.29,1.57,10.7-7.32,3.57-2.44-1.58,6.6,2.07,2.83,3.75-5.11-.73,10.69,9.03,.62,.64-9.35,5.55,1.72,1.49-5.27,6.5,4.47,6.41,5.81,2.53-3.85-.85-4.08,5.46,3.06,4.24,4.32,3.38,.23-3.02-5.57,3.57-2.44-6.22-8.48,.18-2.67,6.77,.46,10.92,6.11,6.59,3.13,2.44-2.52-3.11-4.24,4.51,.31,4.33,2.98,6.68,1.8-1.98-4.16,15.71,2.41,1.4-3.93-10.92-6.11-12.05-6.19-10.83-7.45,3.66-3.78,8.84,3.29,4.33,2.98,6.68,1.8,5.64,.39-1.89-5.5,9.12-.72,2.44-2.52-13.17-6.27-16.56-6.5-7.62-4.55-11.86-8.86-4.33-2.98,1.22-1.26,7.81,1.88s4.6-1.03,3.48-1.1c-1.13-.08-1.98-4.16-1.98-4.16l6.59,3.13,6.68,1.8-3.97-8.32,4.33,2.98,6.59,3.13,4.42,1.64,2.53-3.85s4.51,.31,5.64,.39c1.13,.08,3.48-1.1,3.48-1.1l-6.31-7.14-15.34-7.76-8.66-5.96-11.96-7.53-1.8-6.83,.36-5.34,8.94,1.95s12.41,.85,11.28,.77-8.66-5.96-8.66-5.96l14.94-3.01-8.66-5.96-12.05-6.19-8.48-8.63-3.02-5.57,6.59,3.13,3.48-1.1,2.44-2.52,4.51,.31,6.59,3.13-.85-4.08-7.62-4.55-6.59-3.13-4.33-2.98,5.73-.95-6.5-4.47-8.66-5.96-.85-4.08,4.6-1.03,3.29,1.57-.85-4.08,5.64,.39-1.98-4.16,7.9,.54,4.6-1.03-6.5-4.47-8.84-3.29-4.33-2.98,4.7-2.36-6.41-5.81-6.22-8.48-.76-5.42,5.46,3.06,3.48-1.1,2.26,.15,5.73-.95-6.5-4.47-5.46-3.06-5.28-5.73,2.44-2.52,3.38,.23,5.73-.95-5.37-4.39-5.37-4.39,3.48-1.1,4.6-1.03-4.33-2.98-4.33-2.98-3.11-4.24,2.35-1.18-3.11-4.24,3.48-1.1,4.51,.31-3.2-2.9-4.33-2.98,1.31-2.59,1.22-1.26-4.24-4.32,2.35-1.18-1.98-4.16-.76-5.42-.4-10.76Z"/><path class="cls-1" d="M1611.26,629.19l-2.27,9.79-1.14,5.44-2.27,3.26h2.27l-1.14,3.26-3.41,2.17-3.41,2.17-2.27,1.09,1.14,1.09h6.81l-1.14,2.17-2.27,1.09-2.27,2.17-3.41,1.09-3.41,1.09-2.27,1.09,2.27,1.09,3.41,1.09h6.81l-1.14,2.17-2.27,1.09-3.41,2.17-3.41,1.09-2.27,1.09-2.27,1.09,3.41,1.09h6.81l-1.14,2.17-4.54,1.09-5.68,3.26-5.68,2.17-1.14,2.17h5.68l4.54,1.09,6.81-1.09-2.27,4.35-4.54,2.17-6.81,3.26-5.68,3.26h5.68l1.14,2.17,4.54,1.09,6.81-1.09-1.14,2.17-4.54,3.26-6.81,5.44-9.08,4.35-4.54,3.26h5.68l2.27,1.09,3.41-1.09,3.41-1.09-2.27,3.26-6.81,2.17-5.68,1.09-4.54,1.09-2.27,1.09,5.68,1.09,3.41,1.09-4.54,2.17,5.68,1.09h5.68l6.81-3.26,2.27,2.17-6.81,3.26-1.14,1.09h6.81l2.27,1.09-7.95,5.44-5.68,3.26-4.54,2.17,9.08,1.09-2.27,3.26-5.68,3.26-9.08,2.17-10.22,4.35-10.22,5.44,2.27,2.17,12.49-3.26-5.68,4.35,6.81-2.17,17.03-2.17-5.68,5.44-7.95,4.35,10.22,1.09,9.08-3.26,1.14,1.09-7.95,7.61-9.08,7.61-13.62,5.44-3.41,2.17,5.68,1.09-1.14,2.17-22.7,6.52,4.54,1.09-3.41,5.44,15.89-3.26,1.14,3.26,6.81-4.35,10.22,1.09-7.95,5.44-10.22,6.52-13.62,5.44-9.08,4.35-9.08,3.26-2.27,1.09,7.95,1.09,2.27,3.26,10.22-3.26,2.27,1.09-4.54,3.26-9.08,4.35h6.81l-3.41,4.35,9.08-1.09,11.35-4.35-2.27,4.35,7.95-2.17h3.41l-2.27,4.35h5.68l12.49-8.7,2.27,2.17-1.14,3.26-14.76,9.79h3.41l9.08-2.17,1.14,2.17h5.68l5.68-2.17h4.54l-1.14,3.26-1.14,3.26,3.41,1.09,10.22-6.52,3.41-2.17-1.14,5.44,2.27,2.17,3.41-4.35v8.7h9.08v-7.61l5.68,1.09,1.14-4.35,6.81,3.26,6.81,4.35,2.27-3.26-1.14-3.26,5.68,2.17,4.54,3.26h3.41l-3.41-4.35,3.41-2.17-6.81-6.52v-2.17h6.81l11.35,4.35,6.81,2.17,2.27-2.17-3.41-3.26h4.54l4.54,2.17,6.81,1.09-2.27-3.26,15.89,1.09,1.14-3.26-11.35-4.35-12.49-4.35-11.35-5.44,3.41-3.26,9.08,2.17,4.54,2.17,6.81,1.09h5.68l-2.27-4.35,9.08-1.09,2.27-2.17-13.62-4.35-17.03-4.35-7.95-3.26-12.49-6.52-4.54-2.17,1.14-1.09,7.95,1.09s4.54-1.09,3.41-1.09-2.27-3.26-2.27-3.26l6.81,2.17,6.81,1.09-4.54-6.52,4.54,2.17,6.81,2.17,4.54,1.09,2.27-3.26s4.54,0,5.68,0,3.41-1.09,3.41-1.09l-6.81-5.44-15.89-5.44-9.08-4.35-12.49-5.44-2.27-5.44v-4.35l9.08,1.09s12.49,0,11.35,0-9.08-4.35-9.08-4.35l14.76-3.26-9.08-4.35-12.49-4.35-9.08-6.52-3.41-4.35,6.81,2.17,3.41-1.09,2.27-2.17h4.54l6.81,2.17-1.14-3.26-7.95-3.26-6.81-2.17-4.54-2.17,5.68-1.09-6.81-3.26-9.08-4.35-1.14-3.26,4.54-1.09,3.41,1.09-1.14-3.26h5.68l-2.27-3.26h7.95l4.54-1.09-6.81-3.26-9.08-2.17-4.54-2.17,4.54-2.17-6.81-4.35-6.81-6.52-1.14-4.35,5.68,2.17,3.41-1.09h2.27l5.68-1.09-6.81-3.26-5.68-2.17-5.68-4.35,2.27-2.17h3.41l5.68-1.09-5.68-3.26-5.68-3.26,3.41-1.09,4.54-1.09-4.54-2.17-4.54-2.17-3.41-3.26,2.27-1.09-3.41-3.26,3.41-1.09h4.54l-3.41-2.17-4.54-2.17,1.14-2.17,1.14-1.09-4.54-3.26,2.27-1.09-2.27-3.26-1.14-4.35-1.14-8.7Z"/><path class="cls-1" d="M1784.26,636.99l-2.3,10.96-1.15,6.09-2.28,3.65h2.27s-1.15,3.66-1.15,3.66l-3.41,2.43-3.41,2.43-2.27,1.21,1.13,1.22,6.81,.02-1.14,2.43-2.27,1.21-2.28,2.43-3.41,1.21-3.41,1.21-2.27,1.21,2.27,1.23,3.4,1.23h4.54s2.27,.02,2.27,.02l-1.14,2.43-2.27,1.21-3.41,2.43-3.41,1.21-2.27,1.21-2.27,1.21,3.4,1.23,5.68,.02h1.14s-1.14,2.44-1.14,2.44l-4.54,1.2-5.69,3.64-5.68,2.42-1.14,2.43,5.68,.02,4.54,1.23,6.81-1.2-2.29,4.87-4.55,2.42-6.82,3.63-5.69,3.64,5.68,.02,1.13,2.44,4.54,1.23,6.81-1.2-1.14,2.43-4.55,3.64-6.83,6.07-9.1,4.84-4.55,3.64,5.68,.02,2.27,1.23,3.41-1.21,3.41-1.21-2.28,3.65-6.82,2.42-5.68,1.2-4.54,1.2-2.27,1.21,5.67,1.24,3.4,1.23-4.55,2.42,5.67,1.24,5.68,.02,6.82-3.63,2.26,2.44-6.82,3.63-1.14,1.21,6.81,.02,2.27,1.23-7.96,6.07-5.69,3.64-4.55,2.42,9.08,1.25-2.28,3.65-5.69,3.64-9.09,2.41-10.23,4.84-10.24,6.06,2.26,2.44,12.5-3.62-5.69,4.85,6.82-2.42,17.03-2.38-5.69,6.07-7.96,4.85,10.21,1.25,9.09-3.63,1.13,1.22-7.97,8.5-9.11,8.5-13.64,6.05-3.41,2.43,5.67,1.24-1.14,2.43-22.73,7.24,4.54,1.23-3.42,6.08,15.9-3.61,1.12,3.66,6.83-4.85,10.21,1.25-7.96,6.07-10.24,7.28-13.64,6.05-9.1,4.84-9.09,3.63-2.27,1.21,7.94,1.24,2.26,3.66,10.23-3.62,2.27,1.23-4.55,3.64-9.1,4.84,6.81,.02-3.42,4.86,9.08-1.19,11.37-4.84-2.29,4.87,7.95-2.41h3.41s-2.29,4.88-2.29,4.88l5.68,.02,12.52-9.71,2.26,2.44-1.15,3.65-14.79,10.92h3.41s9.09-2.4,9.09-2.4l1.13,2.44,5.68,.02,5.68-2.42h4.54s-1.15,3.66-1.15,3.66l-1.15,3.65,3.4,1.23,10.24-7.28,3.41-2.43-1.15,6.09,2.26,2.44,3.42-4.86-.03,9.74,9.08,.03,.03-8.53,5.67,1.24,1.15-4.87,6.8,3.68,6.8,4.89,2.28-3.65-1.12-3.66,5.67,2.45,4.53,3.67h3.41s-3.39-4.87-3.39-4.87l3.41-2.43-6.79-7.33v-2.44s6.82,.02,6.82,.02l11.34,4.91,6.8,2.46,2.28-2.43-3.39-3.66h4.54s4.53,2.46,4.53,2.46l6.81,1.24-2.26-3.66,15.89,1.27,1.15-3.65-11.34-4.91-12.47-4.91-11.33-6.13,3.42-3.64,9.07,2.46,4.53,2.45,6.81,1.24,5.68,.02-2.26-4.88,9.08-1.19,2.28-2.43-13.61-4.91-17.01-4.93-7.93-3.68-12.46-7.35-4.53-2.45,1.14-1.21,7.94,1.24s4.54-1.2,3.41-1.21c-1.14,0-2.26-3.66-2.26-3.66l6.8,2.46,6.81,1.24-4.52-7.32,4.53,2.45,6.8,2.46,4.54,1.23,2.28-3.65s4.54,.01,5.68,.02,3.41-1.21,3.41-1.21l-6.79-6.11-15.87-6.14-9.07-4.9-12.47-6.13-2.25-6.1,.02-4.87,9.08,1.25s12.49,.04,11.35,.04-9.07-4.9-9.07-4.9l14.77-3.61-9.07-4.9-12.47-4.91-9.06-7.34-3.39-4.88,6.8,2.46,3.41-1.21,2.28-2.43h4.54s6.8,2.47,6.8,2.47l-1.12-3.66-7.93-3.68-6.8-2.46-4.53-2.45,5.68-1.2-6.8-3.68-9.07-4.9-1.12-3.66,4.54-1.2,3.4,1.23-1.12-3.66,5.68,.02-2.26-3.66,7.95,.02,4.54-1.2-6.8-3.68-9.07-2.46-4.53-2.45,4.55-2.42-6.8-4.89-6.79-7.33-1.12-4.88,5.67,2.45,3.41-1.21h2.27s5.68-1.19,5.68-1.19l-6.8-3.68-5.67-2.45-5.66-4.89,2.28-2.43h3.41s5.68-1.19,5.68-1.19l-5.66-3.67-5.66-3.67,3.41-1.21,4.54-1.2-4.53-2.45-4.53-2.45-3.39-3.66,2.27-1.21-3.39-3.66,3.41-1.21h4.54s-3.4-2.43-3.4-2.43l-4.53-2.45,1.14-2.43,1.14-1.21-4.53-3.67,2.27-1.21-2.26-3.66-1.12-4.88-1.1-9.75Z"/><path class="cls-1" d="M2553.16,512.11l-1.65,9.72-.8,5.4-1.9,3.29,2.02-.08-.89,3.25-2.95,2.26-2.95,2.26-1.98,1.15,1.05,1.03,6.06-.23-.93,2.18-1.98,1.15-1.94,2.22-2.99,1.19-2.99,1.19-1.98,1.15,2.06,.99,3.07,.95,4.04-.16,2.02-.08-.93,2.18-1.98,1.15-2.95,2.26-2.99,1.19-1.98,1.15-1.98,1.15,3.07,.95,5.05-.19,1.01-.04-.93,2.18-4,1.23-4.93,3.41-4.97,2.34-.93,2.18,5.05-.19,4.08,.92,6.02-1.3-1.86,4.36-3.96,2.3-5.94,3.45-4.93,3.41,5.05-.19,1.09,2.1,4.08,.92,6.02-1.3-.93,2.18-3.92,3.37-5.86,5.59-7.92,4.6-3.92,3.37,5.05-.19,2.06,.99,2.99-1.19,2.99-1.19-1.9,3.29-5.98,2.38-5.01,1.27-4,1.23-1.98,1.15,5.09,.88,3.07,.95-3.96,2.3,5.09,.88,5.05-.19,5.94-3.45,2.1,2.07-5.94,3.45-.97,1.11,6.06-.23,2.06,.99-6.87,5.63-4.93,3.41-3.96,2.3,8.12,.76-1.9,3.29-4.93,3.41-8,2.45-8.93,4.64-8.89,5.71,2.1,2.07,10.99-3.64-4.89,4.48,5.98-2.38,15.07-2.73-4.85,5.55-6.91,4.56,9.14,.72,7.96-3.53,1.05,1.03-6.78,7.77-7.79,7.81-11.92,5.82-2.95,2.26,5.09,.88-.93,2.18-19.96,7.21,4.08,.92-2.82,5.47,14.02-3.76,1.13,3.18,5.9-4.52,9.14,.72-6.87,5.63-8.85,6.78-11.92,5.82-7.92,4.6-7.96,3.53-1.98,1.15,7.11,.8,2.14,3.14,8.97-3.56,2.06,.99-3.92,3.37-7.92,4.6,6.06-.23-2.87,4.4,8.04-1.38,9.94-4.68-1.86,4.36,6.99-2.42,3.03-.12-1.86,4.36,5.05-.19,10.78-9,2.1,2.07-.89,3.25-12.76,10.15,3.03-.12,8-2.45,1.09,2.1,5.05-.19,4.97-2.34,4.04-.16-.89,3.25-.89,3.25,3.07,.95,8.85-6.78,2.95-2.26-.8,5.4,2.1,2.07,2.87-4.4,.33,8.57,8.08-.31-.29-7.5,5.09,.88,.85-4.32,6.19,2.98,6.23,4.05,1.9-3.29-1.13-3.18,5.13,1.95,4.17,3.06,3.03-.12-3.2-4.17,2.95-2.26-6.31-6.2-.08-2.14,6.06-.23,10.27,3.9,6.15,1.91,1.94-2.22-3.16-3.1,4.04-.16,4.12,1.99,6.1,.84-2.14-3.14,14.19,.53,.89-3.25-10.27-3.9-11.28-3.86-10.31-4.97,2.91-3.33,8.17,1.83,4.12,1.99,6.1,.84,5.05-.19-2.19-4.21,8.04-1.38,1.94-2.22-12.29-3.82-15.32-3.7-7.2-2.94-11.36-6-4.12-1.99,.97-1.11,7.11,.8s4-1.23,2.99-1.19-2.14-3.14-2.14-3.14l6.15,1.91,6.1,.84-4.29-6.27,4.12,1.99,6.15,1.91,4.08,.92,1.9-3.29s4.04-.16,5.05-.19,2.99-1.19,2.99-1.19l-6.27-5.12-14.35-4.81-8.25-3.97-11.32-4.93-2.23-5.28-.17-4.29,8.12,.76s11.11-.43,10.1-.39-8.25-3.97-8.25-3.97l13.01-3.72-8.25-3.97-11.28-3.86-8.33-6.12-3.2-4.17,6.15,1.91,2.99-1.19,1.94-2.22,4.04-.16,6.15,1.91-1.13-3.18-7.2-2.94-6.15-1.91-4.12-1.99,5.01-1.27-6.19-2.98-8.25-3.97-1.13-3.18,4-1.23,3.07,.95-1.13-3.18,5.05-.19-2.14-3.14,7.07-.27,4-1.23-6.19-2.98-8.17-1.83-4.12-1.99,3.96-2.3-6.23-4.05-6.31-6.2-1.18-4.25,5.13,1.95,2.99-1.19,2.02-.08,5.01-1.27-6.19-2.98-5.13-1.95-5.22-4.09,1.94-2.22,3.03-.12,5.01-1.27-5.18-3.02-5.18-3.02,2.99-1.19,4-1.23-4.12-1.99-4.12-1.99-3.16-3.1,1.98-1.15-3.16-3.1,2.99-1.19,4.04-.16-3.11-2.03-4.12-1.99,.93-2.18,.97-1.11-4.17-3.06,1.98-1.15-2.14-3.14-1.18-4.25-1.34-8.53Z"/><path class="cls-1" d="M2361.11,569.18l-2.75,10.63-1.39,5.91-2.53,3.49,2.43,.07-1.32,3.53-3.71,2.27-3.71,2.27-2.46,1.12,1.18,1.22,7.28,.22-1.28,2.34-2.46,1.12-2.5,2.31-3.68,1.08-3.68,1.08-2.46,1.12,2.39,1.26,3.61,1.3,4.86,.14,2.43,.07-1.28,2.34-2.46,1.12-3.71,2.27-3.68,1.08-2.46,1.12-2.46,1.12,3.61,1.3,6.07,.18,1.21,.04-1.28,2.34-4.89,1.04-6.18,3.39-6.14,2.2-1.28,2.34,6.07,.18,4.82,1.33,7.32-.97-2.57,4.68-4.93,2.23-7.39,3.35-6.18,3.39,6.07,.18,1.14,2.41,4.82,1.33,7.32-.97-1.28,2.34-4.96,3.42-7.46,5.73-9.85,4.47-4.96,3.42,6.07,.18,2.39,1.26,3.68-1.08,3.68-1.08-2.53,3.49-7.35,2.16-6.11,1.01-4.89,1.04-2.46,1.12,6.04,1.37,3.61,1.3-4.93,2.23,6.04,1.37,6.07,.18,7.39-3.35,2.36,2.45-7.39,3.35-1.25,1.15,7.28,.22,2.39,1.26-8.67,5.69-6.18,3.39-4.93,2.23,9.68,1.48-2.53,3.49-6.18,3.39-9.78,2.09-11.07,4.43-11.1,5.62,2.36,2.45,13.46-3.17-6.21,4.57,7.35-2.16,18.28-1.84-6.25,5.76-8.64,4.5,10.89,1.51,9.82-3.28,1.18,1.22-8.75,8.07-9.96,8.03-14.75,5.51-3.71,2.27,6.04,1.37-1.28,2.34-24.49,6.41,4.82,1.33-3.82,5.84,17.1-3.06,1.11,3.6,7.43-4.54,10.89,1.51-8.67,5.69-11.14,6.81-14.75,5.51-9.85,4.47-9.82,3.28-2.46,1.12,8.46,1.44,2.32,3.64,11.03-3.24,2.39,1.26-4.96,3.42-9.85,4.47,7.28,.22-3.78,4.65,9.75-.9,12.28-4.39-2.57,4.68,8.57-2.13,3.64,.11-2.57,4.68,6.07,.18,13.64-9.11,2.36,2.45-1.32,3.53-16.1,10.23,3.64,.11,9.78-2.09,1.14,2.41,6.07,.18,6.14-2.2,4.86,.14-1.32,3.53-1.32,3.53,3.61,1.3,11.14-6.81,3.71-2.27-1.39,5.91,2.36,2.45,3.78-4.65-.28,9.51,9.71,.29,.25-8.32,6.04,1.37,1.36-4.72,7.18,3.78,7.14,4.97,2.53-3.49-1.11-3.6,6,2.56,4.75,3.71,3.64,.11-3.5-4.86,3.71-2.27-7.07-7.35,.07-2.38,7.28,.22,12,5.12,7.21,2.59,2.5-2.31-3.54-3.67,4.86,.14,4.79,2.52,7.25,1.4-2.32-3.64,16.96,1.69,1.32-3.53-12-5.12-13.21-5.15-11.96-6.3,3.75-3.46,9.64,2.67,4.79,2.52,7.25,1.4,6.07,.18-2.29-4.83,9.75-.9,2.5-2.31-14.43-5.19-18.07-5.3-8.39-3.82-13.14-7.53-4.79-2.52,1.25-1.15,8.46,1.44s4.89-1.04,3.68-1.08c-1.21-.04-2.32-3.64-2.32-3.64l7.21,2.59,7.25,1.4-4.64-7.28,4.79,2.52,7.21,2.59,4.82,1.33,2.53-3.49s4.86,.14,6.07,.18,3.68-1.08,3.68-1.08l-7.11-6.16-16.82-6.45-9.57-5.04-13.18-6.34-2.25-6.02,.14-4.75,9.68,1.48s13.35,.4,12.14,.36-9.57-5.04-9.57-5.04l15.89-3.1-9.57-5.04-13.21-5.15-9.5-7.42-3.5-4.86,7.21,2.59,3.68-1.08,2.5-2.31,4.86,.14,7.21,2.59-1.11-3.6-8.39-3.82-7.21-2.59-4.79-2.52,6.11-1.01-7.18-3.78-9.57-5.04-1.11-3.6,4.89-1.04,3.61,1.3-1.11-3.6,6.07,.18-2.32-3.64,8.5,.25,4.89-1.04-7.18-3.78-9.64-2.67-4.79-2.52,4.93-2.23-7.14-4.97-7.07-7.35-1.07-4.79,6,2.56,3.68-1.08,2.43,.07,6.11-1.01-7.18-3.78-6-2.56-5.93-4.94,2.5-2.31,3.64,.11,6.11-1.01-5.96-3.75-5.96-3.75,3.68-1.08,4.89-1.04-4.79-2.52-4.79-2.52-3.54-3.67,2.46-1.12-3.54-3.67,3.68-1.08,4.86,.14-3.57-2.49-4.79-2.52,1.28-2.34,1.25-1.15-4.75-3.71,2.46-1.12-2.32-3.64-1.07-4.79-.93-9.55Z"/><path class="cls-1" d="M2027.95,683.86l-2.11,9.27-1.07,5.15-1.89,3.05,1.78,.06-1,3.08-2.75,1.98-2.75,1.98-1.82,.97,.86,1.07,5.35,.19-.96,2.04-1.82,.97-1.86,2.01-2.71,.94-2.71,.94-1.82,.97,1.75,1.1,2.64,1.13,3.57,.12,1.78,.06-.96,2.04-1.82,.97-2.75,1.98-2.71,.94-1.82,.97-1.82,.97,2.64,1.13,4.46,.15,.89,.03-.96,2.04-3.6,.91-4.57,2.96-4.53,1.92-.96,2.04,4.46,.15,3.53,1.16,5.39-.85-1.93,4.08-3.64,1.95-5.46,2.92-4.57,2.96,4.46,.15,.82,2.1,3.53,1.16,5.39-.85-.96,2.04-3.67,2.99-5.53,5-7.28,3.9-3.67,2.99,4.46,.15,1.75,1.1,2.71-.94,2.71-.94-1.89,3.05-5.42,1.89-4.49,.88-3.6,.91-1.82,.97,4.42,1.19,2.64,1.13-3.64,1.95,4.42,1.19,4.46,.15,5.46-2.92,1.71,2.14-5.46,2.92-.93,1.01,5.35,.19,1.75,1.1-6.42,4.97-4.57,2.96-3.64,1.95,7.1,1.28-1.89,3.05-4.57,2.96-7.21,1.83-8.17,3.87-8.2,4.91,1.71,2.14,9.92-2.77-4.6,3.99,5.42-1.89,13.45-1.61-4.64,5.03-6.39,3.93,7.99,1.32,7.24-2.86,.86,1.07-6.49,7.04-7.38,7.01-10.88,4.81-2.75,1.98,4.42,1.19-.96,2.04-18.05,5.6,3.53,1.16-2.85,5.09,12.59-2.68,.78,3.14,5.49-3.96,7.99,1.32-6.42,4.97-8.24,5.94-10.88,4.81-7.28,3.9-7.24,2.86-1.82,.97,6.21,1.25,1.68,3.17,8.13-2.83,1.75,1.1-3.67,2.99-7.28,3.9,5.35,.19-2.82,4.05,7.17-.79,9.06-3.84-1.93,4.08,6.31-1.86,2.67,.09-1.93,4.08,4.46,.15,10.1-7.95,1.71,2.14-1,3.08-11.91,8.93,2.67,.09,7.21-1.83,.82,2.1,4.46,.15,4.53-1.92,3.57,.12-1,3.08-1,3.08,2.64,1.13,8.24-5.94,2.75-1.98-1.07,5.15,1.71,2.14,2.82-4.05-.29,8.29,7.13,.25,.25-7.26,4.42,1.19,1.04-4.12,5.24,3.3,5.21,4.33,1.89-3.05-.78-3.14,4.39,2.23,3.46,3.23,2.67,.09-2.53-4.24,2.75-1.98-5.13-6.41,.07-2.07,5.35,.19,8.77,4.46,5.28,2.26,1.86-2.01-2.57-3.2,3.57,.12,3.49,2.2,5.31,1.22-1.68-3.17,12.45,1.47,1-3.08-8.77-4.46-9.66-4.49-8.74-5.49,2.78-3.02,7.06,2.32,3.49,2.2,5.31,1.22,4.46,.15-1.64-4.21,7.17-.79,1.86-2.01-10.56-4.52-13.23-4.61-6.13-3.33-9.59-6.56-3.49-2.2,.93-1.01,6.21,1.25s3.6-.91,2.71-.94-1.68-3.17-1.68-3.17l5.28,2.26,5.31,1.22-3.35-6.34,3.49,2.2,5.28,2.26,3.53,1.16,1.89-3.05s3.57,.12,4.46,.15,2.71-.94,2.71-.94l-5.17-5.37-12.3-5.62-6.99-4.39-9.63-5.52-1.6-5.25,.14-4.15,7.1,1.28s9.81,.34,8.92,.31-6.99-4.39-6.99-4.39l11.7-2.71-6.99-4.39-9.66-4.49-6.92-6.47-2.53-4.24,5.28,2.26,2.71-.94,1.86-2.01,3.57,.12,5.28,2.26-.78-3.14-6.13-3.33-5.28-2.26-3.49-2.2,4.49-.88-5.24-3.3-6.99-4.39-.78-3.14,3.6-.91,2.64,1.13-.78-3.14,4.46,.15-1.68-3.17,6.24,.22,3.6-.91-5.24-3.3-7.06-2.32-3.49-2.2,3.64-1.95-5.21-4.33-5.13-6.41-.75-4.18,4.39,2.23,2.71-.94,1.78,.06,4.49-.88-5.24-3.3-4.39-2.23-4.31-4.3,1.86-2.01,2.67,.09,4.49-.88-4.35-3.26-4.35-3.26,2.71-.94,3.6-.91-3.49-2.2-3.49-2.2-2.57-3.2,1.82-.97-2.57-3.2,2.71-.94,3.57,.12-2.6-2.17-3.49-2.2,.96-2.04,.93-1.01-3.46-3.23,1.82-.97-1.68-3.17-.75-4.18-.6-8.32Z"/><path class="cls-1" d="M2178.67,626.3l-1.67,11.56-.8,6.42-2.11,3.94,2.33-.13-.95,3.88-3.34,2.74-3.34,2.74-2.25,1.4,1.24,1.2,6.98-.4-1.02,2.61-2.25,1.4-2.18,2.67-3.42,1.47-3.42,1.47-2.25,1.4,2.4,1.14,3.56,1.07,4.65-.27,2.33-.13-1.02,2.61-2.25,1.4-3.34,2.74-3.42,1.47-2.25,1.4-2.25,1.4,3.56,1.07,5.82-.33,1.16-.07-1.02,2.61-4.58,1.54-5.6,4.14-5.67,2.87-1.02,2.61,5.82-.33,4.73,1,6.91-1.67-2.04,5.21-4.51,2.81-6.76,4.21-5.6,4.14,5.82-.33,1.31,2.47,4.73,1,6.91-1.67-1.02,2.61-4.44,4.08-6.62,6.75-9.02,5.61-4.44,4.08,5.82-.33,2.4,1.14,3.42-1.47,3.42-1.47-2.11,3.94-6.83,2.94-5.74,1.6-4.58,1.54-2.25,1.4,5.89,.94,3.56,1.07-4.51,2.81,5.89,.94,5.82-.33,6.76-4.21,2.47,2.41-6.76,4.21-1.09,1.34,6.98-.4,2.4,1.14-7.78,6.82-5.6,4.14-4.51,2.81,9.38,.74-2.11,3.94-5.6,4.14-9.16,3.07-10.18,5.68-10.11,6.95,2.47,2.41,12.58-4.54-5.53,5.41,6.83-2.94,17.3-3.54-5.45,6.68-7.85,5.55,10.54,.67,9.09-4.34,1.24,1.2-7.63,9.36-8.8,9.42-13.6,7.15-3.34,2.74,5.89,.94-1.02,2.61-22.83,8.95,4.73,1-3.13,6.55,16.07-4.74,1.38,3.74,6.69-5.48,10.54,.67-7.78,6.82-10.03,8.22-13.6,7.15-9.02,5.61-9.09,4.34-2.25,1.4,8.22,.8,2.54,3.68,10.25-4.41,2.4,1.14-4.44,4.08-9.02,5.61,6.98-.4-3.2,5.28,9.23-1.8,11.34-5.75-2.04,5.21,8-3.01,3.49-.2-2.04,5.21,5.82-.33,12.21-10.89,2.47,2.41-.95,3.88-14.47,12.3,3.49-.2,9.16-3.07,1.31,2.47,5.82-.33,5.67-2.87,4.65-.27-.95,3.88-.95,3.88,3.56,1.07,10.03-8.22,3.34-2.74-.8,6.42,2.47,2.41,3.2-5.28,.58,10.16,9.31-.53-.51-8.89,5.89,.94,.87-5.15,7.2,3.41,7.27,4.68,2.11-3.94-1.38-3.74,5.96,2.21,4.87,3.54,3.49-.2-3.78-4.88,3.34-2.74-7.42-7.22-.15-2.54,6.98-.4,11.92,4.41,7.13,2.14,2.18-2.67-3.71-3.61,4.65-.27,4.8,2.27,7.05,.87-2.54-3.68,16.36,.34,.95-3.88-11.92-4.41-13.09-4.35-12-5.68,3.27-4.01,9.45,2.01,4.8,2.27,7.05,.87,5.82-.33-2.62-4.95,9.23-1.8,2.18-2.67-14.25-4.28-17.74-4.08-8.36-3.34-13.23-6.89-4.8-2.27,1.09-1.34,8.22,.8s4.58-1.54,3.42-1.47-2.54-3.68-2.54-3.68l7.13,2.14,7.05,.87-5.09-7.35,4.8,2.27,7.13,2.14,4.73,1,2.11-3.94s4.65-.27,5.82-.33,3.42-1.47,3.42-1.47l-7.34-5.95-16.65-5.42-9.6-4.55-13.16-5.62-2.69-6.22-.29-5.08,9.38,.74s12.8-.73,11.63-.67-9.6-4.55-9.6-4.55l14.91-4.68-9.6-4.55-13.09-4.35-9.74-7.09-3.78-4.88,7.13,2.14,3.42-1.47,2.18-2.67,4.65-.27,7.13,2.14-1.38-3.74-8.36-3.34-7.13-2.14-4.8-2.27,5.74-1.6-7.2-3.41-9.6-4.55-1.38-3.74,4.58-1.54,3.56,1.07-1.38-3.74,5.82-.33-2.54-3.68,8.14-.47,4.58-1.54-7.2-3.41-9.45-2.01-4.8-2.27,4.51-2.81-7.27-4.68-7.42-7.22-1.45-5.01,5.96,2.21,3.42-1.47,2.33-.13,5.74-1.6-7.2-3.41-5.96-2.21-6.11-4.75,2.18-2.67,3.49-.2,5.74-1.6-6.04-3.48-6.04-3.48,3.42-1.47,4.58-1.54-4.8-2.27-4.8-2.27-3.71-3.61,2.25-1.4-3.71-3.61,3.42-1.47,4.65-.27-3.64-2.34-4.8-2.27,1.02-2.61,1.09-1.34-4.87-3.54,2.25-1.4-2.54-3.68-1.45-5.01-1.75-10.09Z"/></svg>