<?xml version="1.0" encoding="UTF-8"?><svg id="Clouds" xmlns="http://www.w3.org/2000/svg" viewBox="0 0 2680 1080"><defs><style>.cls-1{fill:#fff1f1;}</style></defs><polygon class="cls-1" points="132 163 186 139 239 136 298 149 341 138 367 166 322 176 273 179 212 181 162 166 132 163"/><polygon class="cls-1" points="2403 313.72 2460 298 2558 304.84 2635 323.29 2600 348.58 2523 328.08 2460 352 2404 337.65 2403 313.72"/><polygon class="cls-1" points="605 155 672 136 730 129 797 160 903 167 891 191 847 184 751.4 189 667 177 622 194 574 163 605 155"/><polygon class="cls-1" points="1705 323.06 1756 333 1811 329.94 1868 329.94 1916 333 1958 333 1993 323.06 2003 296.29 1948 286.35 1916 300.88 1868 293.24 1852 281 1788 288.65 1747 305.47 1699 288.65 1676 310.82 1705 323.06"/><polygon class="cls-1" points="986 231.9 1062.42 197 1208.48 197 1290 212.79 1290 229.41 1235.65 242.7 1154.13 247.69 1084.5 256 986 231.9"/><polygon class="cls-1" points="2211 248.97 2273.6 264.51 2314 250.58 2310 231.82 2243 227 2195 227 2179 242 2211 248.97"/><polygon class="cls-1" points="346 237 394 208 503 218 580 260 481 288 375 276 346 237"/></svg>