<?xml version="1.0" encoding="UTF-8" standalone="no"?>
<!-- Created with Inkscape (http://www.inkscape.org/) -->

<svg
   width="634.00262"
   height="711.25354"
   viewBox="0 0 634.00262 711.25354"
   version="1.1"
   id="svg5"
   xml:space="preserve"
   xmlns:inkscape="http://www.inkscape.org/namespaces/inkscape"
   xmlns:sodipodi="http://sodipodi.sourceforge.net/DTD/sodipodi-0.dtd"
   xmlns="http://www.w3.org/2000/svg"
   xmlns:svg="http://www.w3.org/2000/svg"><sodipodi:namedview
     id="namedview7"
     pagecolor="#505050"
     bordercolor="#eeeeee"
     borderopacity="1"
     inkscape:showpageshadow="0"
     inkscape:pageopacity="0"
     inkscape:pagecheckerboard="0"
     inkscape:deskcolor="#505050"
     inkscape:document-units="px"
     showgrid="false" /><defs
     id="defs2" /><g
     inkscape:label="Ebene 1"
     inkscape:groupmode="layer"
     id="layer1"
     transform="translate(-334.78357,-145.46857)"><rect
       style="fill:#ffffff;fill-opacity:1;stroke:none;stroke-width:0;stroke-linecap:square;stroke-dasharray:none;paint-order:fill markers stroke"
       id="rect2177"
       width="457.0513"
       height="430.03351"
       x="432.28497"
       y="288.19" /><g
       id="g2171"
       transform="translate(-812.78582,-36.023748)"><path
         style="fill:#9b70d7;stroke-width:1"
         d="m 1448.4058,891.39483 -4.4241,-1.2158 -4.424,-2.1083 -4.4241,-2.10831 -3.7434,-2.1667 -3.7435,-2.16677 -2.0418,-1.21301 -2.0419,-1.21308 -3.4031,-1.95551 -3.4032,-1.95557 -2.3822,-1.3703 -2.3821,-1.37031 -3.0629,-1.73573 -3.0628,-1.7358 -6.8062,-3.92625 -6.8063,-3.92619 -6.4659,-3.72418 -6.466,-3.72424 -2.3822,-1.39086 -2.3821,-1.39093 -5.9896,-3.45791 -5.9895,-3.45792 -2.5183,-1.42244 -2.5183,-1.42244 -6.8062,-3.94824 -6.8063,-3.94824 -2.3822,-1.38112 -2.3822,-1.38112 -2.473,-1.4157 -2.4729,-1.41571 -3.6527,-2.0922 -3.6526,-2.09219 -3.4032,-1.93344 -3.4031,-1.93345 -2.0419,-1.15412 -2.0418,-1.15413 -3.7435,-2.23344 -3.7434,-2.23343 -2.7225,-1.49852 -2.7225,-1.49852 -6.1256,-3.61626 -6.1257,-3.61627 -2.7225,-1.52666 -2.7225,-1.52666 -3.7434,-2.14545 -3.7435,-2.14545 -3.0628,-1.74192 -3.0628,-1.74192 -6.1256,-3.55754 -6.1256,-3.55755 -6.8063,-3.90077 -6.8063,-3.90078 -1.0209,-0.60298 -1.0209,-0.60298 -3.7435,-2.17701 -3.7434,-2.17701 -2.0419,-1.17959 -2.0419,-1.17959 -6.8062,-3.92659 -6.8063,-3.92659 -2.4584,-1.42539 -2.4585,-1.42539 -5.9625,-3.40313 -5.9624,-3.40312 -2.8926,-1.70157 -2.8925,-1.70156 -3.6603,-2.09094 -3.6603,-2.09093 -2.7225,-1.6052 -2.7225,-1.6052 -2.0419,-1.09363 -2.0418,-1.09362 -3.4032,-1.96752 -3.4031,-1.96751 -4.3061,-3.62037 -4.3062,-3.62038 -2.3957,-2.86751 -2.3957,-2.86751 -1.9761,-2.87217 -1.9761,-2.87217 v -1.42765 -1.42765 l -2.385,-4.82578 -2.385,-4.82578 -1.3584,-5.45822 -1.3585,-5.45824 V 537.72005 382.9851 l 1.1023,-5.62897 1.1023,-5.62899 3.6898,-7.48688 3.6898,-7.48688 2.1843,-3.11024 2.1843,-3.11025 5.2543,-5.05726 5.2543,-5.05726 4.6148,-2.34455 4.6147,-2.34455 2.0419,-1.48619 2.0419,-1.48619 4.4241,-2.35895 4.424,-2.35896 2.2949,-1.29719 2.2949,-1.29717 5.8726,-3.47861 5.8726,-3.47861 4.06,-2.16354 4.06,-2.16354 1.0447,-0.91779 1.0447,-0.91778 3.0628,-1.44944 3.0628,-1.44943 1.3613,-0.83233 1.3612,-0.83233 4.4241,-2.77217 4.4241,-2.77216 4.7643,-2.61787 4.7644,-2.61786 1.6232,-1.25251 1.6232,-1.25249 h 1.2173 1.2172 l 2.0222,-1.70156 2.0222,-1.70157 h 0.6607 0.6608 l 1.6232,-1.2652 1.6232,-1.2652 4.7643,-2.57452 4.7644,-2.57453 1.021,-0.83626 1.0209,-0.83626 5.3956,-2.81465 5.3955,-2.81466 1.0704,-0.90307 1.0704,-0.90307 2.7225,-1.23621 2.7225,-1.23621 3.4675,-2.20492 3.4675,-2.20492 4.6663,-2.47624 4.6662,-2.47624 1.0547,-0.90636 1.0547,-0.90636 4.424,-2.26286 4.4241,-2.26285 2.0419,-1.44649 2.0418,-1.44647 2.5235,-1.16988 2.5234,-1.16989 0.4094,-0.66241 0.4094,-0.66241 h 1.0433 1.0433 l 1.8092,-1.40022 1.8092,-1.40021 3.0628,-1.99053 3.0628,-1.99053 1.1389,-0.0124 1.1389,-0.0124 2.0221,-1.70157 2.0222,-1.70156 h 0.4577 0.4576 l 2.1666,-1.60737 2.1666,-1.60736 4.4241,-2.20091 4.4241,-2.2009 1.0651,-0.9476 1.0651,-0.94761 2.338,-0.7979 2.338,-0.79789 1.786,-1.42264 1.7859,-1.42264 2.2978,-1.33749 2.2978,-1.33749 4.8953,-2.74626 4.8954,-2.74627 5.9947,-3.30894 5.9946,-3.30895 1.021,-0.86242 1.0209,-0.86242 4.9347,-2.52997 4.9347,-2.52998 0.4041,-0.65386 0.4041,-0.65386 3.5093,-1.67656 3.5094,-1.67657 1.3612,-0.81003 1.3613,-0.81002 1.7015,-1.09919 1.7016,-1.09918 4.4241,-2.28542 4.424,-2.28541 2.1308,-1.54984 2.1307,-1.54984 3.6879,-1.63097 3.6879,-1.63097 3.3698,-0.74233 3.3698,-0.74232 3.6252,-0.71689 3.6252,-0.71688 h 5.4843 5.4843 l 2.4611,0.62082 2.4612,0.62082 4.4241,0.80075 4.424,0.80075 0.6806,0.55964 0.6807,0.55965 3.0628,1.19959 3.0628,1.1996 1.9239,1.58356 1.924,1.58357 h 1.0746 1.0746 l 2.1062,1.55654 2.1061,1.55654 4.3871,2.29782 4.3871,2.29783 2.4192,1.55434 2.4191,1.55434 1.8092,1.39755 1.8092,1.39755 h 0.9255 0.9254 l 2.5041,1.70156 2.5041,1.70157 h 0.4218 0.4218 l 2.1667,1.53311 2.1666,1.53312 1.3612,0.81956 1.3613,0.81957 3.4031,1.75206 3.4031,1.75206 2.7225,1.67865 2.7225,1.67864 2.7755,1.34318 2.7754,1.34318 1.6486,1.2654 1.6487,1.2654 1.0209,0.46972 1.0209,0.46973 3.8937,2.19847 3.8936,2.19847 5.9754,3.33948 5.9755,3.33948 1.0209,0.83402 1.021,0.83402 5.445,2.85786 5.445,2.85786 1.0209,0.83717 1.0209,0.83717 4.4241,2.28988 4.4241,2.28988 1.7015,1.13559 1.7016,1.13559 2.7591,1.80804 2.7591,1.80804 h 0.9201 0.9201 l 2.1061,1.55654 2.1061,1.55653 4.3872,2.29783 4.3871,2.29782 2.4191,1.55435 2.4191,1.55434 1.8092,1.39755 1.8093,1.39755 h 0.9884 0.9885 l 2.5074,1.70156 2.5074,1.70156 h 0.416 0.416 l 2.1061,1.55654 2.1061,1.55654 4.4241,2.28353 4.424,2.28353 1.021,0.84833 1.0209,0.84833 6.0332,3.30895 6.0332,3.30895 4.1762,2.27867 4.1762,2.27866 2.7225,1.78912 2.7225,1.78912 3.7434,1.95962 3.7435,1.95962 2.3822,1.47639 2.3821,1.4764 1.3613,0.81504 1.3613,0.81505 2.3821,1.15035 2.3822,1.15034 2.0419,1.44594 2.0419,1.44595 4.424,2.29709 4.4241,2.29709 1.6232,1.25107 1.6232,1.25106 h 0.6607 0.6608 l 2.0222,1.70156 2.0222,1.70157 h 1.0338 1.0338 l 2.0036,1.42667 2.0035,1.42668 3.8869,2.04051 3.8868,2.04052 2.3821,1.51958 2.3822,1.51958 2.7225,1.66625 2.7225,1.66624 1.3613,0.84818 1.3612,0.84817 3.377,1.66038 3.3769,1.66038 7.0026,6.93809 7.0026,6.93808 v 0.78865 0.78863 l 2.1136,1.99906 2.1136,1.99906 1.8977,3.88462 1.8977,3.88464 1.1632,3.94256 1.1633,3.94256 0.7809,2.04188 0.781,2.04187 V 536.7788 694.34357 l -0.781,2.04188 -0.7809,2.04188 -1.2022,4.08375 -1.2023,4.08375 -3.0335,5.76356 -3.0335,5.76356 -2.3424,3.08457 -2.3425,3.08457 -2.8183,2.97326 -2.8182,2.97325 -3.4351,2.50936 -3.4352,2.50937 -5.1047,2.94211 -5.1046,2.9421 -2.7225,1.49996 -2.7225,1.49996 -2.7225,1.59688 -2.7226,1.59689 -3.6526,2.09094 -3.6526,2.09094 -2.473,1.43186 -2.473,1.43187 -15.6544,9.04895 -15.6544,9.04894 -2.0419,1.17426 -2.0418,1.17426 -6.466,3.71241 -6.4659,3.71241 -9.1885,5.3202 -9.1884,5.3202 -2.7225,1.48826 -2.7225,1.48826 -2.3822,1.38071 -2.3822,1.38071 -3.7434,2.23343 -3.7435,2.23344 -2.7225,1.49851 -2.7225,1.49852 -6.1256,3.61627 -6.1256,3.61626 -2.7861,1.51918 -2.7861,1.51918 -2.6713,1.68635 -2.6714,1.68634 -3.731,2.01963 -3.731,2.01964 -2.3822,1.37868 -2.3822,1.37869 -6.8062,3.94372 -6.8063,3.94372 -2.0419,1.1523 -2.0418,1.15223 -3.9751,2.31658 -3.975,2.31658 -1.8103,1.07906 -1.8103,1.07906 -3.7434,2.08313 -3.7435,2.08319 -6.1256,3.57716 -6.1256,3.57723 -7.8272,4.39929 -7.8272,4.39929 -0.6806,0.51101 -0.6807,0.51102 -3.0628,1.70626 -3.0628,1.70626 -6.8062,3.90692 -6.8063,3.907 -2.3822,1.40515 -2.3822,1.40522 -3.4031,1.95557 -3.4031,1.9555 -2.3822,1.42714 -2.3822,1.42713 -3.7434,1.85478 -3.7435,1.8547 -2.3822,0.74311 -2.3822,0.7431 -3.3542,1.04497 -3.3542,1.04496 -10.9389,-0.0674 -10.9389,-0.0674 -4.4241,-1.21573 z m 37.999,-145.70007 6.582,-0.71665 9.1884,-1.71934 9.1885,-1.71934 6.4659,-1.6688 6.4659,-1.66882 6.1257,-2.07684 6.1256,-2.07686 1.3613,-0.56576 1.3612,-0.56576 5.445,-2.16807 5.445,-2.16806 8.1675,-4.07859 8.1675,-4.07858 2.3822,-1.39441 2.3822,-1.3944 2.3822,-1.50994 2.3822,-1.50994 5.1047,-3.32371 5.1047,-3.3237 5.7853,-4.38895 5.7853,-4.38893 8.0133,-7.08034 8.0132,-7.08035 6.7571,-7.6481 6.7571,-7.64809 5.6484,-7.55315 5.6484,-7.55316 3.7093,-5.92268 3.7093,-5.92269 -1.6609,-1.34492 -1.6609,-1.34491 -3.334,-1.80025 -3.3341,-1.80025 -1.0965,-0.69405 -1.0966,-0.69404 -7.4868,-4.28158 -7.4869,-4.28157 -1.021,-0.64422 -1.0209,-0.64421 -7.8272,-4.52002 -7.8272,-4.52002 -8.8481,-5.0906 -8.8481,-5.09059 -6.466,-3.73404 -6.4659,-3.73404 -2.3822,-1.36084 -2.3822,-1.36083 -4.5428,-2.64579 -4.5428,-2.64578 h -0.7235 -0.7235 l -1.8168,2.89266 -1.8167,2.89266 -4.2924,5.51074 -4.2924,5.51075 -6.3395,6.05988 -6.3396,6.05989 -6.7875,4.50826 -6.7875,4.50826 -4.9203,2.46952 -4.9202,2.46951 -5.1475,2.0448 -5.1475,2.0448 -5.2463,1.41173 -5.2464,1.41174 -5.7853,0.95428 -5.7853,0.95428 h -10.89 -10.89 l -5.7853,-0.9991 -5.7854,-0.9991 -5.7853,-1.66317 -5.7853,-1.66317 -2.7943,-1.03207 -2.7944,-1.03206 -4.5532,-2.08539 -4.5531,-2.08539 -6.265,-3.80824 -6.265,-3.80823 -4.7644,-3.8054 -4.7644,-3.8054 -4.1736,-4.21494 -4.1736,-4.21495 -4.9168,-6.3618 -4.9167,-6.36179 -4.6068,-9.53881 -4.6067,-9.53882 -2.0421,-6.46594 -2.042,-6.46594 -0.7366,-3.74344 -0.7366,-3.74344 -0.71,-4.02711 -0.71,-4.02711 0.012,-9.92571 0.012,-9.92571 0.9885,-6.03097 0.9884,-6.03096 1.4075,-5.19936 1.4075,-5.19935 1.7782,-4.76438 1.7782,-4.76437 2.5493,-5.10469 2.5493,-5.10469 4.063,-6.12563 4.0629,-6.12563 4.7779,-5.445 4.7779,-5.44501 5.353,-4.4468 5.3531,-4.4468 2.3822,-1.73924 2.3822,-1.73924 5.7959,-3.47569 5.7959,-3.4757 7.4763,-2.99481 7.4762,-2.99481 5.7854,-1.44569 5.7853,-1.44569 4.0837,-0.72686 4.0838,-0.72686 7.8272,-0.40832 7.8272,-0.40831 7.1465,0.81369 7.1466,0.8137 6.1256,1.4156 6.1257,1.41559 6.1256,2.2278 6.1256,2.2278 5.7853,2.88081 5.7853,2.88082 5.445,3.74688 5.4451,3.74688 3.7434,3.12049 3.7434,3.12047 4.2785,4.43527 4.2785,4.43528 3.6026,4.76437 3.6026,4.76438 1.2713,2.19069 1.2714,2.19069 0.951,0.36495 0.9511,0.36496 8.2734,-4.70508 8.2734,-4.70509 6.1256,-3.5594 6.1257,-3.55941 2.0418,-1.19043 2.0419,-1.19043 6.8063,-3.90629 6.8062,-3.90629 2.0419,-1.1984 2.0419,-1.1984 6.8062,-3.90629 6.8063,-3.90629 2.0419,-1.1826 2.0418,-1.18261 4.4241,-2.55917 4.4241,-2.55916 6.2798,-3.69857 6.2798,-3.69857 0.3732,-0.60378 0.3731,-0.60378 -2.203,-3.61095 -2.2031,-3.61095 -3.7181,-5.44501 -3.7181,-5.445 -6.2981,-7.82719 -6.2982,-7.82719 -6.0043,-6.22111 -6.0043,-6.2211 -6.2184,-5.34953 -6.2184,-5.34953 -4.1725,-3.26102 -4.1725,-3.26102 -7.986,-5.31624 -7.986,-5.31625 -7.7836,-4.28089 -7.7837,-4.28089 -5.1482,-2.34874 -5.1482,-2.34873 -5.7854,-2.24816 -5.7853,-2.24814 -3.7434,-1.3517 -3.7434,-1.35171 -7.4869,-2.08266 -7.4869,-2.08266 -8.5078,-1.68496 -8.5078,-1.68497 -6.466,-0.9072 -6.4659,-0.90721 -19.7382,0.002 -19.7381,0.002 -6.8063,0.88944 -6.8062,0.88944 -4.7644,0.99549 -4.7644,0.99548 -3.4031,0.69695 -3.4031,0.69696 -6.466,1.75632 -6.4659,1.75634 -4.7644,1.65738 -4.7644,1.65739 -4.7643,1.74885 -4.7644,1.74885 -10.5497,5.11898 -10.5497,5.11898 -7.1466,4.39888 -7.1465,4.39887 -4.4241,3.11554 -4.4241,3.11554 -6.8062,5.45718 -6.8063,5.45719 -8.0994,7.8539 -8.0994,7.85389 -6.9132,8.28668 -6.9132,8.28668 -4.1198,6.00645 -4.1198,6.00645 -4.6332,7.8066 -4.6332,7.8066 -3.8553,8.1881 -3.8553,8.1881 -1.0775,2.38219 -1.0776,2.38218 -3.0825,9.18845 -3.0825,9.18844 -1.7971,6.80625 -1.7971,6.80626 -0.6233,3.40312 -0.6233,3.40313 -1.4693,9.18844 -1.4693,9.18845 -0.01,20.41876 -0.01,20.41876 1.4972,9.18844 1.4972,9.18845 0.6038,3.40312 0.6038,3.40313 1.8034,6.80625 1.8035,6.80626 2.6509,7.98687 2.651,7.98687 2.5403,5.96595 2.5403,5.96595 3.3795,6.80625 3.3796,6.80626 7.7075,11.69066 7.7075,11.69065 5.3441,6.68623 5.3441,6.68623 7.9871,8.31541 7.9871,8.31542 7.6101,6.40115 7.6101,6.40115 7.1465,5.04567 7.1466,5.04567 6.4659,3.8338 6.466,3.8338 6.9366,3.44567 6.9367,3.44565 5.9952,2.42916 5.9952,2.42915 1.3613,0.63622 1.3613,0.63623 7.1668,2.34285 7.1668,2.34284 8.4876,2.00238 8.4875,2.00237 6.466,1.11759 6.4659,1.11758 5.1047,0.58217 5.1047,0.58217 17.2399,0.0913 17.24,0.0912 6.5819,-0.71665 z m 119.5026,-158.37953 0.4048,-3.23297 1.0444,-10.8493 1.0444,-10.84929 0.7398,-0.89149 0.7399,-0.89149 8.935,0.0104 8.9349,0.0104 0.9594,0.60735 0.9594,0.60736 -1.1562,11.46332 -1.1563,11.46333 -0.3909,2.89265 -0.3909,2.89266 h 7.8643 7.8643 l 0.3641,-0.58917 0.3642,-0.58918 1.3392,-13.41778 1.3392,-13.41778 0.7843,-0.94512 0.7844,-0.94512 7.5917,-0.19184 7.5917,-0.19182 v -7.14656 -7.14657 l -7.1466,-0.34031 -7.1465,-0.34032 -0.2271,-1.60475 -0.2271,-1.60475 1.114,-10.27998 1.114,-10.27997 0.7278,-0.877 0.7279,-0.877 h 7.7438 7.7439 v -7.48688 -7.48688 h -7.168 -7.1679 l -0.417,-1.08678 -0.4171,-1.08679 1.1208,-10.65399 1.1208,-10.65401 v -1.87172 -1.87172 h -7.8142 -7.8143 l -0.3142,1.53141 -0.3143,1.5314 -1.1216,11.23032 -1.1216,11.23032 -0.7023,0.85078 -0.7023,0.85078 -8.935,-0.0104 -8.9349,-0.0104 -0.938,-0.59413 -0.938,-0.59412 1.3152,-12.68744 1.3153,-12.68744 -0.3206,-0.32052 -0.3205,-0.32052 h -7.672 -7.6721 l -0.386,2.89266 -0.3861,2.89266 -1.0708,10.20252 -1.0708,10.20252 -0.7969,0.5069 -0.7969,0.50691 -7.3167,0.0104 -7.3167,0.0104 v 7.48688 7.48688 l 6.2958,0.0104 6.2958,0.0104 0.9991,0.63191 0.9992,0.63191 -1.1494,11.34496 -1.1493,11.34496 -0.7839,0.94458 -0.784,0.94462 h -7.7438 -7.7439 v 7.48688 7.48688 l 6.6361,0.0104 6.6361,0.0104 0.972,0.61512 0.972,0.61512 -1.3781,13.83775 -1.378,13.83774 0.2761,0.51047 0.276,0.51047 h 7.7232 7.7231 l 0.4049,-3.23297 z m 5.2469,-42.30569 -0.9419,-0.59653 1.1907,-11.47414 1.1907,-11.47414 0.6854,-0.85079 0.6853,-0.85078 8.9349,0.0104 8.935,0.0104 0.9594,0.60735 0.9594,0.60736 -1.1944,11.46332 -1.1945,11.46332 -0.6991,0.85079 -0.6991,0.85078 -8.9349,-0.0104 -8.935,-0.0104 z"
         id="path2175" /><path
         style="fill:#390390;stroke-width:1"
         d="m 1451.1283,890.78635 -1.0209,-0.5884 -2.6362,-0.47419 -2.6361,-0.47412 -1.1073,-0.57683 -1.1073,-0.5769 -2.497,-1.08376 -2.4969,-1.08383 -3.969,-2.27785 -3.969,-2.27792 -6.8062,-3.91924 -6.8063,-3.91925 -2.3822,-1.39861 -2.3822,-1.39869 -2.7225,-1.48356 -2.7225,-1.48362 -4.6062,-2.82589 -4.6062,-2.82596 h -0.2401 -0.2402 l -7.7452,-4.51724 -7.7452,-4.51724 -3.0628,-1.72124 -3.0628,-1.7213 -2.0419,-1.21362 -2.0419,-1.21363 -3.4031,-1.95679 -3.4032,-1.9568 -3.4031,-1.93774 -3.4031,-1.93774 -5.7853,-3.36815 -5.7853,-3.36821 -9.5288,-5.4663 -9.5288,-5.46629 -2.0418,-1.21982 -2.0419,-1.21982 -6.3609,-3.61202 -6.361,-3.61201 -2.4872,-1.42244 -2.4872,-1.42245 -6.4659,-3.7627 -6.4659,-3.7627 -6.1257,-3.56305 -6.1256,-3.56305 -2.7225,-1.54496 -2.7225,-1.54495 -6.8063,-3.90696 -6.8062,-3.90697 -2.0419,-1.18827 -2.0419,-1.18828 -6.8062,-3.94372 -6.8063,-3.94372 -2.0419,-1.17968 -2.0418,-1.17967 -6.8063,-3.90697 -6.8062,-3.90696 -2.7225,-1.54495 -2.7225,-1.54496 -6.1257,-3.56359 -6.1256,-3.56361 -3.1085,-1.78146 -3.1085,-1.78147 -14.8886,-8.50782 -14.8885,-8.50781 -5.7017,-5.74434 -5.7017,-5.74434 -1.7512,-2.98822 -1.7512,-2.98822 1.2877,-1.24851 1.2878,-1.2485 6.8062,-3.89698 6.8063,-3.89698 8.8481,-5.1332 8.8482,-5.13319 21.4397,-12.33815 21.4397,-12.33814 18.7172,-10.79868 18.7172,-10.79868 4.424,-2.5284 4.4241,-2.52842 1.1911,0.62993 1.1911,0.62992 v 0.53536 0.53536 l 5.1897,7.77836 5.1898,7.77835 3.468,4.42407 3.4681,4.42406 6.9574,7.89785 6.9575,7.89787 5.9747,5.37433 5.9747,5.37434 2.0618,1.81742 2.0617,1.81741 5.3381,4.11745 5.3381,4.11745 5.8923,3.87612 5.8922,3.87612 2.3822,1.52792 2.3822,1.52792 6.1256,3.35911 6.1256,3.35911 5.6268,2.53115 5.6267,2.53115 4.923,2.04905 4.9229,2.04906 7.1246,2.35182 7.1246,2.35182 7.8492,1.96797 7.8491,1.96798 5.445,1.02927 5.445,1.02926 5.7854,0.89617 5.7853,0.89617 22.1203,-0.0313 22.1203,-0.0313 6.8063,-1.1416 6.8062,-1.14158 5.445,-1.03297 5.445,-1.03296 2.3822,-0.607 2.3822,-0.60701 5.2747,-1.44436 5.2746,-1.44436 5.9557,-1.98938 5.9557,-1.98938 6.8062,-2.82885 6.8063,-2.82885 4.424,-2.11925 4.4241,-2.11925 6.1256,-3.38317 6.1257,-3.38318 7.8271,-5.12529 7.8272,-5.12528 4.4241,-3.38307 4.4241,-3.38307 4.0837,-3.408 4.0838,-3.408 6.7005,-6.51611 6.7005,-6.51611 5.5919,-6.46594 5.5919,-6.46594 3.412,-4.42406 3.4119,-4.42407 3.4494,-5.21314 3.4493,-5.21315 1.9457,-3.53423 1.9456,-3.53425 -1.9117,-1.46199 -1.9118,-1.46197 -8.9782,-5.17695 -8.9783,-5.17694 -8.8481,-5.12072 -8.8481,-5.12071 -15.5835,-8.97804 -15.5834,-8.97804 -8.9191,-5.13502 -8.9191,-5.13502 -0.6466,-0.60226 -0.6465,-0.60227 h -1.4656 -1.4656 l -3.2595,4.93454 -3.2594,4.93453 -4.7797,5.66046 -4.7797,5.66044 -5.1627,4.43714 -5.1628,4.43714 -6.0894,4.0851 -6.0893,4.08512 -5.141,2.5605 -5.1409,2.5605 -5.0197,1.89589 -5.0197,1.89589 -5.8703,1.59159 -5.8704,1.59161 -10.1483,1.15349 -10.1483,1.1535 -10.2705,-1.17192 -10.2704,-1.17192 -6.8062,-1.91937 -6.8063,-1.91936 -6.1256,-2.53647 -6.1256,-2.53647 -3.7435,-2.08359 -3.7434,-2.0836 -6.4235,-4.4365 -6.4234,-4.4365 -7.1891,-7.19446 -7.189,-7.19446 -4.254,-6.04254 -4.2539,-6.04254 v -1.26564 -1.26565 l 2.5524,-1.60282 2.5523,-1.60283 3.7435,-2.08128 3.7434,-2.08128 8.5078,-4.91942 8.5078,-4.91941 20.7591,-11.92056 20.7591,-11.92055 6.4659,-3.71971 6.466,-3.71972 4.424,-2.89914 4.4241,-2.89915 22.4606,-12.9332 22.4607,-12.9332 13.2722,-7.65575 13.2722,-7.65575 7.6271,-4.34449 7.6271,-4.3445 h 1.3677 1.3678 l 4.493,-2.55234 4.493,-2.55235 1.1532,-0.68062 1.1533,-0.68063 5.4373,-3.15106 5.4374,-3.15105 2.3822,-1.36409 2.3822,-1.36409 15.6543,-9.00602 15.6544,-9.006 0.6807,-0.52327 0.6806,-0.52326 7.8272,-4.40356 7.8272,-4.40356 7.3174,-4.23889 7.3174,-4.2389 0.9861,-1.40792 0.9862,-1.40791 3.267,-1.82068 3.2671,-1.82069 2.3822,-1.39398 2.3822,-1.39398 6.8063,-3.90698 6.8062,-3.90697 2.7225,-1.55352 2.7225,-1.55353 6.1256,-3.56071 6.1257,-3.56072 2.256,-1.28699 2.2561,-1.28698 17.8224,-10.28721 17.8224,-10.2872 15.9947,-9.20287 15.9947,-9.20285 3.93,-2.24918 3.93,-2.24917 0.8621,0.3308 0.8621,0.33081 2.1843,4.8294 2.1843,4.82941 v 0.94698 0.94699 l 0.6298,1.18186 0.6297,1.18186 1.0736,4.76438 1.0736,4.76437 V 536.97924 690.6607 l -1.0672,4.56394 -1.0671,4.56395 -0.6344,1.18186 -0.6344,1.18185 v 1.10715 1.10714 l -3.4446,6.94789 -3.4446,6.94789 -4.628,5.43467 -4.628,5.43466 -3.3279,2.37745 -3.3279,2.37745 -6.4659,3.7028 -6.466,3.7028 -2.0418,1.19205 -2.0419,1.19206 -3.0628,1.72431 -3.0629,1.72431 -2.0418,1.23279 -2.0419,1.2328 -3.7434,2.08288 -3.7435,2.08289 -7.0319,4.15476 -7.0318,4.15476 h -0.1826 -0.1825 l -16.6075,9.63525 -16.6075,9.63524 -2.7225,1.51878 -2.7225,1.51878 -5.7853,3.36307 -5.7853,3.36308 -3.0628,1.7214 -3.0628,1.72141 -6.8063,3.94438 -6.8062,3.94439 -2.3822,1.32914 -2.3822,1.32913 -6.1256,3.59017 -6.1257,3.59016 -2.3822,1.36507 -2.3821,1.36506 -6.8063,3.90697 -6.8063,3.90696 -2.9152,1.64962 -2.9151,1.64963 -7.5526,4.38961 -7.5525,4.38962 h -0.1826 -0.1825 l -4.6158,2.80417 -4.6157,2.80411 -3.1109,1.73199 -3.1108,1.73192 -2.3822,1.3703 -2.3822,1.3703 -3.4031,1.95558 -3.4032,1.9555 -2.0418,1.21362 -2.0419,1.21363 -3.0628,1.73661 -3.0628,1.73662 -6.8063,3.90767 -6.8063,3.90761 -2.7225,1.54502 -2.7225,1.54495 -6.1256,3.56137 -6.1256,3.56138 -2.9152,1.64799 -2.9152,1.64793 -7.2942,4.22662 -7.2942,4.22655 -4.424,1.80706 -4.4241,1.80699 -2.0419,0.50992 -2.0419,0.50993 -12.2512,0.22338 -12.2513,0.22338 -1.0209,-0.58847 z m 155.0194,-299.72768 0.6842,-0.85078 1.1169,-11.57063 1.1169,-11.57063 0.384,-2.55235 0.384,-2.55234 h 9.1286 9.1286 l -0.033,2.55234 -0.033,2.55235 -1.2525,11.57063 -1.2525,11.57063 0.6883,0.85078 0.6883,0.85078 h 8.0987 8.0988 l 0.6321,-1.5314 0.6322,-1.53141 1.0852,-11.91094 1.0852,-11.91095 0.3175,-1.50987 0.3175,-1.50987 7.9898,-0.19169 7.9897,-0.1917 v -8.50781 -8.50782 l -7.1465,-0.34031 -7.1466,-0.34032 0.1401,-1.36125 0.1402,-1.36125 0.726,-7.82719 0.7261,-7.82719 0.3518,-2.1913 0.3519,-2.1913 8.3107,-0.19089 8.3107,-0.19089 0.1928,-8.11337 0.1927,-8.11336 -0.8734,-0.55419 -0.8733,-0.55418 -6.6361,-0.0104 -6.6361,-0.0104 v -2.21203 -2.21203 l 1.1052,-10.36192 1.1052,-10.36191 -0.3985,-1.03856 -0.3985,-1.03856 h -8.1056 -8.1055 l -0.8047,0.96963 -0.8047,0.96963 -0.9757,9.75022 -0.9757,9.75022 -0.3865,2.89266 -0.3865,2.89265 h -9.1468 -9.1467 l -0.011,-1.19109 -0.011,-1.19109 1.1257,-11.34669 1.1257,-11.34668 -0.4124,-1.07473 -0.4125,-1.07473 h -8.1055 -8.1055 l -0.7251,0.87364 -0.725,0.87365 -1.0591,10.52683 -1.0591,10.52683 -0.3719,2.21203 -0.3719,2.21203 h -7.3199 -7.3199 l -0.8168,0.81675 -0.8167,0.81675 v 6.95478 6.95478 l 0.4131,1.0766 0.4131,1.0766 h 6.62 6.62 l 0.3265,0.32645 0.3264,0.32645 -1.1887,11.07403 -1.1888,11.07402 -0.045,0.17016 -0.045,0.17016 h -7.6911 -7.691 l -0.8168,0.81675 -0.8167,0.81675 v 7.21463 7.21463 l 0.8167,0.81675 0.8168,0.81675 h 6.5567 6.5567 l 0.3112,0.31121 0.3112,0.3112 -1.3427,13.50826 -1.3427,13.50826 0.4429,1.1543 0.443,1.15428 h 8.1055 8.1055 z m 5.6215,-49.00503 0.013,-2.21203 1.0008,-8.84813 1.0009,-8.84813 0.01,-0.51047 0.01,-0.51047 h 9.1884 9.1885 v 2.0687 2.06871 l -0.6832,6.60927 -0.6832,6.60927 -0.3794,2.89266 -0.3795,2.89266 h -9.1467 -9.1468 l 0.013,-2.21204 z"
         id="path2173" /></g></g></svg>
