<?xml version="1.0" encoding="UTF-8"?><svg id="Ebene_2" xmlns="http://www.w3.org/2000/svg" viewBox="0 0 15.51 15.51"><defs><style>.cls-1{fill:#fff;}.cls-2{fill:none;stroke:#fff;stroke-miterlimit:10;stroke-width:1.57px;}</style></defs><g id="Ebene_1-2"><path class="cls-1" d="M9.44,3.43c.44,.16,.67,.39,.67,.67s-.11,.63-.32,1.04c-.21,.41-.39,.62-.53,.62-.04,0-.09-.02-.14-.07-.05-.04-.17-.09-.36-.14-.19-.05-.35-.08-.49-.08-.46,0-.84,.16-1.12,.49-.28,.33-.43,.83-.43,1.51s.15,1.18,.44,1.51c.29,.33,.66,.49,1.11,.49,.18,0,.39-.03,.62-.08,.23-.05,.39-.13,.49-.22,.02-.02,.05-.02,.1-.02s.14,.09,.27,.27c.13,.18,.25,.42,.37,.71,.11,.29,.17,.52,.17,.68,0,.31-.24,.56-.72,.74-.48,.18-1.05,.28-1.7,.28-1.06,0-1.92-.37-2.6-1.12s-1.02-1.79-1.02-3.15,.35-2.42,1.05-3.2c.7-.78,1.57-1.16,2.62-1.16,.58,0,1.1,.08,1.54,.25Z"/><circle class="cls-2" cx="7.76" cy="7.76" r="6.97"/></g></svg>